<ttFont>
    <TTGlyph name="A" xMin="61" yMin="0" xMax="1398" yMax="1434">
      <contour>
        <pt x="63" y="20" on="1"/>
        <pt x="606" y="1372" on="1"/>
        <pt x="631" y="1433" on="0"/>
        <pt x="698" y="1434" on="1"/>
        <pt x="760" y="1434" on="1"/>
        <pt x="828" y="1434" on="0"/>
        <pt x="852" y="1372" on="1"/>
        <pt x="1395" y="20" on="1"/>
        <pt x="1398" y="14" on="0"/>
        <pt x="1398" y="11" on="1"/>
        <pt x="1398" y="0" on="0"/>
        <pt x="1378" y="0" on="1"/>
        <pt x="1231" y="0" on="1"/>
        <pt x="1211" y="0" on="0"/>
        <pt x="1200" y="20" on="1"/>
        <pt x="1057" y="369" on="1"/>
        <pt x="401" y="369" on="1"/>
        <pt x="258" y="20" on="1"/>
        <pt x="248" y="0" on="0"/>
        <pt x="227" y="0" on="1"/>
        <pt x="80" y="0" on="1"/>
        <pt x="61" y="0" on="0"/>
        <pt x="61" y="11" on="1"/>
        <pt x="60" y="14" on="0"/>
      </contour>
      <contour>
        <pt x="453" y="512" on="1"/>
        <pt x="1006" y="512" on="1"/>
        <pt x="729" y="1198" on="1"/>
      </contour>
    </TTGlyph>
    <TTGlyph name="AE" xMin="4" yMin="0" xMax="1915" yMax="1434">
      <contour>
        <pt x="4" y="20" on="1"/>
        <pt x="752" y="1372" on="1"/>
        <pt x="784" y="1434" on="0"/>
        <pt x="862" y="1434" on="1"/>
        <pt x="1894" y="1434" on="1"/>
        <pt x="1915" y="1434" on="0"/>
        <pt x="1915" y="1413" on="1"/>
        <pt x="1915" y="1311" on="1"/>
        <pt x="1915" y="1290" on="0"/>
        <pt x="1894" y="1290" on="1"/>
        <pt x="1149" y="1290" on="1"/>
        <pt x="1149" y="799" on="1"/>
        <pt x="1751" y="799" on="1"/>
        <pt x="1772" y="799" on="0"/>
        <pt x="1772" y="778" on="1"/>
        <pt x="1772" y="676" on="1"/>
        <pt x="1772" y="655" on="0"/>
        <pt x="1751" y="655" on="1"/>
        <pt x="1149" y="655" on="1"/>
        <pt x="1149" y="143" on="1"/>
        <pt x="1894" y="143" on="1"/>
        <pt x="1915" y="143" on="0"/>
        <pt x="1915" y="123" on="1"/>
        <pt x="1915" y="20" on="1"/>
        <pt x="1915" y="0" on="0"/>
        <pt x="1894" y="0" on="1"/>
        <pt x="985" y="0" on="1"/>
        <pt x="965" y="0" on="0"/>
        <pt x="965" y="20" on="1"/>
        <pt x="965" y="369" on="1"/>
        <pt x="393" y="369" on="1"/>
        <pt x="201" y="20" on="1"/>
        <pt x="188" y="0" on="0"/>
        <pt x="170" y="0" on="1"/>
        <pt x="20" y="0" on="1"/>
        <pt x="-8" y="0" on="0"/>
      </contour>
      <contour>
        <pt x="471" y="512" on="1"/>
        <pt x="965" y="512" on="1"/>
        <pt x="965" y="1290" on="1"/>
        <pt x="903" y="1290" on="1"/>
      </contour>
    </TTGlyph>
    <TTGlyph name="Aacute" xMin="63" yMin="0" xMax="1395" yMax="1833">
      <contour>
        <pt x="63" y="20" on="1"/>
        <pt x="606" y="1372" on="1"/>
        <pt x="631" y="1433" on="0"/>
        <pt x="698" y="1434" on="1"/>
        <pt x="760" y="1434" on="1"/>
        <pt x="828" y="1434" on="0"/>
        <pt x="852" y="1372" on="1"/>
        <pt x="1395" y="20" on="1"/>
        <pt x="1405" y="0" on="0"/>
        <pt x="1378" y="0" on="1"/>
        <pt x="1231" y="0" on="1"/>
        <pt x="1211" y="0" on="0"/>
        <pt x="1200" y="20" on="1"/>
        <pt x="1057" y="369" on="1"/>
        <pt x="401" y="369" on="1"/>
        <pt x="258" y="20" on="1"/>
        <pt x="248" y="0" on="0"/>
        <pt x="227" y="0" on="1"/>
        <pt x="80" y="0" on="1"/>
        <pt x="53" y="0" on="0"/>
      </contour>
      <contour>
        <pt x="453" y="512" on="1"/>
        <pt x="1006" y="512" on="1"/>
        <pt x="729" y="1198" on="1"/>
      </contour>
      <contour>
        <pt x="672" y="1546" on="1"/>
        <pt x="805" y="1812" on="1"/>
        <pt x="815" y="1832" on="0"/>
        <pt x="836" y="1833" on="1"/>
        <pt x="1020" y="1833" on="1"/>
        <pt x="1045" y="1833" on="0"/>
        <pt x="1030" y="1812" on="1"/>
        <pt x="815" y="1546" on="1"/>
        <pt x="799" y="1526" on="0"/>
        <pt x="784" y="1526" on="1"/>
        <pt x="682" y="1526" on="1"/>
        <pt x="662" y="1526" on="0"/>
      </contour>
    </TTGlyph>
    <TTGlyph name="Acircumflex" xMin="63" yMin="0" xMax="1395" yMax="1812">
      <contour>
        <pt x="63" y="20" on="1"/>
        <pt x="606" y="1372" on="1"/>
        <pt x="631" y="1433" on="0"/>
        <pt x="698" y="1434" on="1"/>
        <pt x="760" y="1434" on="1"/>
        <pt x="828" y="1434" on="0"/>
        <pt x="852" y="1372" on="1"/>
        <pt x="1395" y="20" on="1"/>
        <pt x="1405" y="0" on="0"/>
        <pt x="1378" y="0" on="1"/>
        <pt x="1231" y="0" on="1"/>
        <pt x="1211" y="0" on="0"/>
        <pt x="1200" y="20" on="1"/>
        <pt x="1057" y="369" on="1"/>
        <pt x="401" y="369" on="1"/>
        <pt x="258" y="20" on="1"/>
        <pt x="248" y="0" on="0"/>
        <pt x="227" y="0" on="1"/>
        <pt x="80" y="0" on="1"/>
        <pt x="53" y="0" on="0"/>
      </contour>
      <contour>
        <pt x="428" y="1526" on="1"/>
        <pt x="575" y="1751" on="1"/>
        <pt x="617" y="1812" on="0"/>
        <pt x="657" y="1812" on="1"/>
        <pt x="801" y="1812" on="1"/>
        <pt x="836" y="1812" on="0"/>
        <pt x="866" y="1774" on="0"/>
        <pt x="883" y="1751" on="1"/>
        <pt x="1030" y="1526" on="1"/>
        <pt x="1044" y="1506" on="0"/>
        <pt x="1020" y="1505" on="1"/>
        <pt x="922" y="1505" on="1"/>
        <pt x="908" y="1505" on="0"/>
        <pt x="887" y="1526" on="1"/>
        <pt x="729" y="1690" on="1"/>
        <pt x="571" y="1526" on="1"/>
        <pt x="551" y="1506" on="0"/>
        <pt x="537" y="1505" on="1"/>
        <pt x="438" y="1505" on="1"/>
        <pt x="414" y="1506" on="0"/>
      </contour>
      <contour>
        <pt x="453" y="512" on="1"/>
        <pt x="1006" y="512" on="1"/>
        <pt x="729" y="1198" on="1"/>
      </contour>
    </TTGlyph>
    <TTGlyph name="Adieresis" xMin="63" yMin="0" xMax="1395" yMax="1741">
      <contour>
        <pt x="63" y="20" on="1"/>
        <pt x="606" y="1372" on="1"/>
        <pt x="631" y="1433" on="0"/>
        <pt x="698" y="1434" on="1"/>
        <pt x="760" y="1434" on="1"/>
        <pt x="828" y="1434" on="0"/>
        <pt x="852" y="1372" on="1"/>
        <pt x="1395" y="20" on="1"/>
        <pt x="1405" y="0" on="0"/>
        <pt x="1378" y="0" on="1"/>
        <pt x="1231" y="0" on="1"/>
        <pt x="1211" y="0" on="0"/>
        <pt x="1200" y="20" on="1"/>
        <pt x="1057" y="369" on="1"/>
        <pt x="401" y="369" on="1"/>
        <pt x="258" y="20" on="1"/>
        <pt x="248" y="0" on="0"/>
        <pt x="227" y="0" on="1"/>
        <pt x="80" y="0" on="1"/>
        <pt x="53" y="0" on="0"/>
      </contour>
      <contour>
        <pt x="412" y="1567" on="1"/>
        <pt x="412" y="1700" on="1"/>
        <pt x="412" y="1723" on="0"/>
        <pt x="430" y="1741" on="0"/>
        <pt x="453" y="1741" on="1"/>
        <pt x="586" y="1741" on="1"/>
        <pt x="609" y="1741" on="0"/>
        <pt x="627" y="1722" on="0"/>
        <pt x="627" y="1700" on="1"/>
        <pt x="627" y="1567" on="1"/>
        <pt x="627" y="1544" on="0"/>
        <pt x="608" y="1526" on="0"/>
        <pt x="586" y="1526" on="1"/>
        <pt x="453" y="1526" on="1"/>
        <pt x="430" y="1526" on="0"/>
        <pt x="412" y="1544" on="0"/>
      </contour>
      <contour>
        <pt x="453" y="512" on="1"/>
        <pt x="1006" y="512" on="1"/>
        <pt x="729" y="1198" on="1"/>
      </contour>
      <contour>
        <pt x="831" y="1567" on="1"/>
        <pt x="831" y="1700" on="1"/>
        <pt x="831" y="1723" on="0"/>
        <pt x="850" y="1741" on="0"/>
        <pt x="872" y="1741" on="1"/>
        <pt x="1006" y="1741" on="1"/>
        <pt x="1029" y="1741" on="0"/>
        <pt x="1047" y="1722" on="0"/>
        <pt x="1047" y="1700" on="1"/>
        <pt x="1047" y="1567" on="1"/>
        <pt x="1047" y="1544" on="0"/>
        <pt x="1028" y="1526" on="0"/>
        <pt x="1006" y="1526" on="1"/>
        <pt x="872" y="1526" on="1"/>
        <pt x="849" y="1526" on="0"/>
        <pt x="831" y="1544" on="0"/>
      </contour>
    </TTGlyph>
    <TTGlyph name="Agrave" xMin="63" yMin="0" xMax="1395" yMax="1833">
      <contour>
        <pt x="63" y="20" on="1"/>
        <pt x="606" y="1372" on="1"/>
        <pt x="631" y="1433" on="0"/>
        <pt x="698" y="1434" on="1"/>
        <pt x="760" y="1434" on="1"/>
        <pt x="828" y="1434" on="0"/>
        <pt x="852" y="1372" on="1"/>
        <pt x="1395" y="20" on="1"/>
        <pt x="1405" y="0" on="0"/>
        <pt x="1378" y="0" on="1"/>
        <pt x="1231" y="0" on="1"/>
        <pt x="1211" y="0" on="0"/>
        <pt x="1200" y="20" on="1"/>
        <pt x="1057" y="369" on="1"/>
        <pt x="401" y="369" on="1"/>
        <pt x="258" y="20" on="1"/>
        <pt x="248" y="0" on="0"/>
        <pt x="227" y="0" on="1"/>
        <pt x="80" y="0" on="1"/>
        <pt x="53" y="0" on="0"/>
      </contour>
      <contour>
        <pt x="428" y="1812" on="1"/>
        <pt x="414" y="1832" on="0"/>
        <pt x="438" y="1833" on="1"/>
        <pt x="623" y="1833" on="1"/>
        <pt x="643" y="1833" on="0"/>
        <pt x="653" y="1812" on="1"/>
        <pt x="786" y="1546" on="1"/>
        <pt x="796" y="1526" on="0"/>
        <pt x="776" y="1526" on="1"/>
        <pt x="674" y="1526" on="1"/>
        <pt x="660" y="1526" on="0"/>
        <pt x="643" y="1546" on="1"/>
      </contour>
      <contour>
        <pt x="453" y="512" on="1"/>
        <pt x="1006" y="512" on="1"/>
        <pt x="729" y="1198" on="1"/>
      </contour>
    </TTGlyph>
    <TTGlyph name="Aring" xMin="63" yMin="0" xMax="1395" yMax="1772">
      <contour>
        <pt x="63" y="20" on="1"/>
        <pt x="596" y="1352" on="1"/>
        <pt x="481" y="1411" on="0"/>
        <pt x="481" y="1546" on="1"/>
        <pt x="481" y="1646" on="0"/>
        <pt x="618" y="1772" on="0"/>
        <pt x="836" y="1772" on="0"/>
        <pt x="973" y="1647" on="0"/>
        <pt x="973" y="1546" on="1"/>
        <pt x="973" y="1411" on="0"/>
        <pt x="860" y="1352" on="1"/>
        <pt x="1395" y="20" on="1"/>
        <pt x="1405" y="0" on="0"/>
        <pt x="1378" y="0" on="1"/>
        <pt x="1231" y="0" on="1"/>
        <pt x="1211" y="0" on="0"/>
        <pt x="1200" y="20" on="1"/>
        <pt x="1057" y="369" on="1"/>
        <pt x="401" y="369" on="1"/>
        <pt x="258" y="20" on="1"/>
        <pt x="248" y="0" on="0"/>
        <pt x="227" y="0" on="1"/>
        <pt x="80" y="0" on="1"/>
        <pt x="53" y="0" on="0"/>
      </contour>
      <contour>
        <pt x="453" y="512" on="1"/>
        <pt x="1006" y="512" on="1"/>
        <pt x="729" y="1198" on="1"/>
      </contour>
      <contour>
        <pt x="614" y="1593" on="0"/>
        <pt x="614" y="1499" on="0"/>
        <pt x="680" y="1434" on="0"/>
        <pt x="774" y="1434" on="0"/>
        <pt x="840" y="1499" on="0"/>
        <pt x="840" y="1593" on="0"/>
        <pt x="774" y="1659" on="0"/>
        <pt x="680" y="1659" on="0"/>
      </contour>
    </TTGlyph>
    <TTGlyph name="Atilde" xMin="63" yMin="0" xMax="1395" yMax="1802">
      <contour>
        <pt x="63" y="20" on="1"/>
        <pt x="606" y="1372" on="1"/>
        <pt x="631" y="1433" on="0"/>
        <pt x="698" y="1434" on="1"/>
        <pt x="760" y="1434" on="1"/>
        <pt x="828" y="1434" on="0"/>
        <pt x="852" y="1372" on="1"/>
        <pt x="1395" y="20" on="1"/>
        <pt x="1405" y="0" on="0"/>
        <pt x="1378" y="0" on="1"/>
        <pt x="1231" y="0" on="1"/>
        <pt x="1211" y="0" on="0"/>
        <pt x="1200" y="20" on="1"/>
        <pt x="1057" y="369" on="1"/>
        <pt x="401" y="369" on="1"/>
        <pt x="258" y="20" on="1"/>
        <pt x="248" y="0" on="0"/>
        <pt x="227" y="0" on="1"/>
        <pt x="80" y="0" on="1"/>
        <pt x="53" y="0" on="0"/>
      </contour>
      <contour>
        <pt x="412" y="1550" on="1"/>
        <pt x="441" y="1802" on="0"/>
        <pt x="606" y="1802" on="1"/>
        <pt x="678" y="1802" on="0"/>
        <pt x="774" y="1703" on="1"/>
        <pt x="807" y="1669" on="0"/>
        <pt x="831" y="1669" on="1"/>
        <pt x="888" y="1669" on="0"/>
        <pt x="909" y="1772" on="1"/>
        <pt x="911" y="1792" on="0"/>
        <pt x="934" y="1792" on="1"/>
        <pt x="1016" y="1792" on="1"/>
        <pt x="1041" y="1792" on="0"/>
        <pt x="1036" y="1767" on="1"/>
        <pt x="1007" y="1515" on="0"/>
        <pt x="842" y="1516" on="1"/>
        <pt x="770" y="1516" on="0"/>
        <pt x="674" y="1615" on="1"/>
        <pt x="641" y="1649" on="0"/>
        <pt x="616" y="1649" on="1"/>
        <pt x="559" y="1649" on="0"/>
        <pt x="539" y="1546" on="1"/>
        <pt x="537" y="1526" on="0"/>
        <pt x="514" y="1526" on="1"/>
        <pt x="432" y="1526" on="1"/>
        <pt x="408" y="1525" on="0"/>
      </contour>
      <contour>
        <pt x="453" y="512" on="1"/>
        <pt x="1006" y="512" on="1"/>
        <pt x="729" y="1198" on="1"/>
      </contour>
    </TTGlyph>
    <TTGlyph name="B" xMin="205" yMin="0" xMax="1362" yMax="1434">
      <contour>
        <pt x="205" y="20" on="1"/>
        <pt x="205" y="1413" on="1"/>
        <pt x="205" y="1434" on="0"/>
        <pt x="225" y="1434" on="1"/>
        <pt x="768" y="1434" on="1"/>
        <pt x="1018" y="1434" on="0"/>
        <pt x="1280" y="1231" on="0"/>
        <pt x="1280" y="1044" on="1"/>
        <pt x="1280" y="936" on="0"/>
        <pt x="1157" y="766" on="0"/>
        <pt x="1034" y="737" on="1"/>
        <pt x="1202" y="709" on="0"/>
        <pt x="1362" y="524" on="0"/>
        <pt x="1362" y="399" on="1"/>
        <pt x="1362" y="207" on="0"/>
        <pt x="1102" y="0" on="0"/>
        <pt x="850" y="0" on="1"/>
        <pt x="225" y="0" on="1"/>
        <pt x="205" y="0" on="0"/>
      </contour>
      <contour>
        <pt x="1178" y="143" on="0"/>
        <pt x="1178" y="655" on="0"/>
        <pt x="850" y="655" on="1"/>
        <pt x="389" y="655" on="1"/>
        <pt x="389" y="143" on="1"/>
        <pt x="850" y="143" on="1"/>
      </contour>
      <contour>
        <pt x="389" y="799" on="1"/>
        <pt x="788" y="799" on="1"/>
        <pt x="930" y="799" on="0"/>
        <pt x="1096" y="924" on="0"/>
        <pt x="1096" y="1165" on="0"/>
        <pt x="924" y="1290" on="0"/>
        <pt x="768" y="1290" on="1"/>
        <pt x="389" y="1290" on="1"/>
      </contour>
    </TTGlyph>
    <TTGlyph name="C" xMin="123" yMin="-31" xMax="1403" yMax="1464">
      <contour>
        <pt x="498" y="-31" on="0"/>
        <pt x="123" y="365" on="0"/>
        <pt x="123" y="1067" on="0"/>
        <pt x="496" y="1464" on="0"/>
        <pt x="788" y="1464" on="1"/>
        <pt x="1040" y="1464" on="0"/>
        <pt x="1354" y="1247" on="0"/>
        <pt x="1393" y="1049" on="1"/>
        <pt x="1397" y="1024" on="0"/>
        <pt x="1372" y="1024" on="1"/>
        <pt x="1243" y="1024" on="1"/>
        <pt x="1225" y="1024" on="0"/>
        <pt x="1219" y="1044" on="1"/>
        <pt x="1133" y="1320" on="0"/>
        <pt x="788" y="1321" on="1"/>
        <pt x="581" y="1321" on="0"/>
        <pt x="307" y="1016" on="0"/>
        <pt x="307" y="418" on="0"/>
        <pt x="584" y="113" on="0"/>
        <pt x="799" y="113" on="1"/>
        <pt x="1143" y="113" on="0"/>
        <pt x="1229" y="389" on="1"/>
        <pt x="1235" y="409" on="0"/>
        <pt x="1253" y="410" on="1"/>
        <pt x="1382" y="410" on="1"/>
        <pt x="1403" y="410" on="0"/>
        <pt x="1403" y="392" on="1"/>
        <pt x="1403" y="303" on="0"/>
        <pt x="1344" y="218" on="1"/>
        <pt x="1173" y="-31" on="0"/>
        <pt x="799" y="-31" on="1"/>
      </contour>
    </TTGlyph>
    <TTGlyph name="Ccedilla" xMin="123" yMin="-451" xMax="1403" yMax="1464">
      <contour>
        <pt x="449" y="0" on="0"/>
        <pt x="123" y="389" on="0"/>
        <pt x="123" y="1067" on="0"/>
        <pt x="496" y="1464" on="0"/>
        <pt x="788" y="1464" on="1"/>
        <pt x="1040" y="1464" on="0"/>
        <pt x="1354" y="1247" on="0"/>
        <pt x="1393" y="1049" on="1"/>
        <pt x="1397" y="1024" on="0"/>
        <pt x="1372" y="1024" on="1"/>
        <pt x="1243" y="1024" on="1"/>
        <pt x="1225" y="1024" on="0"/>
        <pt x="1219" y="1044" on="1"/>
        <pt x="1133" y="1320" on="0"/>
        <pt x="788" y="1321" on="1"/>
        <pt x="581" y="1321" on="0"/>
        <pt x="307" y="1016" on="0"/>
        <pt x="307" y="418" on="0"/>
        <pt x="584" y="113" on="0"/>
        <pt x="799" y="113" on="1"/>
        <pt x="1143" y="113" on="0"/>
        <pt x="1229" y="389" on="1"/>
        <pt x="1235" y="409" on="0"/>
        <pt x="1253" y="410" on="1"/>
        <pt x="1382" y="410" on="1"/>
        <pt x="1407" y="410" on="0"/>
        <pt x="1403" y="385" on="1"/>
        <pt x="1366" y="201" on="0"/>
        <pt x="1085" y="-14" on="0"/>
        <pt x="860" y="-29" on="1"/>
        <pt x="860" y="-82" on="1"/>
        <pt x="979" y="-82" on="0"/>
        <pt x="1106" y="-186" on="0"/>
        <pt x="1106" y="-348" on="0"/>
        <pt x="971" y="-451" on="0"/>
        <pt x="840" y="-451" on="1"/>
        <pt x="707" y="-451" on="1"/>
        <pt x="687" y="-451" on="0"/>
        <pt x="686" y="-430" on="1"/>
        <pt x="686" y="-358" on="1"/>
        <pt x="686" y="-338" on="0"/>
        <pt x="707" y="-338" on="1"/>
        <pt x="840" y="-338" on="1"/>
        <pt x="963" y="-338" on="0"/>
        <pt x="963" y="-195" on="0"/>
        <pt x="860" y="-195" on="1"/>
        <pt x="737" y="-195" on="1"/>
        <pt x="717" y="-195" on="0"/>
        <pt x="717" y="-174" on="1"/>
        <pt x="717" y="-27" on="1"/>
      </contour>
    </TTGlyph>
    <TTGlyph name="D" xMin="205" yMin="0" xMax="1403" yMax="1434">
      <contour>
        <pt x="205" y="20" on="1"/>
        <pt x="205" y="1413" on="1"/>
        <pt x="205" y="1433" on="0"/>
        <pt x="225" y="1434" on="1"/>
        <pt x="696" y="1434" on="1"/>
        <pt x="1015" y="1434" on="0"/>
        <pt x="1403" y="1051" on="0"/>
        <pt x="1403" y="383" on="0"/>
        <pt x="1016" y="0" on="0"/>
        <pt x="696" y="0" on="1"/>
        <pt x="225" y="0" on="1"/>
        <pt x="205" y="0" on="0"/>
      </contour>
      <contour>
        <pt x="389" y="143" on="1"/>
        <pt x="696" y="143" on="1"/>
        <pt x="929" y="143" on="0"/>
        <pt x="1219" y="436" on="0"/>
        <pt x="1219" y="997" on="0"/>
        <pt x="930" y="1290" on="0"/>
        <pt x="696" y="1290" on="1"/>
        <pt x="389" y="1290" on="1"/>
      </contour>
    </TTGlyph>
    <TTGlyph name="E" xMin="205" yMin="0" xMax="1237" yMax="1434">
      <contour>
        <pt x="205" y="20" on="1"/>
        <pt x="205" y="1413" on="1"/>
        <pt x="205" y="1434" on="0"/>
        <pt x="225" y="1434" on="1"/>
        <pt x="1217" y="1434" on="1"/>
        <pt x="1237" y="1434" on="0"/>
        <pt x="1237" y="1413" on="1"/>
        <pt x="1237" y="1311" on="1"/>
        <pt x="1237" y="1290" on="0"/>
        <pt x="1217" y="1290" on="1"/>
        <pt x="389" y="1290" on="1"/>
        <pt x="389" y="799" on="1"/>
        <pt x="1073" y="799" on="1"/>
        <pt x="1094" y="799" on="0"/>
        <pt x="1094" y="778" on="1"/>
        <pt x="1094" y="676" on="1"/>
        <pt x="1094" y="655" on="0"/>
        <pt x="1073" y="655" on="1"/>
        <pt x="389" y="655" on="1"/>
        <pt x="389" y="143" on="1"/>
        <pt x="1217" y="143" on="1"/>
        <pt x="1237" y="143" on="0"/>
        <pt x="1237" y="123" on="1"/>
        <pt x="1237" y="20" on="1"/>
        <pt x="1237" y="0" on="0"/>
        <pt x="1217" y="0" on="1"/>
        <pt x="225" y="0" on="1"/>
        <pt x="205" y="0" on="0"/>
      </contour>
    </TTGlyph>
    <TTGlyph name="Eacute" xMin="205" yMin="0" xMax="1237" yMax="1833">
      <contour>
        <pt x="205" y="20" on="1"/>
        <pt x="205" y="1413" on="1"/>
        <pt x="205" y="1434" on="0"/>
        <pt x="225" y="1434" on="1"/>
        <pt x="1217" y="1434" on="1"/>
        <pt x="1237" y="1434" on="0"/>
        <pt x="1237" y="1413" on="1"/>
        <pt x="1237" y="1311" on="1"/>
        <pt x="1237" y="1290" on="0"/>
        <pt x="1217" y="1290" on="1"/>
        <pt x="389" y="1290" on="1"/>
        <pt x="389" y="799" on="1"/>
        <pt x="1073" y="799" on="1"/>
        <pt x="1094" y="799" on="0"/>
        <pt x="1094" y="778" on="1"/>
        <pt x="1094" y="676" on="1"/>
        <pt x="1094" y="655" on="0"/>
        <pt x="1073" y="655" on="1"/>
        <pt x="389" y="655" on="1"/>
        <pt x="389" y="143" on="1"/>
        <pt x="1217" y="143" on="1"/>
        <pt x="1237" y="143" on="0"/>
        <pt x="1237" y="123" on="1"/>
        <pt x="1237" y="20" on="1"/>
        <pt x="1237" y="0" on="0"/>
        <pt x="1217" y="0" on="1"/>
        <pt x="225" y="0" on="1"/>
        <pt x="205" y="0" on="0"/>
      </contour>
      <contour>
        <pt x="623" y="1546" on="1"/>
        <pt x="756" y="1812" on="1"/>
        <pt x="766" y="1833" on="0"/>
        <pt x="786" y="1833" on="1"/>
        <pt x="971" y="1833" on="1"/>
        <pt x="995" y="1833" on="0"/>
        <pt x="981" y="1812" on="1"/>
        <pt x="766" y="1546" on="1"/>
        <pt x="750" y="1526" on="0"/>
        <pt x="735" y="1526" on="1"/>
        <pt x="633" y="1526" on="1"/>
        <pt x="612" y="1526" on="0"/>
      </contour>
    </TTGlyph>
    <TTGlyph name="Ecircumflex" xMin="205" yMin="0" xMax="1237" yMax="1833">
      <contour>
        <pt x="205" y="20" on="1"/>
        <pt x="205" y="1413" on="1"/>
        <pt x="205" y="1434" on="0"/>
        <pt x="225" y="1434" on="1"/>
        <pt x="1217" y="1434" on="1"/>
        <pt x="1237" y="1434" on="0"/>
        <pt x="1237" y="1413" on="1"/>
        <pt x="1237" y="1311" on="1"/>
        <pt x="1237" y="1290" on="0"/>
        <pt x="1217" y="1290" on="1"/>
        <pt x="389" y="1290" on="1"/>
        <pt x="389" y="799" on="1"/>
        <pt x="1073" y="799" on="1"/>
        <pt x="1094" y="799" on="0"/>
        <pt x="1094" y="778" on="1"/>
        <pt x="1094" y="676" on="1"/>
        <pt x="1094" y="655" on="0"/>
        <pt x="1073" y="655" on="1"/>
        <pt x="389" y="655" on="1"/>
        <pt x="389" y="143" on="1"/>
        <pt x="1217" y="143" on="1"/>
        <pt x="1237" y="143" on="0"/>
        <pt x="1237" y="123" on="1"/>
        <pt x="1237" y="20" on="1"/>
        <pt x="1237" y="0" on="0"/>
        <pt x="1217" y="0" on="1"/>
        <pt x="225" y="0" on="1"/>
        <pt x="205" y="0" on="0"/>
      </contour>
      <contour>
        <pt x="420" y="1546" on="1"/>
        <pt x="567" y="1772" on="1"/>
        <pt x="584" y="1794" on="0"/>
        <pt x="592" y="1804" on="1"/>
        <pt x="614" y="1833" on="0"/>
        <pt x="649" y="1833" on="1"/>
        <pt x="793" y="1833" on="1"/>
        <pt x="828" y="1833" on="0"/>
        <pt x="858" y="1794" on="0"/>
        <pt x="874" y="1772" on="1"/>
        <pt x="1022" y="1546" on="1"/>
        <pt x="1036" y="1526" on="0"/>
        <pt x="1012" y="1526" on="1"/>
        <pt x="913" y="1526" on="1"/>
        <pt x="899" y="1526" on="0"/>
        <pt x="879" y="1546" on="1"/>
        <pt x="721" y="1710" on="1"/>
        <pt x="563" y="1546" on="1"/>
        <pt x="543" y="1526" on="0"/>
        <pt x="528" y="1526" on="1"/>
        <pt x="430" y="1526" on="1"/>
        <pt x="406" y="1526" on="0"/>
      </contour>
    </TTGlyph>
    <TTGlyph name="Edieresis" xMin="205" yMin="0" xMax="1237" yMax="1772">
      <contour>
        <pt x="205" y="20" on="1"/>
        <pt x="205" y="1413" on="1"/>
        <pt x="205" y="1434" on="0"/>
        <pt x="225" y="1434" on="1"/>
        <pt x="1217" y="1434" on="1"/>
        <pt x="1237" y="1434" on="0"/>
        <pt x="1237" y="1413" on="1"/>
        <pt x="1237" y="1311" on="1"/>
        <pt x="1237" y="1290" on="0"/>
        <pt x="1217" y="1290" on="1"/>
        <pt x="389" y="1290" on="1"/>
        <pt x="389" y="799" on="1"/>
        <pt x="1073" y="799" on="1"/>
        <pt x="1094" y="799" on="0"/>
        <pt x="1094" y="778" on="1"/>
        <pt x="1094" y="676" on="1"/>
        <pt x="1094" y="655" on="0"/>
        <pt x="1073" y="655" on="1"/>
        <pt x="389" y="655" on="1"/>
        <pt x="389" y="143" on="1"/>
        <pt x="1217" y="143" on="1"/>
        <pt x="1237" y="143" on="0"/>
        <pt x="1237" y="123" on="1"/>
        <pt x="1237" y="20" on="1"/>
        <pt x="1237" y="0" on="0"/>
        <pt x="1217" y="0" on="1"/>
        <pt x="225" y="0" on="1"/>
        <pt x="205" y="0" on="0"/>
      </contour>
      <contour>
        <pt x="444" y="1556" on="1"/>
        <pt x="403" y="1556" on="0"/>
        <pt x="403" y="1597" on="1"/>
        <pt x="403" y="1731" on="1"/>
        <pt x="403" y="1772" on="0"/>
        <pt x="444" y="1772" on="1"/>
        <pt x="578" y="1772" on="1"/>
        <pt x="618" y="1772" on="0"/>
        <pt x="618" y="1731" on="1"/>
        <pt x="618" y="1597" on="1"/>
        <pt x="618" y="1556" on="0"/>
        <pt x="578" y="1556" on="1"/>
      </contour>
      <contour>
        <pt x="864" y="1556" on="1"/>
        <pt x="823" y="1556" on="0"/>
        <pt x="823" y="1597" on="1"/>
        <pt x="823" y="1731" on="1"/>
        <pt x="823" y="1772" on="0"/>
        <pt x="864" y="1772" on="1"/>
        <pt x="997" y="1772" on="1"/>
        <pt x="1020" y="1772" on="0"/>
        <pt x="1038" y="1753" on="0"/>
        <pt x="1038" y="1731" on="1"/>
        <pt x="1038" y="1597" on="1"/>
        <pt x="1038" y="1575" on="0"/>
        <pt x="1020" y="1556" on="0"/>
        <pt x="997" y="1556" on="1"/>
      </contour>
    </TTGlyph>
    <TTGlyph name="Egrave" xMin="205" yMin="0" xMax="1237" yMax="1833">
      <contour>
        <pt x="205" y="20" on="1"/>
        <pt x="205" y="1413" on="1"/>
        <pt x="205" y="1434" on="0"/>
        <pt x="225" y="1434" on="1"/>
        <pt x="1217" y="1434" on="1"/>
        <pt x="1237" y="1434" on="0"/>
        <pt x="1237" y="1413" on="1"/>
        <pt x="1237" y="1311" on="1"/>
        <pt x="1237" y="1290" on="0"/>
        <pt x="1217" y="1290" on="1"/>
        <pt x="389" y="1290" on="1"/>
        <pt x="389" y="799" on="1"/>
        <pt x="1073" y="799" on="1"/>
        <pt x="1094" y="799" on="0"/>
        <pt x="1094" y="778" on="1"/>
        <pt x="1094" y="676" on="1"/>
        <pt x="1094" y="655" on="0"/>
        <pt x="1073" y="655" on="1"/>
        <pt x="389" y="655" on="1"/>
        <pt x="389" y="143" on="1"/>
        <pt x="1217" y="143" on="1"/>
        <pt x="1237" y="143" on="0"/>
        <pt x="1237" y="123" on="1"/>
        <pt x="1237" y="20" on="1"/>
        <pt x="1237" y="0" on="0"/>
        <pt x="1217" y="0" on="1"/>
        <pt x="225" y="0" on="1"/>
        <pt x="205" y="0" on="0"/>
      </contour>
      <contour>
        <pt x="440" y="1812" on="1"/>
        <pt x="426" y="1833" on="0"/>
        <pt x="451" y="1833" on="1"/>
        <pt x="635" y="1833" on="1"/>
        <pt x="655" y="1833" on="0"/>
        <pt x="666" y="1812" on="1"/>
        <pt x="799" y="1546" on="1"/>
        <pt x="809" y="1526" on="0"/>
        <pt x="788" y="1526" on="1"/>
        <pt x="686" y="1526" on="1"/>
        <pt x="672" y="1526" on="0"/>
        <pt x="655" y="1546" on="1"/>
      </contour>
    </TTGlyph>
    <TTGlyph name="Eth" xMin="20" yMin="0" xMax="1403" yMax="1434">
      <contour>
        <pt x="20" y="666" on="1"/>
        <pt x="20" y="768" on="1"/>
        <pt x="20" y="788" on="0"/>
        <pt x="41" y="788" on="1"/>
        <pt x="205" y="788" on="1"/>
        <pt x="205" y="1413" on="1"/>
        <pt x="205" y="1433" on="0"/>
        <pt x="225" y="1434" on="1"/>
        <pt x="696" y="1434" on="1"/>
        <pt x="1015" y="1434" on="0"/>
        <pt x="1403" y="1051" on="0"/>
        <pt x="1403" y="383" on="0"/>
        <pt x="1016" y="0" on="0"/>
        <pt x="696" y="0" on="1"/>
        <pt x="225" y="0" on="1"/>
        <pt x="205" y="0" on="0"/>
        <pt x="205" y="20" on="1"/>
        <pt x="205" y="645" on="1"/>
        <pt x="41" y="645" on="1"/>
        <pt x="20" y="646" on="0"/>
      </contour>
      <contour>
        <pt x="389" y="143" on="1"/>
        <pt x="696" y="143" on="1"/>
        <pt x="929" y="143" on="0"/>
        <pt x="1219" y="436" on="0"/>
        <pt x="1219" y="997" on="0"/>
        <pt x="930" y="1290" on="0"/>
        <pt x="696" y="1290" on="1"/>
        <pt x="389" y="1290" on="1"/>
        <pt x="389" y="788" on="1"/>
        <pt x="635" y="788" on="1"/>
        <pt x="655" y="788" on="0"/>
        <pt x="655" y="768" on="1"/>
        <pt x="655" y="666" on="1"/>
        <pt x="655" y="646" on="0"/>
        <pt x="635" y="645" on="1"/>
        <pt x="389" y="645" on="1"/>
      </contour>
    </TTGlyph>
    <TTGlyph name="Euro" xMin="43" yMin="-31" xMax="1487" yMax="1464">
      <contour>
        <pt x="412" y="717" on="1"/>
        <pt x="414" y="645" on="1"/>
        <pt x="993" y="645" on="1"/>
        <pt x="1020" y="645" on="0"/>
        <pt x="1014" y="625" on="1"/>
        <pt x="993" y="543" on="1"/>
        <pt x="987" y="523" on="0"/>
        <pt x="965" y="522" on="1"/>
        <pt x="430" y="522" on="1"/>
        <pt x="473" y="319" on="0"/>
        <pt x="729" y="113" on="0"/>
        <pt x="903" y="113" on="1"/>
        <pt x="1231" y="113" on="0"/>
        <pt x="1313" y="389" on="1"/>
        <pt x="1319" y="409" on="0"/>
        <pt x="1337" y="410" on="1"/>
        <pt x="1466" y="410" on="1"/>
        <pt x="1491" y="410" on="0"/>
        <pt x="1487" y="385" on="1"/>
        <pt x="1448" y="186" on="0"/>
        <pt x="1147" y="-31" on="0"/>
        <pt x="647" y="-31" on="0"/>
        <pt x="293" y="258" on="0"/>
        <pt x="244" y="522" on="1"/>
        <pt x="63" y="522" on="1"/>
        <pt x="37" y="523" on="0"/>
        <pt x="43" y="543" on="1"/>
        <pt x="63" y="625" on="1"/>
        <pt x="69" y="645" on="0"/>
        <pt x="94" y="645" on="1"/>
        <pt x="229" y="645" on="1"/>
        <pt x="227" y="668" on="0"/>
        <pt x="227" y="766" on="0"/>
        <pt x="229" y="791" on="1"/>
        <pt x="104" y="791" on="1"/>
        <pt x="77" y="791" on="0"/>
        <pt x="84" y="811" on="1"/>
        <pt x="104" y="893" on="1"/>
        <pt x="110" y="913" on="0"/>
        <pt x="135" y="913" on="1"/>
        <pt x="244" y="913" on="1"/>
        <pt x="293" y="1175" on="0"/>
        <pt x="645" y="1464" on="0"/>
        <pt x="1137" y="1464" on="0"/>
        <pt x="1438" y="1247" on="0"/>
        <pt x="1477" y="1049" on="1"/>
        <pt x="1481" y="1024" on="0"/>
        <pt x="1456" y="1024" on="1"/>
        <pt x="1327" y="1024" on="1"/>
        <pt x="1309" y="1024" on="0"/>
        <pt x="1303" y="1044" on="1"/>
        <pt x="1221" y="1320" on="0"/>
        <pt x="893" y="1321" on="1"/>
        <pt x="725" y="1321" on="0"/>
        <pt x="473" y="1114" on="0"/>
        <pt x="430" y="913" on="1"/>
        <pt x="1034" y="913" on="1"/>
        <pt x="1061" y="913" on="0"/>
        <pt x="1055" y="893" on="1"/>
        <pt x="1034" y="811" on="1"/>
        <pt x="1028" y="791" on="0"/>
        <pt x="1006" y="791" on="1"/>
        <pt x="414" y="791" on="1"/>
        <pt x="412" y="766" on="0"/>
      </contour>
    </TTGlyph>
    <TTGlyph name="F" xMin="205" yMin="0" xMax="1237" yMax="1434">
      <contour>
        <pt x="205" y="20" on="1"/>
        <pt x="205" y="1413" on="1"/>
        <pt x="205" y="1433" on="0"/>
        <pt x="225" y="1434" on="1"/>
        <pt x="1217" y="1434" on="1"/>
        <pt x="1237" y="1434" on="0"/>
        <pt x="1237" y="1413" on="1"/>
        <pt x="1237" y="1311" on="1"/>
        <pt x="1237" y="1291" on="0"/>
        <pt x="1217" y="1290" on="1"/>
        <pt x="389" y="1290" on="1"/>
        <pt x="389" y="758" on="1"/>
        <pt x="1073" y="758" on="1"/>
        <pt x="1093" y="758" on="0"/>
        <pt x="1094" y="737" on="1"/>
        <pt x="1094" y="635" on="1"/>
        <pt x="1094" y="615" on="0"/>
        <pt x="1073" y="614" on="1"/>
        <pt x="389" y="614" on="1"/>
        <pt x="389" y="20" on="1"/>
        <pt x="389" y="0" on="0"/>
        <pt x="369" y="0" on="1"/>
        <pt x="225" y="0" on="1"/>
        <pt x="205" y="0" on="0"/>
      </contour>
    </TTGlyph>
    <TTGlyph name="G" xMin="123" yMin="-31" xMax="1413" yMax="1464">
      <contour>
        <pt x="788" y="1464" on="1"/>
        <pt x="1040" y="1464" on="0"/>
        <pt x="1354" y="1247" on="0"/>
        <pt x="1393" y="1049" on="1"/>
        <pt x="1397" y="1024" on="0"/>
        <pt x="1372" y="1024" on="1"/>
        <pt x="1243" y="1024" on="1"/>
        <pt x="1225" y="1024" on="0"/>
        <pt x="1219" y="1044" on="1"/>
        <pt x="1133" y="1321" on="0"/>
        <pt x="788" y="1321" on="1"/>
        <pt x="582" y="1321" on="0"/>
        <pt x="307" y="1016" on="0"/>
        <pt x="307" y="420" on="0"/>
        <pt x="578" y="113" on="0"/>
        <pt x="975" y="113" on="0"/>
        <pt x="1229" y="369" on="0"/>
        <pt x="1229" y="573" on="1"/>
        <pt x="1229" y="594" on="1"/>
        <pt x="811" y="594" on="1"/>
        <pt x="791" y="594" on="0"/>
        <pt x="791" y="614" on="1"/>
        <pt x="791" y="717" on="1"/>
        <pt x="791" y="737" on="0"/>
        <pt x="811" y="737" on="1"/>
        <pt x="1393" y="737" on="1"/>
        <pt x="1413" y="737" on="0"/>
        <pt x="1413" y="717" on="1"/>
        <pt x="1413" y="20" on="1"/>
        <pt x="1413" y="0" on="0"/>
        <pt x="1393" y="0" on="1"/>
        <pt x="1280" y="0" on="1"/>
        <pt x="1262" y="0" on="0"/>
        <pt x="1260" y="20" on="1"/>
        <pt x="1239" y="205" on="1"/>
        <pt x="1218" y="170" on="0"/>
        <pt x="1130" y="82" on="0"/>
        <pt x="1034" y="20" on="0"/>
        <pt x="870" y="-31" on="0"/>
        <pt x="778" y="-31" on="1"/>
        <pt x="492" y="-31" on="0"/>
        <pt x="123" y="367" on="0"/>
        <pt x="123" y="1067" on="0"/>
        <pt x="496" y="1464" on="0"/>
      </contour>
    </TTGlyph>
    <TTGlyph name="H" xMin="205" yMin="0" xMax="1372" yMax="1434">
      <contour>
        <pt x="205" y="20" on="1"/>
        <pt x="205" y="1413" on="1"/>
        <pt x="205" y="1434" on="0"/>
        <pt x="225" y="1434" on="1"/>
        <pt x="369" y="1434" on="1"/>
        <pt x="389" y="1434" on="0"/>
        <pt x="389" y="1413" on="1"/>
        <pt x="389" y="778" on="1"/>
        <pt x="1188" y="778" on="1"/>
        <pt x="1188" y="1413" on="1"/>
        <pt x="1188" y="1434" on="0"/>
        <pt x="1208" y="1434" on="1"/>
        <pt x="1352" y="1434" on="1"/>
        <pt x="1372" y="1434" on="0"/>
        <pt x="1372" y="1413" on="1"/>
        <pt x="1372" y="20" on="1"/>
        <pt x="1372" y="0" on="0"/>
        <pt x="1352" y="0" on="1"/>
        <pt x="1208" y="0" on="1"/>
        <pt x="1188" y="0" on="0"/>
        <pt x="1188" y="20" on="1"/>
        <pt x="1188" y="635" on="1"/>
        <pt x="389" y="635" on="1"/>
        <pt x="389" y="20" on="1"/>
        <pt x="389" y="0" on="0"/>
        <pt x="369" y="0" on="1"/>
        <pt x="225" y="0" on="1"/>
        <pt x="205" y="0" on="0"/>
      </contour>
    </TTGlyph>
    <TTGlyph name="I" xMin="205" yMin="0" xMax="389" yMax="1434">
      <contour>
        <pt x="205" y="20" on="1"/>
        <pt x="205" y="1413" on="1"/>
        <pt x="205" y="1434" on="0"/>
        <pt x="225" y="1434" on="1"/>
        <pt x="369" y="1434" on="1"/>
        <pt x="389" y="1434" on="0"/>
        <pt x="389" y="1413" on="1"/>
        <pt x="389" y="20" on="1"/>
        <pt x="389" y="0" on="0"/>
        <pt x="369" y="0" on="1"/>
        <pt x="225" y="0" on="1"/>
        <pt x="205" y="0" on="0"/>
      </contour>
    </TTGlyph>
    <TTGlyph name="Iacute" xMin="205" yMin="0" xMax="578" yMax="1833">
      <contour>
        <pt x="205" y="20" on="1"/>
        <pt x="205" y="1413" on="1"/>
        <pt x="205" y="1434" on="0"/>
        <pt x="225" y="1434" on="1"/>
        <pt x="369" y="1434" on="1"/>
        <pt x="389" y="1434" on="0"/>
        <pt x="389" y="1413" on="1"/>
        <pt x="389" y="20" on="1"/>
        <pt x="389" y="0" on="0"/>
        <pt x="369" y="0" on="1"/>
        <pt x="225" y="0" on="1"/>
        <pt x="205" y="0" on="0"/>
      </contour>
      <contour>
        <pt x="219" y="1546" on="1"/>
        <pt x="352" y="1812" on="1"/>
        <pt x="362" y="1833" on="0"/>
        <pt x="383" y="1833" on="1"/>
        <pt x="567" y="1833" on="1"/>
        <pt x="592" y="1833" on="0"/>
        <pt x="578" y="1812" on="1"/>
        <pt x="362" y="1546" on="1"/>
        <pt x="346" y="1526" on="0"/>
        <pt x="332" y="1526" on="1"/>
        <pt x="229" y="1526" on="1"/>
        <pt x="209" y="1526" on="0"/>
      </contour>
    </TTGlyph>
    <TTGlyph name="Icircumflex" xMin="4" yMin="0" xMax="606" yMax="1812">
      <contour>
        <pt x="4" y="1526" on="1"/>
        <pt x="152" y="1751" on="1"/>
        <pt x="180" y="1792" on="0"/>
        <pt x="215" y="1812" on="0"/>
        <pt x="233" y="1812" on="1"/>
        <pt x="377" y="1812" on="1"/>
        <pt x="412" y="1812" on="0"/>
        <pt x="442" y="1774" on="0"/>
        <pt x="459" y="1751" on="1"/>
        <pt x="606" y="1526" on="1"/>
        <pt x="620" y="1506" on="0"/>
        <pt x="596" y="1505" on="1"/>
        <pt x="498" y="1505" on="1"/>
        <pt x="484" y="1505" on="0"/>
        <pt x="463" y="1526" on="1"/>
        <pt x="305" y="1690" on="1"/>
        <pt x="147" y="1526" on="1"/>
        <pt x="127" y="1506" on="0"/>
        <pt x="113" y="1505" on="1"/>
        <pt x="14" y="1505" on="1"/>
        <pt x="-10" y="1506" on="0"/>
      </contour>
      <contour>
        <pt x="213" y="20" on="1"/>
        <pt x="213" y="1413" on="1"/>
        <pt x="213" y="1433" on="0"/>
        <pt x="233" y="1434" on="1"/>
        <pt x="377" y="1434" on="1"/>
        <pt x="397" y="1434" on="0"/>
        <pt x="397" y="1413" on="1"/>
        <pt x="397" y="20" on="1"/>
        <pt x="397" y="0" on="0"/>
        <pt x="377" y="0" on="1"/>
        <pt x="233" y="0" on="1"/>
        <pt x="213" y="0" on="0"/>
      </contour>
    </TTGlyph>
    <TTGlyph name="Idieresis" xMin="-20" yMin="0" xMax="614" yMax="1741">
      <contour>
        <pt x="154" y="1741" on="1"/>
        <pt x="195" y="1741" on="0"/>
        <pt x="195" y="1700" on="1"/>
        <pt x="195" y="1567" on="1"/>
        <pt x="195" y="1544" on="0"/>
        <pt x="176" y="1526" on="0"/>
        <pt x="154" y="1526" on="1"/>
        <pt x="20" y="1526" on="1"/>
        <pt x="-2" y="1526" on="0"/>
        <pt x="-20" y="1544" on="0"/>
        <pt x="-20" y="1567" on="1"/>
        <pt x="-20" y="1700" on="1"/>
        <pt x="-20" y="1741" on="0"/>
        <pt x="20" y="1741" on="1"/>
      </contour>
      <contour>
        <pt x="205" y="20" on="1"/>
        <pt x="205" y="1413" on="1"/>
        <pt x="205" y="1434" on="0"/>
        <pt x="225" y="1434" on="1"/>
        <pt x="369" y="1434" on="1"/>
        <pt x="389" y="1434" on="0"/>
        <pt x="389" y="1413" on="1"/>
        <pt x="389" y="20" on="1"/>
        <pt x="389" y="0" on="0"/>
        <pt x="369" y="0" on="1"/>
        <pt x="225" y="0" on="1"/>
        <pt x="205" y="0" on="0"/>
      </contour>
      <contour>
        <pt x="399" y="1700" on="1"/>
        <pt x="399" y="1741" on="0"/>
        <pt x="440" y="1741" on="1"/>
        <pt x="573" y="1741" on="1"/>
        <pt x="596" y="1741" on="0"/>
        <pt x="614" y="1722" on="0"/>
        <pt x="614" y="1700" on="1"/>
        <pt x="614" y="1567" on="1"/>
        <pt x="614" y="1544" on="0"/>
        <pt x="596" y="1526" on="0"/>
        <pt x="573" y="1526" on="1"/>
        <pt x="440" y="1526" on="1"/>
        <pt x="418" y="1526" on="0"/>
        <pt x="399" y="1544" on="0"/>
        <pt x="399" y="1567" on="1"/>
      </contour>
    </TTGlyph>
    <TTGlyph name="Igrave" xMin="4" yMin="0" xMax="377" yMax="1833">
      <contour>
        <pt x="4" y="1812" on="1"/>
        <pt x="-10" y="1833" on="0"/>
        <pt x="14" y="1833" on="1"/>
        <pt x="199" y="1833" on="1"/>
        <pt x="219" y="1833" on="0"/>
        <pt x="229" y="1812" on="1"/>
        <pt x="362" y="1546" on="1"/>
        <pt x="373" y="1526" on="0"/>
        <pt x="352" y="1526" on="1"/>
        <pt x="250" y="1526" on="1"/>
        <pt x="236" y="1526" on="0"/>
        <pt x="219" y="1546" on="1"/>
      </contour>
      <contour>
        <pt x="193" y="20" on="1"/>
        <pt x="193" y="1413" on="1"/>
        <pt x="193" y="1434" on="0"/>
        <pt x="213" y="1434" on="1"/>
        <pt x="356" y="1434" on="1"/>
        <pt x="377" y="1434" on="0"/>
        <pt x="377" y="1413" on="1"/>
        <pt x="377" y="20" on="1"/>
        <pt x="377" y="0" on="0"/>
        <pt x="356" y="0" on="1"/>
        <pt x="213" y="0" on="1"/>
        <pt x="193" y="0" on="0"/>
      </contour>
    </TTGlyph>
    <TTGlyph name="Itilde" xMin="-18" yMin="0" xMax="606" yMax="1812">
      <contour>
        <pt x="-18" y="1561" on="1"/>
        <pt x="10" y="1812" on="0"/>
        <pt x="176" y="1812" on="1"/>
        <pt x="225" y="1812" on="0"/>
        <pt x="311" y="1745" on="0"/>
        <pt x="377" y="1679" on="0"/>
        <pt x="401" y="1679" on="1"/>
        <pt x="459" y="1679" on="0"/>
        <pt x="479" y="1782" on="1"/>
        <pt x="481" y="1802" on="0"/>
        <pt x="504" y="1802" on="1"/>
        <pt x="586" y="1802" on="1"/>
        <pt x="610" y="1802" on="0"/>
        <pt x="606" y="1778" on="1"/>
        <pt x="578" y="1526" on="0"/>
        <pt x="412" y="1526" on="1"/>
        <pt x="362" y="1526" on="0"/>
        <pt x="276" y="1593" on="0"/>
        <pt x="211" y="1659" on="0"/>
        <pt x="186" y="1659" on="1"/>
        <pt x="129" y="1659" on="0"/>
        <pt x="109" y="1556" on="1"/>
        <pt x="106" y="1536" on="0"/>
        <pt x="84" y="1536" on="1"/>
        <pt x="2" y="1536" on="1"/>
        <pt x="-23" y="1536" on="0"/>
      </contour>
      <contour>
        <pt x="201" y="20" on="1"/>
        <pt x="201" y="1413" on="1"/>
        <pt x="201" y="1434" on="0"/>
        <pt x="221" y="1434" on="1"/>
        <pt x="365" y="1434" on="1"/>
        <pt x="385" y="1434" on="0"/>
        <pt x="385" y="1413" on="1"/>
        <pt x="385" y="20" on="1"/>
        <pt x="385" y="0" on="0"/>
        <pt x="365" y="0" on="1"/>
        <pt x="221" y="0" on="1"/>
        <pt x="201" y="0" on="0"/>
      </contour>
    </TTGlyph>
    <TTGlyph name="J" xMin="41" yMin="-31" xMax="840" yMax="1434">
      <contour>
        <pt x="41" y="45" on="1"/>
        <pt x="41" y="145" on="1"/>
        <pt x="41" y="170" on="0"/>
        <pt x="61" y="162" on="1"/>
        <pt x="184" y="113" on="0"/>
        <pt x="496" y="113" on="0"/>
        <pt x="655" y="270" on="0"/>
        <pt x="655" y="440" on="1"/>
        <pt x="655" y="1290" on="1"/>
        <pt x="184" y="1290" on="1"/>
        <pt x="164" y="1290" on="0"/>
        <pt x="164" y="1311" on="1"/>
        <pt x="164" y="1413" on="1"/>
        <pt x="164" y="1433" on="0"/>
        <pt x="184" y="1434" on="1"/>
        <pt x="819" y="1434" on="1"/>
        <pt x="839" y="1434" on="0"/>
        <pt x="840" y="1413" on="1"/>
        <pt x="840" y="440" on="1"/>
        <pt x="840" y="221" on="0"/>
        <pt x="590" y="-31" on="0"/>
        <pt x="348" y="-31" on="1"/>
        <pt x="184" y="-31" on="0"/>
        <pt x="61" y="18" on="1"/>
        <pt x="41" y="29" on="0"/>
      </contour>
    </TTGlyph>
    <TTGlyph name="Jcircumflex" xMin="41" yMin="-31" xMax="840" yMax="1853">
      <contour>
        <pt x="41" y="45" on="1"/>
        <pt x="41" y="145" on="1"/>
        <pt x="41" y="170" on="0"/>
        <pt x="61" y="162" on="1"/>
        <pt x="184" y="113" on="0"/>
        <pt x="496" y="113" on="0"/>
        <pt x="655" y="270" on="0"/>
        <pt x="655" y="440" on="1"/>
        <pt x="655" y="1290" on="1"/>
        <pt x="184" y="1290" on="1"/>
        <pt x="164" y="1290" on="0"/>
        <pt x="164" y="1311" on="1"/>
        <pt x="164" y="1413" on="1"/>
        <pt x="164" y="1433" on="0"/>
        <pt x="184" y="1434" on="1"/>
        <pt x="819" y="1434" on="1"/>
        <pt x="839" y="1434" on="0"/>
        <pt x="840" y="1413" on="1"/>
        <pt x="840" y="440" on="1"/>
        <pt x="840" y="221" on="0"/>
        <pt x="590" y="-31" on="0"/>
        <pt x="348" y="-31" on="1"/>
        <pt x="184" y="-31" on="0"/>
        <pt x="61" y="18" on="1"/>
        <pt x="41" y="29" on="0"/>
      </contour>
      <contour>
        <pt x="201" y="1567" on="1"/>
        <pt x="348" y="1792" on="1"/>
        <pt x="390" y="1853" on="0"/>
        <pt x="430" y="1853" on="1"/>
        <pt x="573" y="1853" on="1"/>
        <pt x="609" y="1853" on="0"/>
        <pt x="639" y="1815" on="0"/>
        <pt x="655" y="1792" on="1"/>
        <pt x="803" y="1567" on="1"/>
        <pt x="817" y="1547" on="0"/>
        <pt x="793" y="1546" on="1"/>
        <pt x="694" y="1546" on="1"/>
        <pt x="680" y="1546" on="0"/>
        <pt x="659" y="1567" on="1"/>
        <pt x="502" y="1731" on="1"/>
        <pt x="344" y="1567" on="1"/>
        <pt x="324" y="1547" on="0"/>
        <pt x="309" y="1546" on="1"/>
        <pt x="211" y="1546" on="1"/>
        <pt x="187" y="1547" on="0"/>
      </contour>
    </TTGlyph>
    <TTGlyph name="K" xMin="205" yMin="0" xMax="1378" yMax="1434">
      <contour>
        <pt x="205" y="20" on="1"/>
        <pt x="205" y="1413" on="1"/>
        <pt x="205" y="1433" on="0"/>
        <pt x="225" y="1434" on="1"/>
        <pt x="369" y="1434" on="1"/>
        <pt x="389" y="1434" on="0"/>
        <pt x="389" y="1413" on="1"/>
        <pt x="389" y="788" on="1"/>
        <pt x="543" y="788" on="1"/>
        <pt x="727" y="788" on="0"/>
        <pt x="829" y="942" on="1"/>
        <pt x="1137" y="1413" on="1"/>
        <pt x="1151" y="1433" on="0"/>
        <pt x="1167" y="1434" on="1"/>
        <pt x="1335" y="1434" on="1"/>
        <pt x="1368" y="1434" on="0"/>
        <pt x="1352" y="1409" on="1"/>
        <pt x="1034" y="922" on="1"/>
        <pt x="915" y="740" on="0"/>
        <pt x="788" y="717" on="1"/>
        <pt x="935" y="694" on="0"/>
        <pt x="1055" y="512" on="1"/>
        <pt x="1372" y="25" on="1"/>
        <pt x="1377" y="17" on="0"/>
        <pt x="1378" y="0" on="0"/>
        <pt x="1356" y="0" on="1"/>
        <pt x="1188" y="0" on="1"/>
        <pt x="1172" y="0" on="0"/>
        <pt x="1157" y="20" on="1"/>
        <pt x="850" y="492" on="1"/>
        <pt x="748" y="646" on="0"/>
        <pt x="563" y="645" on="1"/>
        <pt x="389" y="645" on="1"/>
        <pt x="389" y="20" on="1"/>
        <pt x="389" y="0" on="0"/>
        <pt x="369" y="0" on="1"/>
        <pt x="225" y="0" on="1"/>
        <pt x="205" y="0" on="0"/>
      </contour>
    </TTGlyph>
    <TTGlyph name="L" xMin="205" yMin="0" xMax="1217" yMax="1434">
      <contour>
        <pt x="205" y="20" on="1"/>
        <pt x="205" y="1413" on="1"/>
        <pt x="205" y="1434" on="0"/>
        <pt x="225" y="1434" on="1"/>
        <pt x="369" y="1434" on="1"/>
        <pt x="389" y="1434" on="0"/>
        <pt x="389" y="1413" on="1"/>
        <pt x="389" y="143" on="1"/>
        <pt x="1196" y="143" on="1"/>
        <pt x="1217" y="143" on="0"/>
        <pt x="1217" y="123" on="1"/>
        <pt x="1217" y="20" on="1"/>
        <pt x="1217" y="0" on="0"/>
        <pt x="1196" y="0" on="1"/>
        <pt x="225" y="0" on="1"/>
        <pt x="205" y="0" on="0"/>
      </contour>
    </TTGlyph>
    <TTGlyph name="Lslash" xMin="0" yMin="0" xMax="1217" yMax="1434">
      <contour>
        <pt x="0" y="516" on="1"/>
        <pt x="0" y="637" on="1"/>
        <pt x="0" y="655" on="0"/>
        <pt x="20" y="666" on="1"/>
        <pt x="205" y="760" on="1"/>
        <pt x="205" y="1413" on="1"/>
        <pt x="205" y="1434" on="0"/>
        <pt x="225" y="1434" on="1"/>
        <pt x="369" y="1434" on="1"/>
        <pt x="389" y="1434" on="0"/>
        <pt x="389" y="1413" on="1"/>
        <pt x="389" y="856" on="1"/>
        <pt x="614" y="973" on="1"/>
        <pt x="635" y="983" on="0"/>
        <pt x="635" y="958" on="1"/>
        <pt x="635" y="838" on="1"/>
        <pt x="635" y="819" on="0"/>
        <pt x="614" y="809" on="1"/>
        <pt x="389" y="692" on="1"/>
        <pt x="389" y="143" on="1"/>
        <pt x="1196" y="143" on="1"/>
        <pt x="1217" y="143" on="0"/>
        <pt x="1217" y="123" on="1"/>
        <pt x="1217" y="20" on="1"/>
        <pt x="1217" y="0" on="0"/>
        <pt x="1196" y="0" on="1"/>
        <pt x="225" y="0" on="1"/>
        <pt x="205" y="0" on="0"/>
        <pt x="205" y="20" on="1"/>
        <pt x="205" y="596" on="1"/>
        <pt x="20" y="502" on="1"/>
        <pt x="0" y="492" on="0"/>
      </contour>
    </TTGlyph>
    <TTGlyph name="M" xMin="205" yMin="0" xMax="1772" yMax="1434">
      <contour>
        <pt x="205" y="20" on="1"/>
        <pt x="205" y="1413" on="1"/>
        <pt x="205" y="1433" on="0"/>
        <pt x="225" y="1434" on="1"/>
        <pt x="369" y="1434" on="1"/>
        <pt x="428" y="1434" on="0"/>
        <pt x="461" y="1372" on="1"/>
        <pt x="989" y="367" on="1"/>
        <pt x="1516" y="1372" on="1"/>
        <pt x="1549" y="1433" on="0"/>
        <pt x="1608" y="1434" on="1"/>
        <pt x="1751" y="1434" on="1"/>
        <pt x="1771" y="1434" on="0"/>
        <pt x="1772" y="1413" on="1"/>
        <pt x="1772" y="20" on="1"/>
        <pt x="1772" y="0" on="0"/>
        <pt x="1751" y="0" on="1"/>
        <pt x="1608" y="0" on="1"/>
        <pt x="1588" y="0" on="0"/>
        <pt x="1587" y="20" on="1"/>
        <pt x="1587" y="1126" on="1"/>
        <pt x="1116" y="236" on="1"/>
        <pt x="1083" y="175" on="0"/>
        <pt x="1024" y="174" on="1"/>
        <pt x="952" y="174" on="1"/>
        <pt x="893" y="174" on="0"/>
        <pt x="860" y="236" on="1"/>
        <pt x="389" y="1126" on="1"/>
        <pt x="389" y="20" on="1"/>
        <pt x="389" y="0" on="0"/>
        <pt x="369" y="0" on="1"/>
        <pt x="225" y="0" on="1"/>
        <pt x="205" y="0" on="0"/>
      </contour>
    </TTGlyph>
    <TTGlyph name="N" xMin="205" yMin="0" xMax="1413" yMax="1434">
      <contour>
        <pt x="205" y="20" on="1"/>
        <pt x="205" y="1413" on="1"/>
        <pt x="205" y="1434" on="0"/>
        <pt x="225" y="1434" on="1"/>
        <pt x="369" y="1434" on="1"/>
        <pt x="430" y="1434" on="0"/>
        <pt x="471" y="1372" on="1"/>
        <pt x="1229" y="246" on="1"/>
        <pt x="1229" y="1413" on="1"/>
        <pt x="1229" y="1434" on="0"/>
        <pt x="1249" y="1434" on="1"/>
        <pt x="1393" y="1434" on="1"/>
        <pt x="1413" y="1434" on="0"/>
        <pt x="1413" y="1413" on="1"/>
        <pt x="1413" y="20" on="1"/>
        <pt x="1413" y="0" on="0"/>
        <pt x="1393" y="0" on="1"/>
        <pt x="1249" y="0" on="1"/>
        <pt x="1188" y="0" on="0"/>
        <pt x="1147" y="61" on="1"/>
        <pt x="389" y="1188" on="1"/>
        <pt x="389" y="20" on="1"/>
        <pt x="389" y="0" on="0"/>
        <pt x="369" y="0" on="1"/>
        <pt x="225" y="0" on="1"/>
        <pt x="205" y="0" on="0"/>
      </contour>
    </TTGlyph>
    <TTGlyph name="Nacute" xMin="205" yMin="0" xMax="1413" yMax="1812">
      <contour>
        <pt x="205" y="20" on="1"/>
        <pt x="205" y="1413" on="1"/>
        <pt x="205" y="1434" on="0"/>
        <pt x="225" y="1434" on="1"/>
        <pt x="369" y="1434" on="1"/>
        <pt x="430" y="1434" on="0"/>
        <pt x="471" y="1372" on="1"/>
        <pt x="1229" y="246" on="1"/>
        <pt x="1229" y="1413" on="1"/>
        <pt x="1229" y="1434" on="0"/>
        <pt x="1249" y="1434" on="1"/>
        <pt x="1393" y="1434" on="1"/>
        <pt x="1413" y="1434" on="0"/>
        <pt x="1413" y="1413" on="1"/>
        <pt x="1413" y="20" on="1"/>
        <pt x="1413" y="0" on="0"/>
        <pt x="1393" y="0" on="1"/>
        <pt x="1249" y="0" on="1"/>
        <pt x="1188" y="0" on="0"/>
        <pt x="1147" y="61" on="1"/>
        <pt x="389" y="1188" on="1"/>
        <pt x="389" y="20" on="1"/>
        <pt x="389" y="0" on="0"/>
        <pt x="369" y="0" on="1"/>
        <pt x="225" y="0" on="1"/>
        <pt x="205" y="0" on="0"/>
      </contour>
      <contour>
        <pt x="752" y="1526" on="1"/>
        <pt x="885" y="1792" on="1"/>
        <pt x="895" y="1812" on="0"/>
        <pt x="915" y="1812" on="1"/>
        <pt x="1100" y="1812" on="1"/>
        <pt x="1124" y="1812" on="0"/>
        <pt x="1110" y="1792" on="1"/>
        <pt x="895" y="1526" on="1"/>
        <pt x="879" y="1505" on="0"/>
        <pt x="864" y="1505" on="1"/>
        <pt x="762" y="1505" on="1"/>
        <pt x="741" y="1505" on="0"/>
      </contour>
    </TTGlyph>
    <TTGlyph name="Ntilde" xMin="205" yMin="0" xMax="1413" yMax="1802">
      <contour>
        <pt x="205" y="20" on="1"/>
        <pt x="205" y="1413" on="1"/>
        <pt x="205" y="1434" on="0"/>
        <pt x="225" y="1434" on="1"/>
        <pt x="369" y="1434" on="1"/>
        <pt x="430" y="1434" on="0"/>
        <pt x="471" y="1372" on="1"/>
        <pt x="1229" y="246" on="1"/>
        <pt x="1229" y="1413" on="1"/>
        <pt x="1229" y="1434" on="0"/>
        <pt x="1249" y="1434" on="1"/>
        <pt x="1393" y="1434" on="1"/>
        <pt x="1413" y="1434" on="0"/>
        <pt x="1413" y="1413" on="1"/>
        <pt x="1413" y="20" on="1"/>
        <pt x="1413" y="0" on="0"/>
        <pt x="1393" y="0" on="1"/>
        <pt x="1249" y="0" on="1"/>
        <pt x="1188" y="0" on="0"/>
        <pt x="1147" y="61" on="1"/>
        <pt x="389" y="1188" on="1"/>
        <pt x="389" y="20" on="1"/>
        <pt x="389" y="0" on="0"/>
        <pt x="369" y="0" on="1"/>
        <pt x="225" y="0" on="1"/>
        <pt x="205" y="0" on="0"/>
      </contour>
      <contour>
        <pt x="514" y="1550" on="1"/>
        <pt x="543" y="1802" on="0"/>
        <pt x="709" y="1802" on="1"/>
        <pt x="782" y="1802" on="0"/>
        <pt x="876" y="1703" on="1"/>
        <pt x="909" y="1669" on="0"/>
        <pt x="934" y="1669" on="1"/>
        <pt x="991" y="1669" on="0"/>
        <pt x="1012" y="1772" on="1"/>
        <pt x="1014" y="1792" on="0"/>
        <pt x="1036" y="1792" on="1"/>
        <pt x="1118" y="1792" on="1"/>
        <pt x="1143" y="1792" on="0"/>
        <pt x="1139" y="1767" on="1"/>
        <pt x="1110" y="1516" on="0"/>
        <pt x="944" y="1516" on="1"/>
        <pt x="872" y="1516" on="0"/>
        <pt x="776" y="1615" on="1"/>
        <pt x="743" y="1649" on="0"/>
        <pt x="719" y="1649" on="1"/>
        <pt x="662" y="1649" on="0"/>
        <pt x="641" y="1546" on="1"/>
        <pt x="639" y="1526" on="0"/>
        <pt x="616" y="1526" on="1"/>
        <pt x="535" y="1526" on="1"/>
        <pt x="510" y="1526" on="0"/>
      </contour>
    </TTGlyph>
    <TTGlyph name="O" xMin="123" yMin="-31" xMax="1454" yMax="1464">
      <contour>
        <pt x="309" y="168" on="1"/>
        <pt x="123" y="367" on="0"/>
        <pt x="123" y="1067" on="0"/>
        <pt x="496" y="1464" on="0"/>
        <pt x="1081" y="1464" on="0"/>
        <pt x="1454" y="1067" on="0"/>
        <pt x="1454" y="367" on="0"/>
        <pt x="1081" y="-31" on="0"/>
        <pt x="496" y="-31" on="0"/>
      </contour>
      <contour>
        <pt x="995" y="1321" on="0"/>
        <pt x="582" y="1321" on="0"/>
        <pt x="307" y="1016" on="0"/>
        <pt x="307" y="418" on="0"/>
        <pt x="582" y="113" on="0"/>
        <pt x="995" y="113" on="0"/>
        <pt x="1270" y="418" on="0"/>
        <pt x="1270" y="1016" on="0"/>
      </contour>
    </TTGlyph>
    <TTGlyph name="OE" xMin="123" yMin="0" xMax="1933" yMax="1434">
      <contour>
        <pt x="123" y="387" on="0"/>
        <pt x="123" y="1047" on="0"/>
        <pt x="498" y="1434" on="0"/>
        <pt x="788" y="1434" on="1"/>
        <pt x="1913" y="1434" on="1"/>
        <pt x="1933" y="1434" on="0"/>
        <pt x="1933" y="1413" on="1"/>
        <pt x="1933" y="1311" on="1"/>
        <pt x="1933" y="1291" on="0"/>
        <pt x="1913" y="1290" on="1"/>
        <pt x="1167" y="1290" on="1"/>
        <pt x="1167" y="799" on="1"/>
        <pt x="1769" y="799" on="1"/>
        <pt x="1789" y="799" on="0"/>
        <pt x="1790" y="778" on="1"/>
        <pt x="1790" y="676" on="1"/>
        <pt x="1790" y="656" on="0"/>
        <pt x="1769" y="655" on="1"/>
        <pt x="1167" y="655" on="1"/>
        <pt x="1167" y="143" on="1"/>
        <pt x="1913" y="143" on="1"/>
        <pt x="1933" y="143" on="0"/>
        <pt x="1933" y="123" on="1"/>
        <pt x="1933" y="20" on="1"/>
        <pt x="1933" y="0" on="0"/>
        <pt x="1913" y="0" on="1"/>
        <pt x="788" y="0" on="1"/>
        <pt x="497" y="0" on="0"/>
      </contour>
      <contour>
        <pt x="307" y="995" on="0"/>
        <pt x="307" y="438" on="0"/>
        <pt x="584" y="143" on="0"/>
        <pt x="788" y="143" on="1"/>
        <pt x="983" y="143" on="1"/>
        <pt x="983" y="1290" on="1"/>
        <pt x="788" y="1290" on="1"/>
        <pt x="583" y="1290" on="0"/>
      </contour>
    </TTGlyph>
    <TTGlyph name="Oacute" xMin="123" yMin="-31" xMax="1454" yMax="1833">
      <contour>
        <pt x="309" y="168" on="1"/>
        <pt x="123" y="367" on="0"/>
        <pt x="123" y="1067" on="0"/>
        <pt x="496" y="1464" on="0"/>
        <pt x="1081" y="1464" on="0"/>
        <pt x="1454" y="1067" on="0"/>
        <pt x="1454" y="367" on="0"/>
        <pt x="1081" y="-31" on="0"/>
        <pt x="496" y="-31" on="0"/>
      </contour>
      <contour>
        <pt x="995" y="1321" on="0"/>
        <pt x="582" y="1321" on="0"/>
        <pt x="307" y="1016" on="0"/>
        <pt x="307" y="418" on="0"/>
        <pt x="582" y="113" on="0"/>
        <pt x="995" y="113" on="0"/>
        <pt x="1270" y="418" on="0"/>
        <pt x="1270" y="1016" on="0"/>
      </contour>
      <contour>
        <pt x="711" y="1546" on="1"/>
        <pt x="844" y="1812" on="1"/>
        <pt x="854" y="1833" on="0"/>
        <pt x="874" y="1833" on="1"/>
        <pt x="1059" y="1833" on="1"/>
        <pt x="1083" y="1833" on="0"/>
        <pt x="1069" y="1812" on="1"/>
        <pt x="854" y="1546" on="1"/>
        <pt x="838" y="1526" on="0"/>
        <pt x="823" y="1526" on="1"/>
        <pt x="721" y="1526" on="1"/>
        <pt x="700" y="1526" on="0"/>
      </contour>
    </TTGlyph>
    <TTGlyph name="Ocircumflex" xMin="123" yMin="-31" xMax="1454" yMax="1833">
      <contour>
        <pt x="309" y="168" on="1"/>
        <pt x="123" y="367" on="0"/>
        <pt x="123" y="1067" on="0"/>
        <pt x="496" y="1464" on="0"/>
        <pt x="1081" y="1464" on="0"/>
        <pt x="1454" y="1067" on="0"/>
        <pt x="1454" y="367" on="0"/>
        <pt x="1081" y="-31" on="0"/>
        <pt x="496" y="-31" on="0"/>
      </contour>
      <contour>
        <pt x="995" y="1321" on="0"/>
        <pt x="582" y="1321" on="0"/>
        <pt x="307" y="1016" on="0"/>
        <pt x="307" y="418" on="0"/>
        <pt x="582" y="113" on="0"/>
        <pt x="995" y="113" on="0"/>
        <pt x="1270" y="418" on="0"/>
        <pt x="1270" y="1016" on="0"/>
      </contour>
      <contour>
        <pt x="487" y="1546" on="1"/>
        <pt x="635" y="1772" on="1"/>
        <pt x="665" y="1813" on="0"/>
        <pt x="698" y="1833" on="0"/>
        <pt x="717" y="1833" on="1"/>
        <pt x="860" y="1833" on="1"/>
        <pt x="894" y="1833" on="0"/>
        <pt x="926" y="1794" on="0"/>
        <pt x="942" y="1772" on="1"/>
        <pt x="1090" y="1546" on="1"/>
        <pt x="1104" y="1526" on="0"/>
        <pt x="1079" y="1526" on="1"/>
        <pt x="981" y="1526" on="1"/>
        <pt x="967" y="1526" on="0"/>
        <pt x="946" y="1546" on="1"/>
        <pt x="788" y="1710" on="1"/>
        <pt x="631" y="1546" on="1"/>
        <pt x="610" y="1526" on="0"/>
        <pt x="596" y="1526" on="1"/>
        <pt x="498" y="1526" on="1"/>
        <pt x="473" y="1526" on="0"/>
      </contour>
    </TTGlyph>
    <TTGlyph name="Odieresis" xMin="123" yMin="-31" xMax="1454" yMax="1782">
      <contour>
        <pt x="309" y="168" on="1"/>
        <pt x="123" y="367" on="0"/>
        <pt x="123" y="1067" on="0"/>
        <pt x="496" y="1464" on="0"/>
        <pt x="1081" y="1464" on="0"/>
        <pt x="1454" y="1067" on="0"/>
        <pt x="1454" y="367" on="0"/>
        <pt x="1081" y="-31" on="0"/>
        <pt x="496" y="-31" on="0"/>
      </contour>
      <contour>
        <pt x="995" y="1321" on="0"/>
        <pt x="582" y="1321" on="0"/>
        <pt x="307" y="1016" on="0"/>
        <pt x="307" y="418" on="0"/>
        <pt x="582" y="113" on="0"/>
        <pt x="995" y="113" on="0"/>
        <pt x="1270" y="418" on="0"/>
        <pt x="1270" y="1016" on="0"/>
      </contour>
      <contour>
        <pt x="471" y="1608" on="1"/>
        <pt x="471" y="1741" on="1"/>
        <pt x="471" y="1763" on="0"/>
        <pt x="489" y="1782" on="0"/>
        <pt x="512" y="1782" on="1"/>
        <pt x="645" y="1782" on="1"/>
        <pt x="668" y="1782" on="0"/>
        <pt x="686" y="1763" on="0"/>
        <pt x="686" y="1741" on="1"/>
        <pt x="686" y="1608" on="1"/>
        <pt x="686" y="1585" on="0"/>
        <pt x="668" y="1567" on="0"/>
        <pt x="645" y="1567" on="1"/>
        <pt x="512" y="1567" on="1"/>
        <pt x="489" y="1567" on="0"/>
        <pt x="471" y="1585" on="0"/>
      </contour>
      <contour>
        <pt x="1065" y="1782" on="1"/>
        <pt x="1106" y="1782" on="0"/>
        <pt x="1106" y="1741" on="1"/>
        <pt x="1106" y="1608" on="1"/>
        <pt x="1106" y="1585" on="0"/>
        <pt x="1087" y="1567" on="0"/>
        <pt x="1065" y="1567" on="1"/>
        <pt x="932" y="1567" on="1"/>
        <pt x="909" y="1567" on="0"/>
        <pt x="891" y="1585" on="0"/>
        <pt x="891" y="1608" on="1"/>
        <pt x="891" y="1741" on="1"/>
        <pt x="891" y="1763" on="0"/>
        <pt x="909" y="1782" on="0"/>
        <pt x="932" y="1782" on="1"/>
      </contour>
    </TTGlyph>
    <TTGlyph name="Ograve" xMin="123" yMin="-31" xMax="1454" yMax="1833">
      <contour>
        <pt x="309" y="168" on="1"/>
        <pt x="123" y="367" on="0"/>
        <pt x="123" y="1067" on="0"/>
        <pt x="496" y="1464" on="0"/>
        <pt x="1081" y="1464" on="0"/>
        <pt x="1454" y="1067" on="0"/>
        <pt x="1454" y="367" on="0"/>
        <pt x="1081" y="-31" on="0"/>
        <pt x="496" y="-31" on="0"/>
      </contour>
      <contour>
        <pt x="995" y="1321" on="0"/>
        <pt x="582" y="1321" on="0"/>
        <pt x="307" y="1016" on="0"/>
        <pt x="307" y="418" on="0"/>
        <pt x="582" y="113" on="0"/>
        <pt x="995" y="113" on="0"/>
        <pt x="1270" y="418" on="0"/>
        <pt x="1270" y="1016" on="0"/>
      </contour>
      <contour>
        <pt x="487" y="1812" on="1"/>
        <pt x="473" y="1833" on="0"/>
        <pt x="498" y="1833" on="1"/>
        <pt x="682" y="1833" on="1"/>
        <pt x="702" y="1833" on="0"/>
        <pt x="713" y="1812" on="1"/>
        <pt x="846" y="1546" on="1"/>
        <pt x="856" y="1526" on="0"/>
        <pt x="836" y="1526" on="1"/>
        <pt x="733" y="1526" on="1"/>
        <pt x="719" y="1526" on="0"/>
        <pt x="702" y="1546" on="1"/>
      </contour>
    </TTGlyph>
    <TTGlyph name="Oslash" xMin="123" yMin="-31" xMax="1454" yMax="1464">
      <contour>
        <pt x="123" y="717" on="1"/>
        <pt x="123" y="1067" on="0"/>
        <pt x="496" y="1464" on="0"/>
        <pt x="788" y="1464" on="1"/>
        <pt x="942" y="1464" on="0"/>
        <pt x="1067" y="1409" on="1"/>
        <pt x="1085" y="1444" on="1"/>
        <pt x="1096" y="1464" on="0"/>
        <pt x="1116" y="1464" on="1"/>
        <pt x="1260" y="1464" on="1"/>
        <pt x="1280" y="1464" on="0"/>
        <pt x="1270" y="1444" on="1"/>
        <pt x="1206" y="1323" on="1"/>
        <pt x="1454" y="1118" on="0"/>
        <pt x="1454" y="717" on="1"/>
        <pt x="1454" y="367" on="0"/>
        <pt x="1081" y="-31" on="0"/>
        <pt x="788" y="-31" on="1"/>
        <pt x="635" y="-31" on="0"/>
        <pt x="510" y="25" on="1"/>
        <pt x="492" y="-10" on="1"/>
        <pt x="481" y="-31" on="0"/>
        <pt x="461" y="-31" on="1"/>
        <pt x="317" y="-31" on="1"/>
        <pt x="293" y="-31" on="0"/>
        <pt x="307" y="-10" on="1"/>
        <pt x="371" y="109" on="1"/>
        <pt x="123" y="309" on="0"/>
      </contour>
      <contour>
        <pt x="451" y="258" on="1"/>
        <pt x="995" y="1274" on="1"/>
        <pt x="897" y="1321" on="0"/>
        <pt x="788" y="1321" on="1"/>
        <pt x="582" y="1321" on="0"/>
        <pt x="307" y="1016" on="0"/>
        <pt x="307" y="418" on="0"/>
      </contour>
      <contour>
        <pt x="582" y="158" on="1"/>
        <pt x="674" y="113" on="0"/>
        <pt x="788" y="113" on="1"/>
        <pt x="995" y="113" on="0"/>
        <pt x="1270" y="418" on="0"/>
        <pt x="1270" y="1016" on="0"/>
        <pt x="1126" y="1176" on="1"/>
      </contour>
    </TTGlyph>
    <TTGlyph name="Otilde" xMin="123" yMin="-31" xMax="1454" yMax="1833">
      <contour>
        <pt x="309" y="168" on="1"/>
        <pt x="123" y="367" on="0"/>
        <pt x="123" y="1067" on="0"/>
        <pt x="496" y="1464" on="0"/>
        <pt x="1081" y="1464" on="0"/>
        <pt x="1454" y="1067" on="0"/>
        <pt x="1454" y="367" on="0"/>
        <pt x="1081" y="-31" on="0"/>
        <pt x="496" y="-31" on="0"/>
      </contour>
      <contour>
        <pt x="995" y="1321" on="0"/>
        <pt x="582" y="1321" on="0"/>
        <pt x="307" y="1016" on="0"/>
        <pt x="307" y="418" on="0"/>
        <pt x="582" y="113" on="0"/>
        <pt x="995" y="113" on="0"/>
        <pt x="1270" y="418" on="0"/>
        <pt x="1270" y="1016" on="0"/>
      </contour>
      <contour>
        <pt x="455" y="1581" on="1"/>
        <pt x="483" y="1833" on="0"/>
        <pt x="649" y="1833" on="1"/>
        <pt x="698" y="1833" on="0"/>
        <pt x="784" y="1765" on="0"/>
        <pt x="850" y="1700" on="0"/>
        <pt x="874" y="1700" on="1"/>
        <pt x="932" y="1700" on="0"/>
        <pt x="952" y="1802" on="1"/>
        <pt x="954" y="1823" on="0"/>
        <pt x="977" y="1823" on="1"/>
        <pt x="1059" y="1823" on="1"/>
        <pt x="1083" y="1823" on="0"/>
        <pt x="1079" y="1798" on="1"/>
        <pt x="1051" y="1546" on="0"/>
        <pt x="885" y="1546" on="1"/>
        <pt x="836" y="1546" on="0"/>
        <pt x="750" y="1614" on="0"/>
        <pt x="684" y="1679" on="0"/>
        <pt x="659" y="1679" on="1"/>
        <pt x="602" y="1679" on="0"/>
        <pt x="582" y="1577" on="1"/>
        <pt x="580" y="1556" on="0"/>
        <pt x="557" y="1556" on="1"/>
        <pt x="475" y="1556" on="1"/>
        <pt x="451" y="1556" on="0"/>
      </contour>
    </TTGlyph>
    <TTGlyph name="P" xMin="205" yMin="0" xMax="1352" yMax="1434">
      <contour>
        <pt x="205" y="20" on="1"/>
        <pt x="205" y="1413" on="1"/>
        <pt x="205" y="1433" on="0"/>
        <pt x="225" y="1434" on="1"/>
        <pt x="819" y="1434" on="1"/>
        <pt x="1075" y="1434" on="0"/>
        <pt x="1352" y="1188" on="0"/>
        <pt x="1352" y="717" on="0"/>
        <pt x="1075" y="471" on="0"/>
        <pt x="819" y="471" on="1"/>
        <pt x="389" y="471" on="1"/>
        <pt x="389" y="20" on="1"/>
        <pt x="389" y="0" on="0"/>
        <pt x="369" y="0" on="1"/>
        <pt x="225" y="0" on="1"/>
        <pt x="205" y="0" on="0"/>
      </contour>
      <contour>
        <pt x="389" y="614" on="1"/>
        <pt x="819" y="614" on="1"/>
        <pt x="981" y="614" on="0"/>
        <pt x="1167" y="782" on="0"/>
        <pt x="1167" y="1122" on="0"/>
        <pt x="981" y="1290" on="0"/>
        <pt x="819" y="1290" on="1"/>
        <pt x="389" y="1290" on="1"/>
      </contour>
    </TTGlyph>
    <TTGlyph name="Q" xMin="123" yMin="-31" xMax="1577" yMax="1464">
      <contour>
        <pt x="1454" y="717" on="1"/>
        <pt x="1454" y="309" on="0"/>
        <pt x="1182" y="113" on="1"/>
        <pt x="1556" y="113" on="1"/>
        <pt x="1577" y="113" on="0"/>
        <pt x="1577" y="92" on="1"/>
        <pt x="1577" y="-10" on="1"/>
        <pt x="1577" y="-31" on="0"/>
        <pt x="1556" y="-31" on="1"/>
        <pt x="788" y="-31" on="1"/>
        <pt x="496" y="-31" on="0"/>
        <pt x="123" y="367" on="0"/>
        <pt x="123" y="1067" on="0"/>
        <pt x="496" y="1464" on="0"/>
        <pt x="1081" y="1464" on="0"/>
        <pt x="1454" y="1067" on="0"/>
      </contour>
      <contour>
        <pt x="995" y="1321" on="0"/>
        <pt x="582" y="1321" on="0"/>
        <pt x="307" y="1016" on="0"/>
        <pt x="307" y="418" on="0"/>
        <pt x="582" y="113" on="0"/>
        <pt x="995" y="113" on="0"/>
        <pt x="1270" y="418" on="0"/>
        <pt x="1270" y="1016" on="0"/>
      </contour>
    </TTGlyph>
    <TTGlyph name="R" xMin="205" yMin="0" xMax="1398" yMax="1434">
      <contour>
        <pt x="205" y="20" on="1"/>
        <pt x="205" y="1413" on="1"/>
        <pt x="205" y="1433" on="0"/>
        <pt x="225" y="1434" on="1"/>
        <pt x="799" y="1434" on="1"/>
        <pt x="1051" y="1434" on="0"/>
        <pt x="1331" y="1202" on="0"/>
        <pt x="1331" y="993" on="1"/>
        <pt x="1331" y="843" on="0"/>
        <pt x="1116" y="625" on="0"/>
        <pt x="922" y="594" on="1"/>
        <pt x="979" y="580" on="0"/>
        <pt x="1071" y="508" on="0"/>
        <pt x="1112" y="455" on="0"/>
        <pt x="1147" y="399" on="1"/>
        <pt x="1393" y="25" on="1"/>
        <pt x="1398" y="17" on="0"/>
        <pt x="1398" y="0" on="0"/>
        <pt x="1376" y="0" on="1"/>
        <pt x="1208" y="0" on="1"/>
        <pt x="1192" y="0" on="0"/>
        <pt x="1178" y="20" on="1"/>
        <pt x="932" y="399" on="1"/>
        <pt x="834" y="553" on="0"/>
        <pt x="645" y="553" on="1"/>
        <pt x="389" y="553" on="1"/>
        <pt x="389" y="20" on="1"/>
        <pt x="389" y="0" on="0"/>
        <pt x="369" y="0" on="1"/>
        <pt x="225" y="0" on="1"/>
        <pt x="205" y="0" on="0"/>
      </contour>
      <contour>
        <pt x="389" y="696" on="1"/>
        <pt x="799" y="696" on="1"/>
        <pt x="957" y="696" on="0"/>
        <pt x="1147" y="850" on="0"/>
        <pt x="1147" y="1137" on="0"/>
        <pt x="956" y="1290" on="0"/>
        <pt x="799" y="1290" on="1"/>
        <pt x="389" y="1290" on="1"/>
      </contour>
    </TTGlyph>
    <TTGlyph name="Racute" xMin="205" yMin="0" xMax="1393" yMax="1833">
      <contour>
        <pt x="205" y="20" on="1"/>
        <pt x="205" y="1413" on="1"/>
        <pt x="205" y="1433" on="0"/>
        <pt x="225" y="1434" on="1"/>
        <pt x="799" y="1434" on="1"/>
        <pt x="1051" y="1434" on="0"/>
        <pt x="1331" y="1202" on="0"/>
        <pt x="1331" y="993" on="1"/>
        <pt x="1331" y="843" on="0"/>
        <pt x="1116" y="625" on="0"/>
        <pt x="922" y="594" on="1"/>
        <pt x="979" y="580" on="0"/>
        <pt x="1071" y="508" on="0"/>
        <pt x="1112" y="455" on="0"/>
        <pt x="1147" y="399" on="1"/>
        <pt x="1393" y="25" on="1"/>
        <pt x="1409" y="0" on="0"/>
        <pt x="1376" y="0" on="1"/>
        <pt x="1208" y="0" on="1"/>
        <pt x="1192" y="0" on="0"/>
        <pt x="1178" y="20" on="1"/>
        <pt x="932" y="399" on="1"/>
        <pt x="834" y="553" on="0"/>
        <pt x="645" y="553" on="1"/>
        <pt x="389" y="553" on="1"/>
        <pt x="389" y="20" on="1"/>
        <pt x="389" y="0" on="0"/>
        <pt x="369" y="0" on="1"/>
        <pt x="225" y="0" on="1"/>
        <pt x="205" y="0" on="0"/>
      </contour>
      <contour>
        <pt x="389" y="696" on="1"/>
        <pt x="799" y="696" on="1"/>
        <pt x="957" y="696" on="0"/>
        <pt x="1147" y="850" on="0"/>
        <pt x="1147" y="1137" on="0"/>
        <pt x="956" y="1290" on="0"/>
        <pt x="799" y="1290" on="1"/>
        <pt x="389" y="1290" on="1"/>
      </contour>
      <contour>
        <pt x="631" y="1546" on="1"/>
        <pt x="764" y="1812" on="1"/>
        <pt x="774" y="1832" on="0"/>
        <pt x="795" y="1833" on="1"/>
        <pt x="979" y="1833" on="1"/>
        <pt x="1004" y="1833" on="0"/>
        <pt x="989" y="1812" on="1"/>
        <pt x="774" y="1546" on="1"/>
        <pt x="758" y="1526" on="0"/>
        <pt x="743" y="1526" on="1"/>
        <pt x="641" y="1526" on="1"/>
        <pt x="621" y="1526" on="0"/>
      </contour>
    </TTGlyph>
    <TTGlyph name="Rcaron" xMin="205" yMin="0" xMax="1393" yMax="1833">
      <contour>
        <pt x="205" y="20" on="1"/>
        <pt x="205" y="1413" on="1"/>
        <pt x="205" y="1433" on="0"/>
        <pt x="225" y="1434" on="1"/>
        <pt x="799" y="1434" on="1"/>
        <pt x="1051" y="1434" on="0"/>
        <pt x="1331" y="1202" on="0"/>
        <pt x="1331" y="993" on="1"/>
        <pt x="1331" y="843" on="0"/>
        <pt x="1116" y="625" on="0"/>
        <pt x="922" y="594" on="1"/>
        <pt x="979" y="580" on="0"/>
        <pt x="1071" y="508" on="0"/>
        <pt x="1112" y="455" on="0"/>
        <pt x="1147" y="399" on="1"/>
        <pt x="1393" y="25" on="1"/>
        <pt x="1409" y="0" on="0"/>
        <pt x="1376" y="0" on="1"/>
        <pt x="1208" y="0" on="1"/>
        <pt x="1192" y="0" on="0"/>
        <pt x="1178" y="20" on="1"/>
        <pt x="932" y="399" on="1"/>
        <pt x="834" y="553" on="0"/>
        <pt x="645" y="553" on="1"/>
        <pt x="389" y="553" on="1"/>
        <pt x="389" y="20" on="1"/>
        <pt x="389" y="0" on="0"/>
        <pt x="369" y="0" on="1"/>
        <pt x="225" y="0" on="1"/>
        <pt x="205" y="0" on="0"/>
      </contour>
      <contour>
        <pt x="389" y="696" on="1"/>
        <pt x="799" y="696" on="1"/>
        <pt x="957" y="696" on="0"/>
        <pt x="1147" y="850" on="0"/>
        <pt x="1147" y="1137" on="0"/>
        <pt x="956" y="1290" on="0"/>
        <pt x="799" y="1290" on="1"/>
        <pt x="389" y="1290" on="1"/>
      </contour>
      <contour>
        <pt x="408" y="1812" on="1"/>
        <pt x="394" y="1832" on="0"/>
        <pt x="418" y="1833" on="1"/>
        <pt x="516" y="1833" on="1"/>
        <pt x="530" y="1833" on="0"/>
        <pt x="551" y="1812" on="1"/>
        <pt x="709" y="1649" on="1"/>
        <pt x="866" y="1812" on="1"/>
        <pt x="886" y="1832" on="0"/>
        <pt x="901" y="1833" on="1"/>
        <pt x="999" y="1833" on="1"/>
        <pt x="1024" y="1833" on="0"/>
        <pt x="1010" y="1812" on="1"/>
        <pt x="862" y="1587" on="1"/>
        <pt x="834" y="1547" on="0"/>
        <pt x="799" y="1526" on="0"/>
        <pt x="780" y="1526" on="1"/>
        <pt x="637" y="1526" on="1"/>
        <pt x="603" y="1526" on="0"/>
        <pt x="571" y="1565" on="0"/>
        <pt x="555" y="1587" on="1"/>
      </contour>
    </TTGlyph>
    <TTGlyph name="Rcommaaccent" xMin="205" yMin="-430" xMax="1393" yMax="1434">
      <contour>
        <pt x="205" y="20" on="1"/>
        <pt x="205" y="1413" on="1"/>
        <pt x="205" y="1433" on="0"/>
        <pt x="225" y="1434" on="1"/>
        <pt x="799" y="1434" on="1"/>
        <pt x="1051" y="1434" on="0"/>
        <pt x="1331" y="1202" on="0"/>
        <pt x="1331" y="993" on="1"/>
        <pt x="1331" y="843" on="0"/>
        <pt x="1116" y="625" on="0"/>
        <pt x="922" y="594" on="1"/>
        <pt x="979" y="580" on="0"/>
        <pt x="1071" y="508" on="0"/>
        <pt x="1112" y="455" on="0"/>
        <pt x="1147" y="399" on="1"/>
        <pt x="1393" y="25" on="1"/>
        <pt x="1409" y="0" on="0"/>
        <pt x="1376" y="0" on="1"/>
        <pt x="1208" y="0" on="1"/>
        <pt x="1192" y="0" on="0"/>
        <pt x="1178" y="20" on="1"/>
        <pt x="932" y="399" on="1"/>
        <pt x="834" y="553" on="0"/>
        <pt x="645" y="553" on="1"/>
        <pt x="389" y="553" on="1"/>
        <pt x="389" y="20" on="1"/>
        <pt x="389" y="0" on="0"/>
        <pt x="369" y="0" on="1"/>
        <pt x="225" y="0" on="1"/>
        <pt x="205" y="0" on="0"/>
      </contour>
      <contour>
        <pt x="389" y="696" on="1"/>
        <pt x="799" y="696" on="1"/>
        <pt x="957" y="696" on="0"/>
        <pt x="1147" y="850" on="0"/>
        <pt x="1147" y="1137" on="0"/>
        <pt x="956" y="1290" on="0"/>
        <pt x="799" y="1290" on="1"/>
        <pt x="389" y="1290" on="1"/>
      </contour>
      <contour>
        <pt x="635" y="-41" on="1"/>
        <pt x="635" y="-18" on="0"/>
        <pt x="653" y="0" on="0"/>
        <pt x="676" y="0" on="1"/>
        <pt x="809" y="0" on="1"/>
        <pt x="831" y="0" on="0"/>
        <pt x="850" y="-18" on="0"/>
        <pt x="850" y="-41" on="1"/>
        <pt x="850" y="-164" on="1"/>
        <pt x="849" y="-201" on="0"/>
        <pt x="829" y="-236" on="1"/>
        <pt x="717" y="-430" on="1"/>
        <pt x="635" y="-430" on="1"/>
        <pt x="729" y="-215" on="1"/>
        <pt x="676" y="-215" on="1"/>
        <pt x="653" y="-215" on="0"/>
        <pt x="635" y="-197" on="0"/>
        <pt x="635" y="-174" on="1"/>
      </contour>
    </TTGlyph>
    <TTGlyph name="S" xMin="104" yMin="-31" xMax="1280" yMax="1464">
      <contour>
        <pt x="104" y="371" on="1"/>
        <pt x="104" y="389" on="0"/>
        <pt x="125" y="389" on="1"/>
        <pt x="254" y="389" on="1"/>
        <pt x="272" y="389" on="0"/>
        <pt x="279" y="369" on="1"/>
        <pt x="365" y="113" on="0"/>
        <pt x="717" y="113" on="1"/>
        <pt x="901" y="113" on="0"/>
        <pt x="1096" y="244" on="0"/>
        <pt x="1096" y="438" on="0"/>
        <pt x="973" y="557" on="0"/>
        <pt x="842" y="594" on="1"/>
        <pt x="483" y="696" on="1"/>
        <pt x="135" y="796" on="0"/>
        <pt x="135" y="1075" on="1"/>
        <pt x="135" y="1247" on="0"/>
        <pt x="428" y="1464" on="0"/>
        <pt x="920" y="1464" on="0"/>
        <pt x="1223" y="1253" on="0"/>
        <pt x="1262" y="1069" on="1"/>
        <pt x="1266" y="1044" on="0"/>
        <pt x="1241" y="1044" on="1"/>
        <pt x="1112" y="1044" on="1"/>
        <pt x="1094" y="1044" on="0"/>
        <pt x="1087" y="1065" on="1"/>
        <pt x="1001" y="1321" on="0"/>
        <pt x="678" y="1321" on="1"/>
        <pt x="508" y="1321" on="0"/>
        <pt x="319" y="1190" on="0"/>
        <pt x="319" y="993" on="0"/>
        <pt x="442" y="879" on="0"/>
        <pt x="575" y="840" on="1"/>
        <pt x="934" y="737" on="1"/>
        <pt x="1280" y="639" on="0"/>
        <pt x="1280" y="358" on="1"/>
        <pt x="1280" y="184" on="0"/>
        <pt x="979" y="-31" on="0"/>
        <pt x="455" y="-31" on="0"/>
        <pt x="299" y="74" on="1"/>
        <pt x="221" y="126" on="0"/>
        <pt x="104" y="287" on="0"/>
      </contour>
    </TTGlyph>
    <TTGlyph name="Scaron" xMin="104" yMin="-31" xMax="1280" yMax="1853">
      <contour>
        <pt x="104" y="365" on="1"/>
        <pt x="100" y="390" on="0"/>
        <pt x="125" y="389" on="1"/>
        <pt x="254" y="389" on="1"/>
        <pt x="272" y="389" on="0"/>
        <pt x="279" y="369" on="1"/>
        <pt x="365" y="113" on="0"/>
        <pt x="717" y="113" on="1"/>
        <pt x="901" y="113" on="0"/>
        <pt x="1096" y="244" on="0"/>
        <pt x="1096" y="438" on="0"/>
        <pt x="973" y="557" on="0"/>
        <pt x="842" y="594" on="1"/>
        <pt x="483" y="696" on="1"/>
        <pt x="135" y="796" on="0"/>
        <pt x="135" y="1075" on="1"/>
        <pt x="135" y="1247" on="0"/>
        <pt x="428" y="1464" on="0"/>
        <pt x="920" y="1464" on="0"/>
        <pt x="1223" y="1253" on="0"/>
        <pt x="1262" y="1069" on="1"/>
        <pt x="1266" y="1044" on="0"/>
        <pt x="1241" y="1044" on="1"/>
        <pt x="1112" y="1044" on="1"/>
        <pt x="1094" y="1044" on="0"/>
        <pt x="1087" y="1065" on="1"/>
        <pt x="1001" y="1321" on="0"/>
        <pt x="678" y="1321" on="1"/>
        <pt x="508" y="1321" on="0"/>
        <pt x="319" y="1190" on="0"/>
        <pt x="319" y="993" on="0"/>
        <pt x="442" y="879" on="0"/>
        <pt x="575" y="840" on="1"/>
        <pt x="934" y="737" on="1"/>
        <pt x="1280" y="639" on="0"/>
        <pt x="1280" y="358" on="1"/>
        <pt x="1280" y="184" on="0"/>
        <pt x="979" y="-31" on="0"/>
        <pt x="455" y="-31" on="0"/>
        <pt x="143" y="179" on="0"/>
      </contour>
      <contour>
        <pt x="369" y="1833" on="1"/>
        <pt x="355" y="1853" on="0"/>
        <pt x="379" y="1853" on="1"/>
        <pt x="477" y="1853" on="1"/>
        <pt x="491" y="1853" on="0"/>
        <pt x="512" y="1833" on="1"/>
        <pt x="670" y="1669" on="1"/>
        <pt x="827" y="1833" on="1"/>
        <pt x="847" y="1853" on="0"/>
        <pt x="862" y="1853" on="1"/>
        <pt x="961" y="1853" on="1"/>
        <pt x="986" y="1853" on="0"/>
        <pt x="971" y="1833" on="1"/>
        <pt x="823" y="1608" on="1"/>
        <pt x="795" y="1567" on="0"/>
        <pt x="760" y="1546" on="0"/>
        <pt x="741" y="1546" on="1"/>
        <pt x="598" y="1546" on="1"/>
        <pt x="565" y="1546" on="0"/>
        <pt x="532" y="1585" on="0"/>
        <pt x="516" y="1608" on="1"/>
      </contour>
    </TTGlyph>
    <TTGlyph name="T" xMin="41" yMin="0" xMax="1249" yMax="1434">
      <contour>
        <pt x="41" y="1311" on="1"/>
        <pt x="41" y="1413" on="1"/>
        <pt x="41" y="1433" on="0"/>
        <pt x="61" y="1434" on="1"/>
        <pt x="1229" y="1434" on="1"/>
        <pt x="1249" y="1434" on="0"/>
        <pt x="1249" y="1413" on="1"/>
        <pt x="1249" y="1311" on="1"/>
        <pt x="1249" y="1291" on="0"/>
        <pt x="1229" y="1290" on="1"/>
        <pt x="727" y="1290" on="1"/>
        <pt x="727" y="20" on="1"/>
        <pt x="727" y="0" on="0"/>
        <pt x="707" y="0" on="1"/>
        <pt x="563" y="0" on="1"/>
        <pt x="543" y="0" on="0"/>
        <pt x="543" y="20" on="1"/>
        <pt x="543" y="1290" on="1"/>
        <pt x="61" y="1290" on="1"/>
        <pt x="41" y="1291" on="0"/>
      </contour>
    </TTGlyph>
    <TTGlyph name="Thorn" xMin="205" yMin="0" xMax="1290" yMax="1434">
      <contour>
        <pt x="205" y="20" on="1"/>
        <pt x="205" y="1413" on="1"/>
        <pt x="205" y="1434" on="0"/>
        <pt x="225" y="1434" on="1"/>
        <pt x="369" y="1434" on="1"/>
        <pt x="389" y="1434" on="0"/>
        <pt x="389" y="1413" on="1"/>
        <pt x="389" y="1219" on="1"/>
        <pt x="758" y="1219" on="1"/>
        <pt x="1016" y="1219" on="0"/>
        <pt x="1290" y="967" on="0"/>
        <pt x="1290" y="467" on="0"/>
        <pt x="1016" y="215" on="0"/>
        <pt x="758" y="215" on="1"/>
        <pt x="389" y="215" on="1"/>
        <pt x="389" y="20" on="1"/>
        <pt x="389" y="0" on="0"/>
        <pt x="369" y="0" on="1"/>
        <pt x="225" y="0" on="1"/>
        <pt x="205" y="0" on="0"/>
      </contour>
      <contour>
        <pt x="389" y="358" on="1"/>
        <pt x="758" y="358" on="1"/>
        <pt x="920" y="358" on="0"/>
        <pt x="1106" y="532" on="0"/>
        <pt x="1106" y="901" on="0"/>
        <pt x="920" y="1075" on="0"/>
        <pt x="758" y="1075" on="1"/>
        <pt x="389" y="1075" on="1"/>
      </contour>
    </TTGlyph>
    <TTGlyph name="U" xMin="184" yMin="-31" xMax="1372" yMax="1434">
      <contour>
        <pt x="184" y="573" on="1"/>
        <pt x="184" y="1413" on="1"/>
        <pt x="184" y="1433" on="0"/>
        <pt x="205" y="1434" on="1"/>
        <pt x="348" y="1434" on="1"/>
        <pt x="368" y="1434" on="0"/>
        <pt x="369" y="1413" on="1"/>
        <pt x="369" y="573" on="1"/>
        <pt x="369" y="346" on="0"/>
        <pt x="598" y="113" on="0"/>
        <pt x="958" y="113" on="0"/>
        <pt x="1188" y="346" on="0"/>
        <pt x="1188" y="573" on="1"/>
        <pt x="1188" y="1413" on="1"/>
        <pt x="1188" y="1433" on="0"/>
        <pt x="1208" y="1434" on="1"/>
        <pt x="1352" y="1434" on="1"/>
        <pt x="1372" y="1434" on="0"/>
        <pt x="1372" y="1413" on="1"/>
        <pt x="1372" y="573" on="1"/>
        <pt x="1372" y="292" on="0"/>
        <pt x="1044" y="-31" on="0"/>
        <pt x="512" y="-31" on="0"/>
        <pt x="184" y="292" on="0"/>
      </contour>
    </TTGlyph>
    <TTGlyph name="Uacute" xMin="184" yMin="-31" xMax="1372" yMax="1812">
      <contour>
        <pt x="184" y="573" on="1"/>
        <pt x="184" y="1413" on="1"/>
        <pt x="184" y="1433" on="0"/>
        <pt x="205" y="1434" on="1"/>
        <pt x="348" y="1434" on="1"/>
        <pt x="368" y="1434" on="0"/>
        <pt x="369" y="1413" on="1"/>
        <pt x="369" y="573" on="1"/>
        <pt x="369" y="346" on="0"/>
        <pt x="598" y="113" on="0"/>
        <pt x="958" y="113" on="0"/>
        <pt x="1188" y="346" on="0"/>
        <pt x="1188" y="573" on="1"/>
        <pt x="1188" y="1413" on="1"/>
        <pt x="1188" y="1433" on="0"/>
        <pt x="1208" y="1434" on="1"/>
        <pt x="1352" y="1434" on="1"/>
        <pt x="1372" y="1434" on="0"/>
        <pt x="1372" y="1413" on="1"/>
        <pt x="1372" y="573" on="1"/>
        <pt x="1372" y="292" on="0"/>
        <pt x="1044" y="-31" on="0"/>
        <pt x="512" y="-31" on="0"/>
        <pt x="184" y="292" on="0"/>
      </contour>
      <contour>
        <pt x="680" y="1526" on="1"/>
        <pt x="813" y="1792" on="1"/>
        <pt x="823" y="1812" on="0"/>
        <pt x="844" y="1812" on="1"/>
        <pt x="1028" y="1812" on="1"/>
        <pt x="1053" y="1812" on="0"/>
        <pt x="1038" y="1792" on="1"/>
        <pt x="823" y="1526" on="1"/>
        <pt x="807" y="1506" on="0"/>
        <pt x="793" y="1505" on="1"/>
        <pt x="690" y="1505" on="1"/>
        <pt x="670" y="1506" on="0"/>
      </contour>
    </TTGlyph>
    <TTGlyph name="Ucircumflex" xMin="184" yMin="-31" xMax="1372" yMax="1812">
      <contour>
        <pt x="184" y="573" on="1"/>
        <pt x="184" y="1413" on="1"/>
        <pt x="184" y="1433" on="0"/>
        <pt x="205" y="1434" on="1"/>
        <pt x="348" y="1434" on="1"/>
        <pt x="368" y="1434" on="0"/>
        <pt x="369" y="1413" on="1"/>
        <pt x="369" y="573" on="1"/>
        <pt x="369" y="346" on="0"/>
        <pt x="598" y="113" on="0"/>
        <pt x="958" y="113" on="0"/>
        <pt x="1188" y="346" on="0"/>
        <pt x="1188" y="573" on="1"/>
        <pt x="1188" y="1413" on="1"/>
        <pt x="1188" y="1433" on="0"/>
        <pt x="1208" y="1434" on="1"/>
        <pt x="1352" y="1434" on="1"/>
        <pt x="1372" y="1434" on="0"/>
        <pt x="1372" y="1413" on="1"/>
        <pt x="1372" y="573" on="1"/>
        <pt x="1372" y="292" on="0"/>
        <pt x="1044" y="-31" on="0"/>
        <pt x="512" y="-31" on="0"/>
        <pt x="184" y="292" on="0"/>
      </contour>
      <contour>
        <pt x="477" y="1526" on="1"/>
        <pt x="625" y="1751" on="1"/>
        <pt x="653" y="1792" on="0"/>
        <pt x="688" y="1812" on="0"/>
        <pt x="707" y="1812" on="1"/>
        <pt x="850" y="1812" on="1"/>
        <pt x="885" y="1812" on="0"/>
        <pt x="915" y="1774" on="0"/>
        <pt x="932" y="1751" on="1"/>
        <pt x="1079" y="1526" on="1"/>
        <pt x="1093" y="1506" on="0"/>
        <pt x="1069" y="1505" on="1"/>
        <pt x="971" y="1505" on="1"/>
        <pt x="957" y="1505" on="0"/>
        <pt x="936" y="1526" on="1"/>
        <pt x="778" y="1690" on="1"/>
        <pt x="621" y="1526" on="1"/>
        <pt x="601" y="1506" on="0"/>
        <pt x="586" y="1505" on="1"/>
        <pt x="487" y="1505" on="1"/>
        <pt x="463" y="1506" on="0"/>
      </contour>
    </TTGlyph>
    <TTGlyph name="Udieresis" xMin="184" yMin="-31" xMax="1372" yMax="1741">
      <contour>
        <pt x="184" y="573" on="1"/>
        <pt x="184" y="1413" on="1"/>
        <pt x="184" y="1433" on="0"/>
        <pt x="205" y="1434" on="1"/>
        <pt x="348" y="1434" on="1"/>
        <pt x="368" y="1434" on="0"/>
        <pt x="369" y="1413" on="1"/>
        <pt x="369" y="573" on="1"/>
        <pt x="369" y="346" on="0"/>
        <pt x="598" y="113" on="0"/>
        <pt x="958" y="113" on="0"/>
        <pt x="1188" y="346" on="0"/>
        <pt x="1188" y="573" on="1"/>
        <pt x="1188" y="1413" on="1"/>
        <pt x="1188" y="1433" on="0"/>
        <pt x="1208" y="1434" on="1"/>
        <pt x="1352" y="1434" on="1"/>
        <pt x="1372" y="1434" on="0"/>
        <pt x="1372" y="1413" on="1"/>
        <pt x="1372" y="573" on="1"/>
        <pt x="1372" y="292" on="0"/>
        <pt x="1044" y="-31" on="0"/>
        <pt x="512" y="-31" on="0"/>
        <pt x="184" y="292" on="0"/>
      </contour>
      <contour>
        <pt x="461" y="1567" on="1"/>
        <pt x="461" y="1700" on="1"/>
        <pt x="461" y="1723" on="0"/>
        <pt x="479" y="1741" on="0"/>
        <pt x="502" y="1741" on="1"/>
        <pt x="635" y="1741" on="1"/>
        <pt x="658" y="1741" on="0"/>
        <pt x="676" y="1722" on="0"/>
        <pt x="676" y="1700" on="1"/>
        <pt x="676" y="1567" on="1"/>
        <pt x="676" y="1544" on="0"/>
        <pt x="657" y="1526" on="0"/>
        <pt x="635" y="1526" on="1"/>
        <pt x="502" y="1526" on="1"/>
        <pt x="479" y="1526" on="0"/>
        <pt x="461" y="1544" on="0"/>
      </contour>
      <contour>
        <pt x="881" y="1567" on="1"/>
        <pt x="881" y="1700" on="1"/>
        <pt x="881" y="1723" on="0"/>
        <pt x="899" y="1741" on="0"/>
        <pt x="922" y="1741" on="1"/>
        <pt x="1055" y="1741" on="1"/>
        <pt x="1078" y="1741" on="0"/>
        <pt x="1096" y="1722" on="0"/>
        <pt x="1096" y="1700" on="1"/>
        <pt x="1096" y="1567" on="1"/>
        <pt x="1096" y="1544" on="0"/>
        <pt x="1077" y="1526" on="0"/>
        <pt x="1055" y="1526" on="1"/>
        <pt x="922" y="1526" on="1"/>
        <pt x="899" y="1526" on="0"/>
        <pt x="881" y="1544" on="0"/>
      </contour>
    </TTGlyph>
    <TTGlyph name="Ugrave" xMin="184" yMin="-31" xMax="1372" yMax="1812">
      <contour>
        <pt x="184" y="573" on="1"/>
        <pt x="184" y="1413" on="1"/>
        <pt x="184" y="1433" on="0"/>
        <pt x="205" y="1434" on="1"/>
        <pt x="348" y="1434" on="1"/>
        <pt x="368" y="1434" on="0"/>
        <pt x="369" y="1413" on="1"/>
        <pt x="369" y="573" on="1"/>
        <pt x="369" y="346" on="0"/>
        <pt x="598" y="113" on="0"/>
        <pt x="958" y="113" on="0"/>
        <pt x="1188" y="346" on="0"/>
        <pt x="1188" y="573" on="1"/>
        <pt x="1188" y="1413" on="1"/>
        <pt x="1188" y="1433" on="0"/>
        <pt x="1208" y="1434" on="1"/>
        <pt x="1352" y="1434" on="1"/>
        <pt x="1372" y="1434" on="0"/>
        <pt x="1372" y="1413" on="1"/>
        <pt x="1372" y="573" on="1"/>
        <pt x="1372" y="292" on="0"/>
        <pt x="1044" y="-31" on="0"/>
        <pt x="512" y="-31" on="0"/>
        <pt x="184" y="292" on="0"/>
      </contour>
      <contour>
        <pt x="518" y="1792" on="1"/>
        <pt x="504" y="1812" on="0"/>
        <pt x="528" y="1812" on="1"/>
        <pt x="713" y="1812" on="1"/>
        <pt x="733" y="1812" on="0"/>
        <pt x="743" y="1792" on="1"/>
        <pt x="877" y="1526" on="1"/>
        <pt x="887" y="1506" on="0"/>
        <pt x="866" y="1505" on="1"/>
        <pt x="764" y="1505" on="1"/>
        <pt x="750" y="1505" on="0"/>
        <pt x="733" y="1526" on="1"/>
      </contour>
    </TTGlyph>
    <TTGlyph name="V" xMin="61" yMin="0" xMax="1395" yMax="1434">
      <contour>
        <pt x="63" y="1413" on="1"/>
        <pt x="60" y="1419" on="0"/>
        <pt x="61" y="1423" on="1"/>
        <pt x="61" y="1434" on="0"/>
        <pt x="80" y="1434" on="1"/>
        <pt x="227" y="1434" on="1"/>
        <pt x="247" y="1434" on="0"/>
        <pt x="258" y="1413" on="1"/>
        <pt x="729" y="236" on="1"/>
        <pt x="1200" y="1413" on="1"/>
        <pt x="1210" y="1433" on="0"/>
        <pt x="1231" y="1434" on="1"/>
        <pt x="1378" y="1434" on="1"/>
        <pt x="1406" y="1434" on="0"/>
        <pt x="1395" y="1413" on="1"/>
        <pt x="852" y="61" on="1"/>
        <pt x="827" y="0" on="0"/>
        <pt x="760" y="0" on="1"/>
        <pt x="698" y="0" on="1"/>
        <pt x="630" y="0" on="0"/>
        <pt x="606" y="61" on="1"/>
      </contour>
    </TTGlyph>
    <TTGlyph name="W" xMin="61" yMin="0" xMax="2030" yMax="1434">
      <contour>
        <pt x="63" y="1413" on="1"/>
        <pt x="61" y="1418" on="0"/>
        <pt x="61" y="1422" on="1"/>
        <pt x="61" y="1434" on="0"/>
        <pt x="80" y="1434" on="1"/>
        <pt x="219" y="1434" on="1"/>
        <pt x="244" y="1434" on="0"/>
        <pt x="250" y="1413" on="1"/>
        <pt x="612" y="246" on="1"/>
        <pt x="930" y="1372" on="1"/>
        <pt x="936" y="1397" on="0"/>
        <pt x="983" y="1434" on="0"/>
        <pt x="1012" y="1434" on="1"/>
        <pt x="1083" y="1434" on="1"/>
        <pt x="1112" y="1434" on="0"/>
        <pt x="1159" y="1397" on="0"/>
        <pt x="1165" y="1372" on="1"/>
        <pt x="1481" y="246" on="1"/>
        <pt x="1843" y="1413" on="1"/>
        <pt x="1849" y="1433" on="0"/>
        <pt x="1874" y="1434" on="1"/>
        <pt x="2013" y="1434" on="1"/>
        <pt x="2038" y="1434" on="0"/>
        <pt x="2030" y="1413" on="1"/>
        <pt x="1606" y="61" on="1"/>
        <pt x="1586" y="0" on="0"/>
        <pt x="1513" y="0" on="1"/>
        <pt x="1452" y="0" on="1"/>
        <pt x="1415" y="0" on="0"/>
        <pt x="1366" y="37" on="0"/>
        <pt x="1360" y="61" on="1"/>
        <pt x="1047" y="1176" on="1"/>
        <pt x="735" y="61" on="1"/>
        <pt x="729" y="36" on="0"/>
        <pt x="680" y="0" on="0"/>
        <pt x="643" y="0" on="1"/>
        <pt x="582" y="0" on="1"/>
        <pt x="510" y="0" on="0"/>
        <pt x="489" y="61" on="1"/>
      </contour>
    </TTGlyph>
    <TTGlyph name="X" xMin="62" yMin="0" xMax="1319" yMax="1434">
      <contour>
        <pt x="82" y="0" on="1"/>
        <pt x="58" y="0" on="0"/>
        <pt x="62" y="11" on="1"/>
        <pt x="62" y="15" on="0"/>
        <pt x="66" y="20" on="1"/>
        <pt x="582" y="717" on="1"/>
        <pt x="66" y="1413" on="1"/>
        <pt x="62" y="1418" on="0"/>
        <pt x="62" y="1422" on="1"/>
        <pt x="62" y="1433" on="0"/>
        <pt x="82" y="1434" on="1"/>
        <pt x="240" y="1434" on="1"/>
        <pt x="265" y="1434" on="0"/>
        <pt x="281" y="1413" on="1"/>
        <pt x="690" y="860" on="1"/>
        <pt x="1100" y="1413" on="1"/>
        <pt x="1116" y="1433" on="0"/>
        <pt x="1141" y="1434" on="1"/>
        <pt x="1298" y="1434" on="1"/>
        <pt x="1319" y="1434" on="0"/>
        <pt x="1319" y="1422" on="1"/>
        <pt x="1319" y="1418" on="0"/>
        <pt x="1315" y="1413" on="1"/>
        <pt x="797" y="717" on="1"/>
        <pt x="1315" y="20" on="1"/>
        <pt x="1319" y="15" on="0"/>
        <pt x="1319" y="11" on="1"/>
        <pt x="1319" y="0" on="0"/>
        <pt x="1298" y="0" on="1"/>
        <pt x="1141" y="0" on="1"/>
        <pt x="1116" y="0" on="0"/>
        <pt x="1100" y="20" on="1"/>
        <pt x="690" y="571" on="1"/>
        <pt x="281" y="20" on="1"/>
        <pt x="265" y="0" on="0"/>
        <pt x="240" y="0" on="1"/>
      </contour>
    </TTGlyph>
    <TTGlyph name="Y" xMin="43" yMin="0" xMax="1352" yMax="1434">
      <contour>
        <pt x="1331" y="1434" on="1"/>
        <pt x="1352" y="1434" on="0"/>
        <pt x="1352" y="1419" on="1"/>
        <pt x="1352" y="1415" on="0"/>
        <pt x="1348" y="1413" on="1"/>
        <pt x="788" y="481" on="1"/>
        <pt x="788" y="20" on="1"/>
        <pt x="788" y="0" on="0"/>
        <pt x="768" y="0" on="1"/>
        <pt x="625" y="0" on="1"/>
        <pt x="604" y="0" on="0"/>
        <pt x="604" y="20" on="1"/>
        <pt x="604" y="481" on="1"/>
        <pt x="45" y="1413" on="1"/>
        <pt x="43" y="1415" on="0"/>
        <pt x="43" y="1419" on="1"/>
        <pt x="43" y="1425" on="1"/>
        <pt x="49" y="1434" on="0"/>
        <pt x="61" y="1434" on="1"/>
        <pt x="211" y="1434" on="1"/>
        <pt x="238" y="1434" on="0"/>
        <pt x="252" y="1413" on="1"/>
        <pt x="696" y="674" on="1"/>
        <pt x="1141" y="1413" on="1"/>
        <pt x="1155" y="1434" on="0"/>
        <pt x="1182" y="1434" on="1"/>
      </contour>
    </TTGlyph>
    <TTGlyph name="Yacute" xMin="23" yMin="0" xMax="1328" yMax="1812">
      <contour>
        <pt x="41" y="1434" on="1"/>
        <pt x="190" y="1434" on="1"/>
        <pt x="217" y="1434" on="0"/>
        <pt x="231" y="1413" on="1"/>
        <pt x="676" y="674" on="1"/>
        <pt x="1120" y="1413" on="1"/>
        <pt x="1135" y="1434" on="0"/>
        <pt x="1161" y="1434" on="1"/>
        <pt x="1311" y="1434" on="1"/>
        <pt x="1323" y="1434" on="0"/>
        <pt x="1333" y="1419" on="0"/>
        <pt x="1327" y="1413" on="1"/>
        <pt x="768" y="481" on="1"/>
        <pt x="768" y="20" on="1"/>
        <pt x="768" y="0" on="0"/>
        <pt x="748" y="0" on="1"/>
        <pt x="604" y="0" on="1"/>
        <pt x="584" y="0" on="0"/>
        <pt x="584" y="20" on="1"/>
        <pt x="584" y="481" on="1"/>
        <pt x="25" y="1413" on="1"/>
        <pt x="18" y="1419" on="0"/>
        <pt x="29" y="1434" on="0"/>
      </contour>
      <contour>
        <pt x="598" y="1526" on="1"/>
        <pt x="731" y="1792" on="1"/>
        <pt x="741" y="1812" on="0"/>
        <pt x="762" y="1812" on="1"/>
        <pt x="946" y="1812" on="1"/>
        <pt x="971" y="1812" on="0"/>
        <pt x="956" y="1792" on="1"/>
        <pt x="741" y="1526" on="1"/>
        <pt x="725" y="1505" on="0"/>
        <pt x="711" y="1505" on="1"/>
        <pt x="608" y="1505" on="1"/>
        <pt x="588" y="1505" on="0"/>
      </contour>
    </TTGlyph>
    <TTGlyph name="Ydieresis" xMin="23" yMin="0" xMax="1328" yMax="1741">
      <contour>
        <pt x="41" y="1434" on="1"/>
        <pt x="190" y="1434" on="1"/>
        <pt x="217" y="1434" on="0"/>
        <pt x="231" y="1413" on="1"/>
        <pt x="676" y="674" on="1"/>
        <pt x="1120" y="1413" on="1"/>
        <pt x="1135" y="1434" on="0"/>
        <pt x="1161" y="1434" on="1"/>
        <pt x="1311" y="1434" on="1"/>
        <pt x="1323" y="1434" on="0"/>
        <pt x="1333" y="1419" on="0"/>
        <pt x="1327" y="1413" on="1"/>
        <pt x="768" y="481" on="1"/>
        <pt x="768" y="20" on="1"/>
        <pt x="768" y="0" on="0"/>
        <pt x="748" y="0" on="1"/>
        <pt x="604" y="0" on="1"/>
        <pt x="584" y="0" on="0"/>
        <pt x="584" y="20" on="1"/>
        <pt x="584" y="481" on="1"/>
        <pt x="25" y="1413" on="1"/>
        <pt x="18" y="1419" on="0"/>
        <pt x="29" y="1434" on="0"/>
      </contour>
      <contour>
        <pt x="358" y="1700" on="1"/>
        <pt x="358" y="1741" on="0"/>
        <pt x="399" y="1741" on="1"/>
        <pt x="532" y="1741" on="1"/>
        <pt x="555" y="1741" on="0"/>
        <pt x="573" y="1722" on="0"/>
        <pt x="573" y="1700" on="1"/>
        <pt x="573" y="1567" on="1"/>
        <pt x="573" y="1544" on="0"/>
        <pt x="555" y="1526" on="0"/>
        <pt x="532" y="1526" on="1"/>
        <pt x="399" y="1526" on="1"/>
        <pt x="377" y="1526" on="0"/>
        <pt x="358" y="1544" on="0"/>
        <pt x="358" y="1567" on="1"/>
      </contour>
      <contour>
        <pt x="778" y="1700" on="1"/>
        <pt x="778" y="1741" on="0"/>
        <pt x="819" y="1741" on="1"/>
        <pt x="952" y="1741" on="1"/>
        <pt x="975" y="1741" on="0"/>
        <pt x="993" y="1722" on="0"/>
        <pt x="993" y="1700" on="1"/>
        <pt x="993" y="1567" on="1"/>
        <pt x="993" y="1544" on="0"/>
        <pt x="975" y="1526" on="0"/>
        <pt x="952" y="1526" on="1"/>
        <pt x="819" y="1526" on="1"/>
        <pt x="797" y="1526" on="0"/>
        <pt x="778" y="1544" on="0"/>
        <pt x="778" y="1567" on="1"/>
      </contour>
    </TTGlyph>
    <TTGlyph name="Z" xMin="102" yMin="0" xMax="1219" yMax="1434">
      <contour>
        <pt x="102" y="20" on="1"/>
        <pt x="102" y="92" on="1"/>
        <pt x="102" y="133" on="0"/>
        <pt x="154" y="205" on="1"/>
        <pt x="993" y="1290" on="1"/>
        <pt x="123" y="1290" on="1"/>
        <pt x="102" y="1290" on="0"/>
        <pt x="102" y="1311" on="1"/>
        <pt x="102" y="1413" on="1"/>
        <pt x="102" y="1434" on="0"/>
        <pt x="123" y="1434" on="1"/>
        <pt x="1198" y="1434" on="1"/>
        <pt x="1219" y="1434" on="0"/>
        <pt x="1219" y="1413" on="1"/>
        <pt x="1219" y="1341" on="1"/>
        <pt x="1219" y="1300" on="0"/>
        <pt x="1167" y="1229" on="1"/>
        <pt x="326" y="143" on="1"/>
        <pt x="1198" y="143" on="1"/>
        <pt x="1219" y="143" on="0"/>
        <pt x="1219" y="123" on="1"/>
        <pt x="1219" y="20" on="1"/>
        <pt x="1219" y="0" on="0"/>
        <pt x="1198" y="0" on="1"/>
        <pt x="123" y="0" on="1"/>
        <pt x="102" y="0" on="0"/>
      </contour>
    </TTGlyph>
    <TTGlyph name="Zcaron" xMin="102" yMin="0" xMax="1219" yMax="1833">
      <contour>
        <pt x="102" y="20" on="1"/>
        <pt x="102" y="92" on="1"/>
        <pt x="102" y="133" on="0"/>
        <pt x="154" y="205" on="1"/>
        <pt x="993" y="1290" on="1"/>
        <pt x="123" y="1290" on="1"/>
        <pt x="102" y="1290" on="0"/>
        <pt x="102" y="1311" on="1"/>
        <pt x="102" y="1413" on="1"/>
        <pt x="102" y="1434" on="0"/>
        <pt x="123" y="1434" on="1"/>
        <pt x="1198" y="1434" on="1"/>
        <pt x="1219" y="1434" on="0"/>
        <pt x="1219" y="1413" on="1"/>
        <pt x="1219" y="1341" on="1"/>
        <pt x="1219" y="1300" on="0"/>
        <pt x="1167" y="1229" on="1"/>
        <pt x="326" y="143" on="1"/>
        <pt x="1198" y="143" on="1"/>
        <pt x="1219" y="143" on="0"/>
        <pt x="1219" y="123" on="1"/>
        <pt x="1219" y="20" on="1"/>
        <pt x="1219" y="0" on="0"/>
        <pt x="1198" y="0" on="1"/>
        <pt x="123" y="0" on="1"/>
        <pt x="102" y="0" on="0"/>
      </contour>
      <contour>
        <pt x="354" y="1812" on="1"/>
        <pt x="340" y="1833" on="0"/>
        <pt x="365" y="1833" on="1"/>
        <pt x="463" y="1833" on="1"/>
        <pt x="477" y="1833" on="0"/>
        <pt x="498" y="1812" on="1"/>
        <pt x="655" y="1649" on="1"/>
        <pt x="813" y="1812" on="1"/>
        <pt x="834" y="1833" on="0"/>
        <pt x="848" y="1833" on="1"/>
        <pt x="946" y="1833" on="1"/>
        <pt x="971" y="1833" on="0"/>
        <pt x="956" y="1812" on="1"/>
        <pt x="809" y="1587" on="1"/>
        <pt x="779" y="1546" on="0"/>
        <pt x="745" y="1526" on="0"/>
        <pt x="727" y="1526" on="1"/>
        <pt x="584" y="1526" on="1"/>
        <pt x="550" y="1526" on="0"/>
        <pt x="518" y="1565" on="0"/>
        <pt x="502" y="1587" on="1"/>
      </contour>
    </TTGlyph>
    <TTGlyph name="a" xMin="123" yMin="-31" xMax="1106" yMax="1126">
      <contour>
        <pt x="123" y="156" on="0"/>
        <pt x="123" y="479" on="0"/>
        <pt x="360" y="666" on="0"/>
        <pt x="573" y="666" on="1"/>
        <pt x="922" y="666" on="1"/>
        <pt x="922" y="676" on="1"/>
        <pt x="922" y="983" on="0"/>
        <pt x="614" y="983" on="1"/>
        <pt x="518" y="983" on="0"/>
        <pt x="383" y="891" on="0"/>
        <pt x="358" y="819" on="1"/>
        <pt x="352" y="799" on="0"/>
        <pt x="334" y="799" on="1"/>
        <pt x="205" y="799" on="1"/>
        <pt x="182" y="799" on="0"/>
        <pt x="184" y="819" on="1"/>
        <pt x="200" y="958" on="0"/>
        <pt x="432" y="1126" on="0"/>
        <pt x="614" y="1126" on="1"/>
        <pt x="852" y="1126" on="0"/>
        <pt x="1106" y="891" on="0"/>
        <pt x="1106" y="676" on="1"/>
        <pt x="1106" y="20" on="1"/>
        <pt x="1106" y="0" on="0"/>
        <pt x="1085" y="0" on="1"/>
        <pt x="973" y="0" on="1"/>
        <pt x="953" y="0" on="0"/>
        <pt x="950" y="20" on="1"/>
        <pt x="932" y="133" on="1"/>
        <pt x="920" y="114" on="0"/>
        <pt x="838" y="47" on="0"/>
        <pt x="797" y="26" on="1"/>
        <pt x="689" y="-31" on="0"/>
        <pt x="553" y="-31" on="1"/>
        <pt x="354" y="-31" on="0"/>
      </contour>
      <contour>
        <pt x="307" y="317" on="1"/>
        <pt x="307" y="217" on="0"/>
        <pt x="440" y="113" on="0"/>
        <pt x="563" y="113" on="1"/>
        <pt x="629" y="113" on="0"/>
        <pt x="752" y="158" on="0"/>
        <pt x="831" y="219" on="0"/>
        <pt x="893" y="283" on="0"/>
        <pt x="922" y="326" on="0"/>
        <pt x="922" y="328" on="1"/>
        <pt x="922" y="522" on="1"/>
        <pt x="573" y="522" on="1"/>
        <pt x="307" y="522" on="0"/>
      </contour>
    </TTGlyph>
    <TTGlyph name="aacute" xMin="123" yMin="-31" xMax="1106" yMax="1526">
      <contour>
        <pt x="123" y="156" on="0"/>
        <pt x="123" y="479" on="0"/>
        <pt x="360" y="666" on="0"/>
        <pt x="573" y="666" on="1"/>
        <pt x="922" y="666" on="1"/>
        <pt x="922" y="676" on="1"/>
        <pt x="922" y="983" on="0"/>
        <pt x="614" y="983" on="1"/>
        <pt x="518" y="983" on="0"/>
        <pt x="383" y="891" on="0"/>
        <pt x="358" y="819" on="1"/>
        <pt x="352" y="799" on="0"/>
        <pt x="334" y="799" on="1"/>
        <pt x="205" y="799" on="1"/>
        <pt x="182" y="799" on="0"/>
        <pt x="184" y="819" on="1"/>
        <pt x="200" y="958" on="0"/>
        <pt x="432" y="1126" on="0"/>
        <pt x="614" y="1126" on="1"/>
        <pt x="852" y="1126" on="0"/>
        <pt x="1106" y="891" on="0"/>
        <pt x="1106" y="676" on="1"/>
        <pt x="1106" y="20" on="1"/>
        <pt x="1106" y="0" on="0"/>
        <pt x="1085" y="0" on="1"/>
        <pt x="973" y="0" on="1"/>
        <pt x="953" y="0" on="0"/>
        <pt x="950" y="20" on="1"/>
        <pt x="932" y="133" on="1"/>
        <pt x="920" y="114" on="0"/>
        <pt x="838" y="47" on="0"/>
        <pt x="797" y="26" on="1"/>
        <pt x="689" y="-31" on="0"/>
        <pt x="553" y="-31" on="1"/>
        <pt x="354" y="-31" on="0"/>
      </contour>
      <contour>
        <pt x="307" y="317" on="1"/>
        <pt x="307" y="217" on="0"/>
        <pt x="440" y="113" on="0"/>
        <pt x="563" y="113" on="1"/>
        <pt x="629" y="113" on="0"/>
        <pt x="752" y="158" on="0"/>
        <pt x="831" y="219" on="0"/>
        <pt x="893" y="283" on="0"/>
        <pt x="922" y="326" on="0"/>
        <pt x="922" y="328" on="1"/>
        <pt x="922" y="522" on="1"/>
        <pt x="573" y="522" on="1"/>
        <pt x="307" y="522" on="0"/>
      </contour>
      <contour>
        <pt x="578" y="1239" on="1"/>
        <pt x="711" y="1505" on="1"/>
        <pt x="721" y="1525" on="0"/>
        <pt x="741" y="1526" on="1"/>
        <pt x="926" y="1526" on="1"/>
        <pt x="951" y="1526" on="0"/>
        <pt x="936" y="1505" on="1"/>
        <pt x="721" y="1239" on="1"/>
        <pt x="705" y="1219" on="0"/>
        <pt x="690" y="1219" on="1"/>
        <pt x="588" y="1219" on="1"/>
        <pt x="568" y="1219" on="0"/>
      </contour>
    </TTGlyph>
    <TTGlyph name="acircumflex" xMin="123" yMin="-31" xMax="1106" yMax="1526">
      <contour>
        <pt x="123" y="156" on="0"/>
        <pt x="123" y="479" on="0"/>
        <pt x="360" y="666" on="0"/>
        <pt x="573" y="666" on="1"/>
        <pt x="922" y="666" on="1"/>
        <pt x="922" y="676" on="1"/>
        <pt x="922" y="983" on="0"/>
        <pt x="614" y="983" on="1"/>
        <pt x="518" y="983" on="0"/>
        <pt x="383" y="891" on="0"/>
        <pt x="358" y="819" on="1"/>
        <pt x="352" y="799" on="0"/>
        <pt x="334" y="799" on="1"/>
        <pt x="205" y="799" on="1"/>
        <pt x="182" y="799" on="0"/>
        <pt x="184" y="819" on="1"/>
        <pt x="200" y="958" on="0"/>
        <pt x="432" y="1126" on="0"/>
        <pt x="614" y="1126" on="1"/>
        <pt x="852" y="1126" on="0"/>
        <pt x="1106" y="891" on="0"/>
        <pt x="1106" y="676" on="1"/>
        <pt x="1106" y="20" on="1"/>
        <pt x="1106" y="0" on="0"/>
        <pt x="1085" y="0" on="1"/>
        <pt x="973" y="0" on="1"/>
        <pt x="953" y="0" on="0"/>
        <pt x="950" y="20" on="1"/>
        <pt x="932" y="133" on="1"/>
        <pt x="920" y="114" on="0"/>
        <pt x="838" y="47" on="0"/>
        <pt x="797" y="26" on="1"/>
        <pt x="689" y="-31" on="0"/>
        <pt x="553" y="-31" on="1"/>
        <pt x="354" y="-31" on="0"/>
      </contour>
      <contour>
        <pt x="307" y="317" on="1"/>
        <pt x="307" y="217" on="0"/>
        <pt x="440" y="113" on="0"/>
        <pt x="563" y="113" on="1"/>
        <pt x="629" y="113" on="0"/>
        <pt x="752" y="158" on="0"/>
        <pt x="831" y="219" on="0"/>
        <pt x="893" y="283" on="0"/>
        <pt x="922" y="326" on="0"/>
        <pt x="922" y="328" on="1"/>
        <pt x="922" y="522" on="1"/>
        <pt x="573" y="522" on="1"/>
        <pt x="307" y="522" on="0"/>
      </contour>
      <contour>
        <pt x="313" y="1239" on="1"/>
        <pt x="461" y="1464" on="1"/>
        <pt x="488" y="1504" on="0"/>
        <pt x="524" y="1526" on="0"/>
        <pt x="543" y="1526" on="1"/>
        <pt x="686" y="1526" on="1"/>
        <pt x="719" y="1526" on="0"/>
        <pt x="752" y="1487" on="0"/>
        <pt x="768" y="1464" on="1"/>
        <pt x="915" y="1239" on="1"/>
        <pt x="929" y="1219" on="0"/>
        <pt x="905" y="1219" on="1"/>
        <pt x="807" y="1219" on="1"/>
        <pt x="793" y="1219" on="0"/>
        <pt x="772" y="1239" on="1"/>
        <pt x="614" y="1403" on="1"/>
        <pt x="457" y="1239" on="1"/>
        <pt x="437" y="1219" on="0"/>
        <pt x="422" y="1219" on="1"/>
        <pt x="324" y="1219" on="1"/>
        <pt x="299" y="1219" on="0"/>
      </contour>
    </TTGlyph>
    <TTGlyph name="acute" xMin="4" yMin="1126" xMax="362" yMax="1434">
      <contour>
        <pt x="4" y="1147" on="1"/>
        <pt x="137" y="1413" on="1"/>
        <pt x="147" y="1434" on="0"/>
        <pt x="168" y="1434" on="1"/>
        <pt x="352" y="1434" on="1"/>
        <pt x="377" y="1434" on="0"/>
        <pt x="362" y="1413" on="1"/>
        <pt x="147" y="1147" on="1"/>
        <pt x="131" y="1126" on="0"/>
        <pt x="117" y="1126" on="1"/>
        <pt x="14" y="1126" on="1"/>
        <pt x="-6" y="1126" on="0"/>
      </contour>
    </TTGlyph>
    <TTGlyph name="adieresis" xMin="123" yMin="-31" xMax="1106" yMax="1485">
      <contour>
        <pt x="123" y="156" on="0"/>
        <pt x="123" y="479" on="0"/>
        <pt x="360" y="666" on="0"/>
        <pt x="573" y="666" on="1"/>
        <pt x="922" y="666" on="1"/>
        <pt x="922" y="676" on="1"/>
        <pt x="922" y="983" on="0"/>
        <pt x="614" y="983" on="1"/>
        <pt x="518" y="983" on="0"/>
        <pt x="383" y="891" on="0"/>
        <pt x="358" y="819" on="1"/>
        <pt x="352" y="799" on="0"/>
        <pt x="334" y="799" on="1"/>
        <pt x="205" y="799" on="1"/>
        <pt x="182" y="799" on="0"/>
        <pt x="184" y="819" on="1"/>
        <pt x="200" y="958" on="0"/>
        <pt x="432" y="1126" on="0"/>
        <pt x="614" y="1126" on="1"/>
        <pt x="852" y="1126" on="0"/>
        <pt x="1106" y="891" on="0"/>
        <pt x="1106" y="676" on="1"/>
        <pt x="1106" y="20" on="1"/>
        <pt x="1106" y="0" on="0"/>
        <pt x="1085" y="0" on="1"/>
        <pt x="973" y="0" on="1"/>
        <pt x="953" y="0" on="0"/>
        <pt x="950" y="20" on="1"/>
        <pt x="932" y="133" on="1"/>
        <pt x="920" y="114" on="0"/>
        <pt x="838" y="47" on="0"/>
        <pt x="797" y="26" on="1"/>
        <pt x="689" y="-31" on="0"/>
        <pt x="553" y="-31" on="1"/>
        <pt x="354" y="-31" on="0"/>
      </contour>
      <contour>
        <pt x="307" y="317" on="1"/>
        <pt x="307" y="217" on="0"/>
        <pt x="440" y="113" on="0"/>
        <pt x="563" y="113" on="1"/>
        <pt x="629" y="113" on="0"/>
        <pt x="752" y="158" on="0"/>
        <pt x="831" y="219" on="0"/>
        <pt x="893" y="283" on="0"/>
        <pt x="922" y="326" on="0"/>
        <pt x="922" y="328" on="1"/>
        <pt x="922" y="522" on="1"/>
        <pt x="573" y="522" on="1"/>
        <pt x="307" y="522" on="0"/>
      </contour>
      <contour>
        <pt x="317" y="1311" on="1"/>
        <pt x="317" y="1444" on="1"/>
        <pt x="317" y="1467" on="0"/>
        <pt x="336" y="1485" on="0"/>
        <pt x="358" y="1485" on="1"/>
        <pt x="492" y="1485" on="1"/>
        <pt x="515" y="1485" on="0"/>
        <pt x="532" y="1466" on="0"/>
        <pt x="532" y="1444" on="1"/>
        <pt x="532" y="1311" on="1"/>
        <pt x="532" y="1288" on="0"/>
        <pt x="514" y="1270" on="0"/>
        <pt x="492" y="1270" on="1"/>
        <pt x="358" y="1270" on="1"/>
        <pt x="335" y="1270" on="0"/>
        <pt x="317" y="1288" on="0"/>
      </contour>
      <contour>
        <pt x="737" y="1311" on="1"/>
        <pt x="737" y="1444" on="1"/>
        <pt x="737" y="1467" on="0"/>
        <pt x="756" y="1485" on="0"/>
        <pt x="778" y="1485" on="1"/>
        <pt x="911" y="1485" on="1"/>
        <pt x="934" y="1485" on="0"/>
        <pt x="952" y="1466" on="0"/>
        <pt x="952" y="1444" on="1"/>
        <pt x="952" y="1311" on="1"/>
        <pt x="952" y="1288" on="0"/>
        <pt x="934" y="1270" on="0"/>
        <pt x="911" y="1270" on="1"/>
        <pt x="778" y="1270" on="1"/>
        <pt x="755" y="1270" on="0"/>
        <pt x="737" y="1288" on="0"/>
      </contour>
    </TTGlyph>
    <TTGlyph name="ae" xMin="123" yMin="-33" xMax="1966" yMax="1126">
      <contour>
        <pt x="354" y="-31" on="0"/>
        <pt x="123" y="154" on="0"/>
        <pt x="123" y="463" on="0"/>
        <pt x="360" y="645" on="0"/>
        <pt x="573" y="645" on="1"/>
        <pt x="922" y="645" on="1"/>
        <pt x="922" y="676" on="1"/>
        <pt x="922" y="983" on="0"/>
        <pt x="614" y="983" on="1"/>
        <pt x="518" y="983" on="0"/>
        <pt x="383" y="891" on="0"/>
        <pt x="358" y="819" on="1"/>
        <pt x="352" y="799" on="0"/>
        <pt x="334" y="799" on="1"/>
        <pt x="205" y="799" on="1"/>
        <pt x="182" y="799" on="0"/>
        <pt x="184" y="819" on="1"/>
        <pt x="201" y="958" on="0"/>
        <pt x="432" y="1126" on="0"/>
        <pt x="614" y="1126" on="1"/>
        <pt x="897" y="1126" on="0"/>
        <pt x="1034" y="911" on="1"/>
        <pt x="1171" y="1126" on="0"/>
        <pt x="1454" y="1126" on="1"/>
        <pt x="1675" y="1126" on="0"/>
        <pt x="1966" y="840" on="0"/>
        <pt x="1966" y="594" on="1"/>
        <pt x="1966" y="543" on="1"/>
        <pt x="1966" y="502" on="0"/>
        <pt x="1925" y="502" on="1"/>
        <pt x="1106" y="502" on="1"/>
        <pt x="1120" y="305" on="0"/>
        <pt x="1305" y="111" on="0"/>
        <pt x="1434" y="111" on="1"/>
        <pt x="1659" y="111" on="0"/>
        <pt x="1761" y="295" on="1"/>
        <pt x="1774" y="315" on="0"/>
        <pt x="1786" y="315" on="1"/>
        <pt x="1915" y="315" on="1"/>
        <pt x="1942" y="315" on="0"/>
        <pt x="1935" y="291" on="1"/>
        <pt x="1894" y="143" on="0"/>
        <pt x="1640" y="-33" on="0"/>
        <pt x="1434" y="-33" on="1"/>
        <pt x="1143" y="-33" on="0"/>
        <pt x="1008" y="197" on="1"/>
        <pt x="970" y="146" on="0"/>
        <pt x="893" y="87" on="1"/>
        <pt x="743" y="-31" on="0"/>
      </contour>
      <contour>
        <pt x="563" y="113" on="1"/>
        <pt x="629" y="113" on="0"/>
        <pt x="752" y="158" on="0"/>
        <pt x="831" y="219" on="0"/>
        <pt x="893" y="283" on="0"/>
        <pt x="922" y="326" on="0"/>
        <pt x="922" y="328" on="1"/>
        <pt x="922" y="502" on="1"/>
        <pt x="573" y="502" on="1"/>
        <pt x="444" y="502" on="0"/>
        <pt x="307" y="399" on="0"/>
        <pt x="307" y="215" on="0"/>
        <pt x="440" y="113" on="0"/>
      </contour>
      <contour>
        <pt x="1106" y="645" on="1"/>
        <pt x="1782" y="645" on="1"/>
        <pt x="1774" y="793" on="0"/>
        <pt x="1575" y="983" on="0"/>
        <pt x="1315" y="983" on="0"/>
        <pt x="1120" y="807" on="0"/>
      </contour>
    </TTGlyph>
    <TTGlyph name="agrave" xMin="123" yMin="-31" xMax="1106" yMax="1524">
      <contour>
        <pt x="123" y="156" on="0"/>
        <pt x="123" y="479" on="0"/>
        <pt x="360" y="666" on="0"/>
        <pt x="573" y="666" on="1"/>
        <pt x="922" y="666" on="1"/>
        <pt x="922" y="676" on="1"/>
        <pt x="922" y="983" on="0"/>
        <pt x="614" y="983" on="1"/>
        <pt x="518" y="983" on="0"/>
        <pt x="383" y="891" on="0"/>
        <pt x="358" y="819" on="1"/>
        <pt x="352" y="799" on="0"/>
        <pt x="334" y="799" on="1"/>
        <pt x="205" y="799" on="1"/>
        <pt x="182" y="799" on="0"/>
        <pt x="184" y="819" on="1"/>
        <pt x="200" y="958" on="0"/>
        <pt x="432" y="1126" on="0"/>
        <pt x="614" y="1126" on="1"/>
        <pt x="852" y="1126" on="0"/>
        <pt x="1106" y="891" on="0"/>
        <pt x="1106" y="676" on="1"/>
        <pt x="1106" y="20" on="1"/>
        <pt x="1106" y="0" on="0"/>
        <pt x="1085" y="0" on="1"/>
        <pt x="973" y="0" on="1"/>
        <pt x="953" y="0" on="0"/>
        <pt x="950" y="20" on="1"/>
        <pt x="932" y="133" on="1"/>
        <pt x="920" y="114" on="0"/>
        <pt x="838" y="47" on="0"/>
        <pt x="797" y="26" on="1"/>
        <pt x="689" y="-31" on="0"/>
        <pt x="553" y="-31" on="1"/>
        <pt x="354" y="-31" on="0"/>
      </contour>
      <contour>
        <pt x="307" y="317" on="1"/>
        <pt x="307" y="217" on="0"/>
        <pt x="440" y="113" on="0"/>
        <pt x="563" y="113" on="1"/>
        <pt x="629" y="113" on="0"/>
        <pt x="752" y="158" on="0"/>
        <pt x="831" y="219" on="0"/>
        <pt x="893" y="283" on="0"/>
        <pt x="922" y="326" on="0"/>
        <pt x="922" y="328" on="1"/>
        <pt x="922" y="522" on="1"/>
        <pt x="573" y="522" on="1"/>
        <pt x="307" y="522" on="0"/>
      </contour>
      <contour>
        <pt x="354" y="1503" on="1"/>
        <pt x="340" y="1523" on="0"/>
        <pt x="365" y="1524" on="1"/>
        <pt x="549" y="1524" on="1"/>
        <pt x="569" y="1524" on="0"/>
        <pt x="580" y="1503" on="1"/>
        <pt x="713" y="1237" on="1"/>
        <pt x="723" y="1217" on="0"/>
        <pt x="702" y="1217" on="1"/>
        <pt x="600" y="1217" on="1"/>
        <pt x="586" y="1217" on="0"/>
        <pt x="569" y="1237" on="1"/>
      </contour>
    </TTGlyph>
    <TTGlyph name="ampersand" xMin="102" yMin="-31" xMax="1448" yMax="1464">
      <contour>
        <pt x="102" y="358" on="1"/>
        <pt x="102" y="598" on="0"/>
        <pt x="332" y="754" on="1"/>
        <pt x="375" y="785" on="0"/>
        <pt x="410" y="799" on="1"/>
        <pt x="404" y="805" on="0"/>
        <pt x="381" y="823" on="0"/>
        <pt x="324" y="887" on="0"/>
        <pt x="302" y="920" on="1"/>
        <pt x="246" y="1009" on="0"/>
        <pt x="246" y="1096" on="1"/>
        <pt x="246" y="1268" on="0"/>
        <pt x="496" y="1464" on="0"/>
        <pt x="938" y="1464" on="0"/>
        <pt x="1221" y="1249" on="0"/>
        <pt x="1260" y="1069" on="1"/>
        <pt x="1264" y="1044" on="0"/>
        <pt x="1239" y="1044" on="1"/>
        <pt x="1110" y="1044" on="1"/>
        <pt x="1092" y="1044" on="0"/>
        <pt x="1085" y="1065" on="1"/>
        <pt x="1046" y="1182" on="0"/>
        <pt x="858" y="1321" on="0"/>
        <pt x="737" y="1321" on="1"/>
        <pt x="430" y="1321" on="0"/>
        <pt x="430" y="1116" on="1"/>
        <pt x="430" y="1057" on="0"/>
        <pt x="528" y="909" on="0"/>
        <pt x="578" y="864" on="1"/>
        <pt x="1044" y="410" on="1"/>
        <pt x="1270" y="655" on="1"/>
        <pt x="1284" y="671" on="0"/>
        <pt x="1300" y="655" on="1"/>
        <pt x="1384" y="582" on="1"/>
        <pt x="1398" y="570" on="0"/>
        <pt x="1386" y="553" on="1"/>
        <pt x="1157" y="297" on="1"/>
        <pt x="1442" y="20" on="1"/>
        <pt x="1450" y="12" on="0"/>
        <pt x="1446" y="0" on="0"/>
        <pt x="1438" y="0" on="1"/>
        <pt x="1247" y="0" on="1"/>
        <pt x="1222" y="0" on="0"/>
        <pt x="1198" y="20" on="1"/>
        <pt x="1044" y="174" on="1"/>
        <pt x="858" y="-31" on="0"/>
        <pt x="553" y="-31" on="1"/>
        <pt x="358" y="-31" on="0"/>
        <pt x="102" y="184" on="0"/>
      </contour>
      <contour>
        <pt x="287" y="358" on="1"/>
        <pt x="287" y="243" on="0"/>
        <pt x="442" y="113" on="0"/>
        <pt x="573" y="113" on="1"/>
        <pt x="774" y="113" on="0"/>
        <pt x="932" y="287" on="1"/>
        <pt x="522" y="686" on="1"/>
        <pt x="492" y="674" on="0"/>
        <pt x="399" y="606" on="0"/>
        <pt x="338" y="537" on="0"/>
        <pt x="287" y="421" on="0"/>
      </contour>
    </TTGlyph>
    <TTGlyph name="aring" xMin="123" yMin="-31" xMax="1106" yMax="1638">
      <contour>
        <pt x="123" y="156" on="0"/>
        <pt x="123" y="479" on="0"/>
        <pt x="360" y="666" on="0"/>
        <pt x="573" y="666" on="1"/>
        <pt x="922" y="666" on="1"/>
        <pt x="922" y="676" on="1"/>
        <pt x="922" y="983" on="0"/>
        <pt x="614" y="983" on="1"/>
        <pt x="518" y="983" on="0"/>
        <pt x="383" y="891" on="0"/>
        <pt x="358" y="819" on="1"/>
        <pt x="352" y="799" on="0"/>
        <pt x="334" y="799" on="1"/>
        <pt x="205" y="799" on="1"/>
        <pt x="182" y="799" on="0"/>
        <pt x="184" y="819" on="1"/>
        <pt x="200" y="958" on="0"/>
        <pt x="432" y="1126" on="0"/>
        <pt x="614" y="1126" on="1"/>
        <pt x="852" y="1126" on="0"/>
        <pt x="1106" y="891" on="0"/>
        <pt x="1106" y="676" on="1"/>
        <pt x="1106" y="20" on="1"/>
        <pt x="1106" y="0" on="0"/>
        <pt x="1085" y="0" on="1"/>
        <pt x="973" y="0" on="1"/>
        <pt x="953" y="0" on="0"/>
        <pt x="950" y="20" on="1"/>
        <pt x="932" y="133" on="1"/>
        <pt x="920" y="114" on="0"/>
        <pt x="838" y="47" on="0"/>
        <pt x="797" y="26" on="1"/>
        <pt x="689" y="-31" on="0"/>
        <pt x="553" y="-31" on="1"/>
        <pt x="354" y="-31" on="0"/>
      </contour>
      <contour>
        <pt x="307" y="317" on="1"/>
        <pt x="307" y="217" on="0"/>
        <pt x="440" y="113" on="0"/>
        <pt x="563" y="113" on="1"/>
        <pt x="629" y="113" on="0"/>
        <pt x="752" y="158" on="0"/>
        <pt x="831" y="219" on="0"/>
        <pt x="893" y="283" on="0"/>
        <pt x="922" y="326" on="0"/>
        <pt x="922" y="328" on="1"/>
        <pt x="922" y="522" on="1"/>
        <pt x="573" y="522" on="1"/>
        <pt x="307" y="522" on="0"/>
      </contour>
      <contour>
        <pt x="389" y="1313" on="0"/>
        <pt x="389" y="1513" on="0"/>
        <pt x="526" y="1638" on="0"/>
        <pt x="743" y="1638" on="0"/>
        <pt x="881" y="1513" on="0"/>
        <pt x="881" y="1313" on="0"/>
        <pt x="743" y="1188" on="0"/>
        <pt x="526" y="1188" on="0"/>
      </contour>
      <contour>
        <pt x="522" y="1458" on="0"/>
        <pt x="522" y="1368" on="0"/>
        <pt x="590" y="1300" on="0"/>
        <pt x="680" y="1300" on="0"/>
        <pt x="748" y="1368" on="0"/>
        <pt x="748" y="1458" on="0"/>
        <pt x="680" y="1526" on="0"/>
        <pt x="590" y="1526" on="0"/>
      </contour>
    </TTGlyph>
    <TTGlyph name="asciicircum" xMin="86" yMin="737" xMax="1049" yMax="1434">
      <contour>
        <pt x="86" y="758" on="1"/>
        <pt x="465" y="1413" on="1"/>
        <pt x="475" y="1434" on="0"/>
        <pt x="496" y="1434" on="1"/>
        <pt x="639" y="1434" on="1"/>
        <pt x="659" y="1434" on="0"/>
        <pt x="670" y="1413" on="1"/>
        <pt x="1049" y="758" on="1"/>
        <pt x="1063" y="737" on="0"/>
        <pt x="1038" y="737" on="1"/>
        <pt x="895" y="737" on="1"/>
        <pt x="879" y="737" on="0"/>
        <pt x="864" y="758" on="1"/>
        <pt x="567" y="1272" on="1"/>
        <pt x="270" y="758" on="1"/>
        <pt x="256" y="737" on="0"/>
        <pt x="240" y="737" on="1"/>
        <pt x="96" y="737" on="1"/>
        <pt x="72" y="737" on="0"/>
      </contour>
    </TTGlyph>
    <TTGlyph name="asciitilde" xMin="82" yMin="512" xMax="1044" yMax="840">
      <contour>
        <pt x="82" y="547" on="1"/>
        <pt x="90" y="686" on="0"/>
        <pt x="250" y="840" on="0"/>
        <pt x="369" y="840" on="1"/>
        <pt x="443" y="840" on="0"/>
        <pt x="586" y="758" on="0"/>
        <pt x="709" y="676" on="0"/>
        <pt x="803" y="676" on="0"/>
        <pt x="874" y="754" on="0"/>
        <pt x="887" y="809" on="1"/>
        <pt x="893" y="829" on="0"/>
        <pt x="911" y="829" on="1"/>
        <pt x="1024" y="829" on="1"/>
        <pt x="1044" y="829" on="0"/>
        <pt x="1044" y="805" on="1"/>
        <pt x="1036" y="666" on="0"/>
        <pt x="877" y="512" on="0"/>
        <pt x="758" y="512" on="1"/>
        <pt x="684" y="512" on="0"/>
        <pt x="541" y="594" on="0"/>
        <pt x="418" y="676" on="0"/>
        <pt x="324" y="676" on="0"/>
        <pt x="252" y="598" on="0"/>
        <pt x="240" y="543" on="1"/>
        <pt x="234" y="523" on="0"/>
        <pt x="215" y="522" on="1"/>
        <pt x="102" y="522" on="1"/>
        <pt x="82" y="522" on="0"/>
      </contour>
    </TTGlyph>
    <TTGlyph name="asterisk" xMin="88" yMin="635" xMax="842" yMax="1434">
      <contour>
        <pt x="88" y="887" on="1"/>
        <pt x="76" y="907" on="0"/>
        <pt x="96" y="915" on="1"/>
        <pt x="301" y="1034" on="1"/>
        <pt x="96" y="1153" on="1"/>
        <pt x="80" y="1161" on="0"/>
        <pt x="88" y="1182" on="1"/>
        <pt x="150" y="1286" on="1"/>
        <pt x="162" y="1307" on="0"/>
        <pt x="178" y="1294" on="1"/>
        <pt x="383" y="1176" on="1"/>
        <pt x="383" y="1413" on="1"/>
        <pt x="383" y="1434" on="0"/>
        <pt x="403" y="1434" on="1"/>
        <pt x="526" y="1434" on="1"/>
        <pt x="547" y="1434" on="0"/>
        <pt x="547" y="1413" on="1"/>
        <pt x="547" y="1176" on="1"/>
        <pt x="752" y="1294" on="1"/>
        <pt x="768" y="1307" on="0"/>
        <pt x="780" y="1286" on="1"/>
        <pt x="842" y="1182" on="1"/>
        <pt x="850" y="1161" on="0"/>
        <pt x="834" y="1153" on="1"/>
        <pt x="627" y="1034" on="1"/>
        <pt x="834" y="915" on="1"/>
        <pt x="854" y="907" on="0"/>
        <pt x="842" y="887" on="1"/>
        <pt x="780" y="780" on="1"/>
        <pt x="772" y="762" on="0"/>
        <pt x="752" y="774" on="1"/>
        <pt x="547" y="893" on="1"/>
        <pt x="547" y="655" on="1"/>
        <pt x="547" y="635" on="0"/>
        <pt x="526" y="635" on="1"/>
        <pt x="403" y="635" on="1"/>
        <pt x="383" y="635" on="0"/>
        <pt x="383" y="655" on="1"/>
        <pt x="383" y="893" on="1"/>
        <pt x="178" y="774" on="1"/>
        <pt x="158" y="762" on="0"/>
        <pt x="150" y="780" on="1"/>
      </contour>
    </TTGlyph>
    <TTGlyph name="at" xMin="102" yMin="-31" xMax="1618" yMax="1464">
      <contour>
        <pt x="102" y="389" on="0"/>
        <pt x="102" y="1044" on="0"/>
        <pt x="535" y="1464" on="0"/>
        <pt x="1188" y="1464" on="0"/>
        <pt x="1618" y="1030" on="0"/>
        <pt x="1618" y="676" on="1"/>
        <pt x="1618" y="465" on="0"/>
        <pt x="1468" y="256" on="0"/>
        <pt x="1352" y="256" on="1"/>
        <pt x="1186" y="256" on="0"/>
        <pt x="1124" y="379" on="1"/>
        <pt x="1116" y="399" on="1"/>
        <pt x="1056" y="309" on="0"/>
        <pt x="929" y="272" on="1"/>
        <pt x="877" y="256" on="0"/>
        <pt x="819" y="256" on="1"/>
        <pt x="647" y="256" on="0"/>
        <pt x="461" y="406" on="0"/>
        <pt x="461" y="659" on="0"/>
        <pt x="647" y="809" on="0"/>
        <pt x="819" y="809" on="1"/>
        <pt x="1085" y="809" on="1"/>
        <pt x="1085" y="928" on="0"/>
        <pt x="956" y="1065" on="0"/>
        <pt x="860" y="1065" on="1"/>
        <pt x="710" y="1065" on="0"/>
        <pt x="635" y="932" on="1"/>
        <pt x="625" y="912" on="0"/>
        <pt x="610" y="911" on="1"/>
        <pt x="502" y="911" on="1"/>
        <pt x="475" y="911" on="0"/>
        <pt x="481" y="936" on="1"/>
        <pt x="565" y="1198" on="0"/>
        <pt x="860" y="1198" on="1"/>
        <pt x="1030" y="1198" on="0"/>
        <pt x="1249" y="983" on="0"/>
        <pt x="1249" y="809" on="1"/>
        <pt x="1249" y="553" on="1"/>
        <pt x="1249" y="389" on="0"/>
        <pt x="1352" y="389" on="1"/>
        <pt x="1399" y="389" on="0"/>
        <pt x="1464" y="522" on="0"/>
        <pt x="1464" y="676" on="1"/>
        <pt x="1464" y="979" on="0"/>
        <pt x="1133" y="1331" on="0"/>
        <pt x="590" y="1331" on="0"/>
        <pt x="256" y="993" on="0"/>
        <pt x="256" y="440" on="0"/>
        <pt x="590" y="102" on="0"/>
        <pt x="860" y="102" on="1"/>
        <pt x="983" y="102" on="0"/>
        <pt x="1085" y="143" on="1"/>
        <pt x="1106" y="147" on="0"/>
        <pt x="1106" y="123" on="1"/>
        <pt x="1106" y="31" on="1"/>
        <pt x="1106" y="6" on="0"/>
        <pt x="1085" y="0" on="1"/>
        <pt x="993" y="-31" on="0"/>
        <pt x="860" y="-31" on="1"/>
        <pt x="534" y="-31" on="0"/>
      </contour>
      <contour>
        <pt x="625" y="598" on="0"/>
        <pt x="625" y="467" on="0"/>
        <pt x="723" y="389" on="0"/>
        <pt x="874" y="389" on="0"/>
        <pt x="969" y="422" on="0"/>
        <pt x="1026" y="469" on="0"/>
        <pt x="1048" y="494" on="1"/>
        <pt x="1085" y="539" on="0"/>
        <pt x="1085" y="553" on="1"/>
        <pt x="1085" y="676" on="1"/>
        <pt x="819" y="676" on="1"/>
        <pt x="723" y="676" on="0"/>
      </contour>
    </TTGlyph>
    <TTGlyph name="at.alt" xMin="123" yMin="-369" xMax="1966" yMax="1464">
      <contour>
        <pt x="649" y="-369" on="0"/>
        <pt x="123" y="125" on="0"/>
        <pt x="123" y="956" on="0"/>
        <pt x="643" y="1464" on="0"/>
        <pt x="1446" y="1464" on="0"/>
        <pt x="1966" y="956" on="0"/>
        <pt x="1966" y="553" on="1"/>
        <pt x="1966" y="0" on="0"/>
        <pt x="1628" y="0" on="1"/>
        <pt x="1427" y="0" on="0"/>
        <pt x="1348" y="147" on="1"/>
        <pt x="1331" y="184" on="1"/>
        <pt x="1322" y="166" on="0"/>
        <pt x="1239" y="88" on="0"/>
        <pt x="1163" y="39" on="0"/>
        <pt x="1038" y="0" on="0"/>
        <pt x="973" y="0" on="1"/>
        <pt x="778" y="0" on="0"/>
        <pt x="563" y="178" on="0"/>
        <pt x="563" y="473" on="0"/>
        <pt x="788" y="655" on="0"/>
        <pt x="973" y="655" on="1"/>
        <pt x="1300" y="655" on="1"/>
        <pt x="1300" y="666" on="1"/>
        <pt x="1300" y="803" on="0"/>
        <pt x="1159" y="952" on="0"/>
        <pt x="1034" y="952" on="1"/>
        <pt x="952" y="952" on="0"/>
        <pt x="823" y="860" on="0"/>
        <pt x="799" y="788" on="1"/>
        <pt x="793" y="768" on="0"/>
        <pt x="774" y="768" on="1"/>
        <pt x="645" y="768" on="1"/>
        <pt x="623" y="768" on="0"/>
        <pt x="625" y="788" on="1"/>
        <pt x="639" y="926" on="0"/>
        <pt x="864" y="1096" on="0"/>
        <pt x="1241" y="1096" on="0"/>
        <pt x="1485" y="864" on="0"/>
        <pt x="1485" y="666" on="1"/>
        <pt x="1485" y="317" on="1"/>
        <pt x="1485" y="143" on="0"/>
        <pt x="1628" y="143" on="1"/>
        <pt x="1802" y="143" on="0"/>
        <pt x="1802" y="553" on="1"/>
        <pt x="1802" y="905" on="0"/>
        <pt x="1374" y="1321" on="0"/>
        <pt x="715" y="1321" on="0"/>
        <pt x="287" y="905" on="0"/>
        <pt x="287" y="172" on="0"/>
        <pt x="709" y="-225" on="0"/>
        <pt x="1126" y="-225" on="1"/>
        <pt x="1341" y="-225" on="1"/>
        <pt x="1362" y="-225" on="0"/>
        <pt x="1362" y="-246" on="1"/>
        <pt x="1362" y="-348" on="1"/>
        <pt x="1362" y="-369" on="0"/>
        <pt x="1341" y="-369" on="1"/>
        <pt x="1126" y="-369" on="1"/>
      </contour>
      <contour>
        <pt x="748" y="328" on="1"/>
        <pt x="748" y="143" on="0"/>
        <pt x="983" y="143" on="1"/>
        <pt x="1125" y="143" on="0"/>
        <pt x="1244" y="295" on="1"/>
        <pt x="1300" y="366" on="0"/>
        <pt x="1300" y="379" on="1"/>
        <pt x="1300" y="512" on="1"/>
        <pt x="973" y="512" on="1"/>
        <pt x="872" y="512" on="0"/>
        <pt x="748" y="412" on="0"/>
      </contour>
    </TTGlyph>
    <TTGlyph name="atilde" xMin="123" yMin="-31" xMax="1106" yMax="1516">
      <contour>
        <pt x="123" y="156" on="0"/>
        <pt x="123" y="479" on="0"/>
        <pt x="360" y="666" on="0"/>
        <pt x="573" y="666" on="1"/>
        <pt x="922" y="666" on="1"/>
        <pt x="922" y="676" on="1"/>
        <pt x="922" y="983" on="0"/>
        <pt x="614" y="983" on="1"/>
        <pt x="518" y="983" on="0"/>
        <pt x="383" y="891" on="0"/>
        <pt x="358" y="819" on="1"/>
        <pt x="352" y="799" on="0"/>
        <pt x="334" y="799" on="1"/>
        <pt x="205" y="799" on="1"/>
        <pt x="182" y="799" on="0"/>
        <pt x="184" y="819" on="1"/>
        <pt x="200" y="958" on="0"/>
        <pt x="432" y="1126" on="0"/>
        <pt x="614" y="1126" on="1"/>
        <pt x="852" y="1126" on="0"/>
        <pt x="1106" y="891" on="0"/>
        <pt x="1106" y="676" on="1"/>
        <pt x="1106" y="20" on="1"/>
        <pt x="1106" y="0" on="0"/>
        <pt x="1085" y="0" on="1"/>
        <pt x="973" y="0" on="1"/>
        <pt x="953" y="0" on="0"/>
        <pt x="950" y="20" on="1"/>
        <pt x="932" y="133" on="1"/>
        <pt x="920" y="114" on="0"/>
        <pt x="838" y="47" on="0"/>
        <pt x="797" y="26" on="1"/>
        <pt x="689" y="-31" on="0"/>
        <pt x="553" y="-31" on="1"/>
        <pt x="354" y="-31" on="0"/>
      </contour>
      <contour>
        <pt x="307" y="317" on="1"/>
        <pt x="307" y="217" on="0"/>
        <pt x="440" y="113" on="0"/>
        <pt x="563" y="113" on="1"/>
        <pt x="629" y="113" on="0"/>
        <pt x="752" y="158" on="0"/>
        <pt x="831" y="219" on="0"/>
        <pt x="893" y="283" on="0"/>
        <pt x="922" y="326" on="0"/>
        <pt x="922" y="328" on="1"/>
        <pt x="922" y="522" on="1"/>
        <pt x="573" y="522" on="1"/>
        <pt x="307" y="522" on="0"/>
      </contour>
      <contour>
        <pt x="322" y="1264" on="1"/>
        <pt x="351" y="1516" on="0"/>
        <pt x="516" y="1516" on="1"/>
        <pt x="565" y="1516" on="0"/>
        <pt x="651" y="1450" on="0"/>
        <pt x="717" y="1382" on="0"/>
        <pt x="741" y="1382" on="1"/>
        <pt x="798" y="1382" on="0"/>
        <pt x="819" y="1485" on="1"/>
        <pt x="821" y="1505" on="0"/>
        <pt x="844" y="1505" on="1"/>
        <pt x="926" y="1505" on="1"/>
        <pt x="951" y="1505" on="0"/>
        <pt x="946" y="1481" on="1"/>
        <pt x="917" y="1229" on="0"/>
        <pt x="752" y="1229" on="1"/>
        <pt x="678" y="1229" on="0"/>
        <pt x="584" y="1328" on="1"/>
        <pt x="551" y="1362" on="0"/>
        <pt x="526" y="1362" on="1"/>
        <pt x="469" y="1362" on="0"/>
        <pt x="449" y="1260" on="1"/>
        <pt x="447" y="1240" on="0"/>
        <pt x="424" y="1239" on="1"/>
        <pt x="342" y="1239" on="1"/>
        <pt x="318" y="1239" on="0"/>
      </contour>
    </TTGlyph>
    <TTGlyph name="b" xMin="205" yMin="-31" xMax="1219" yMax="1434">
      <contour>
        <pt x="205" y="92" on="1"/>
        <pt x="205" y="1413" on="1"/>
        <pt x="205" y="1433" on="0"/>
        <pt x="225" y="1434" on="1"/>
        <pt x="369" y="1434" on="1"/>
        <pt x="389" y="1434" on="0"/>
        <pt x="389" y="1413" on="1"/>
        <pt x="389" y="1065" on="1"/>
        <pt x="522" y="1126" on="0"/>
        <pt x="696" y="1126" on="1"/>
        <pt x="927" y="1126" on="0"/>
        <pt x="1219" y="827" on="0"/>
        <pt x="1219" y="270" on="0"/>
        <pt x="926" y="-31" on="0"/>
        <pt x="686" y="-31" on="1"/>
        <pt x="555" y="-31" on="0"/>
        <pt x="313" y="31" on="0"/>
        <pt x="258" y="61" on="1"/>
      </contour>
      <contour>
        <pt x="389" y="174" on="1"/>
        <pt x="389" y="172" on="0"/>
        <pt x="459" y="143" on="0"/>
        <pt x="598" y="113" on="0"/>
        <pt x="666" y="113" on="1"/>
        <pt x="836" y="113" on="0"/>
        <pt x="1034" y="332" on="0"/>
        <pt x="1034" y="766" on="0"/>
        <pt x="838" y="983" on="0"/>
        <pt x="522" y="983" on="0"/>
        <pt x="389" y="922" on="1"/>
      </contour>
    </TTGlyph>
    <TTGlyph name="backslash" xMin="45" yMin="0" xMax="834" yMax="1434">
      <contour>
        <pt x="45" y="1413" on="1"/>
        <pt x="35" y="1434" on="0"/>
        <pt x="55" y="1434" on="1"/>
        <pt x="199" y="1434" on="1"/>
        <pt x="219" y="1434" on="0"/>
        <pt x="229" y="1413" on="1"/>
        <pt x="834" y="20" on="1"/>
        <pt x="844" y="0" on="0"/>
        <pt x="823" y="0" on="1"/>
        <pt x="680" y="0" on="1"/>
        <pt x="659" y="0" on="0"/>
        <pt x="649" y="20" on="1"/>
      </contour>
    </TTGlyph>
    <TTGlyph name="bar" xMin="205" yMin="-338" xMax="389" yMax="1434">
      <contour>
        <pt x="205" y="-317" on="1"/>
        <pt x="205" y="1413" on="1"/>
        <pt x="205" y="1434" on="0"/>
        <pt x="225" y="1434" on="1"/>
        <pt x="369" y="1434" on="1"/>
        <pt x="389" y="1434" on="0"/>
        <pt x="389" y="1413" on="1"/>
        <pt x="389" y="-317" on="1"/>
        <pt x="389" y="-338" on="0"/>
        <pt x="369" y="-338" on="1"/>
        <pt x="225" y="-338" on="1"/>
        <pt x="205" y="-338" on="0"/>
      </contour>
    </TTGlyph>
    <TTGlyph name="braceleft" xMin="41" yMin="-338" xMax="725" yMax="1505">
      <contour>
        <pt x="41" y="532" on="1"/>
        <pt x="41" y="635" on="1"/>
        <pt x="41" y="655" on="0"/>
        <pt x="61" y="655" on="1"/>
        <pt x="152" y="655" on="0"/>
        <pt x="266" y="774" on="0"/>
        <pt x="266" y="891" on="1"/>
        <pt x="266" y="1126" on="1"/>
        <pt x="266" y="1307" on="0"/>
        <pt x="487" y="1505" on="0"/>
        <pt x="676" y="1505" on="1"/>
        <pt x="705" y="1505" on="1"/>
        <pt x="725" y="1505" on="0"/>
        <pt x="725" y="1485" on="1"/>
        <pt x="725" y="1382" on="1"/>
        <pt x="725" y="1362" on="0"/>
        <pt x="705" y="1362" on="1"/>
        <pt x="676" y="1362" on="1"/>
        <pt x="571" y="1362" on="0"/>
        <pt x="451" y="1245" on="0"/>
        <pt x="451" y="1126" on="1"/>
        <pt x="451" y="891" on="1"/>
        <pt x="451" y="776" on="0"/>
        <pt x="342" y="606" on="0"/>
        <pt x="256" y="584" on="1"/>
        <pt x="342" y="561" on="0"/>
        <pt x="451" y="391" on="0"/>
        <pt x="451" y="276" on="1"/>
        <pt x="451" y="41" on="1"/>
        <pt x="451" y="-78" on="0"/>
        <pt x="571" y="-195" on="0"/>
        <pt x="676" y="-195" on="1"/>
        <pt x="705" y="-195" on="1"/>
        <pt x="725" y="-195" on="0"/>
        <pt x="725" y="-215" on="1"/>
        <pt x="725" y="-317" on="1"/>
        <pt x="725" y="-338" on="0"/>
        <pt x="705" y="-338" on="1"/>
        <pt x="676" y="-338" on="1"/>
        <pt x="487" y="-338" on="0"/>
        <pt x="266" y="-139" on="0"/>
        <pt x="266" y="41" on="1"/>
        <pt x="266" y="276" on="1"/>
        <pt x="266" y="393" on="0"/>
        <pt x="152" y="512" on="0"/>
        <pt x="61" y="512" on="1"/>
        <pt x="41" y="512" on="0"/>
      </contour>
    </TTGlyph>
    <TTGlyph name="braceright" xMin="0" yMin="-338" xMax="684" yMax="1505">
      <contour>
        <pt x="0" y="-215" on="1"/>
        <pt x="0" y="-195" on="0"/>
        <pt x="20" y="-195" on="1"/>
        <pt x="49" y="-195" on="1"/>
        <pt x="154" y="-195" on="0"/>
        <pt x="274" y="-78" on="0"/>
        <pt x="274" y="41" on="1"/>
        <pt x="274" y="276" on="1"/>
        <pt x="274" y="391" on="0"/>
        <pt x="383" y="561" on="0"/>
        <pt x="469" y="584" on="1"/>
        <pt x="383" y="606" on="0"/>
        <pt x="274" y="776" on="0"/>
        <pt x="274" y="891" on="1"/>
        <pt x="274" y="1126" on="1"/>
        <pt x="274" y="1245" on="0"/>
        <pt x="154" y="1362" on="0"/>
        <pt x="49" y="1362" on="1"/>
        <pt x="20" y="1362" on="1"/>
        <pt x="0" y="1362" on="0"/>
        <pt x="0" y="1382" on="1"/>
        <pt x="0" y="1485" on="1"/>
        <pt x="0" y="1505" on="0"/>
        <pt x="20" y="1505" on="1"/>
        <pt x="49" y="1505" on="1"/>
        <pt x="238" y="1505" on="0"/>
        <pt x="459" y="1307" on="0"/>
        <pt x="459" y="1126" on="1"/>
        <pt x="459" y="891" on="1"/>
        <pt x="459" y="774" on="0"/>
        <pt x="573" y="655" on="0"/>
        <pt x="664" y="655" on="1"/>
        <pt x="684" y="655" on="0"/>
        <pt x="684" y="635" on="1"/>
        <pt x="684" y="532" on="1"/>
        <pt x="684" y="512" on="0"/>
        <pt x="664" y="512" on="1"/>
        <pt x="573" y="512" on="0"/>
        <pt x="459" y="393" on="0"/>
        <pt x="459" y="276" on="1"/>
        <pt x="459" y="41" on="1"/>
        <pt x="459" y="-139" on="0"/>
        <pt x="238" y="-338" on="0"/>
        <pt x="49" y="-338" on="1"/>
        <pt x="20" y="-338" on="1"/>
        <pt x="0" y="-338" on="0"/>
        <pt x="0" y="-317" on="1"/>
      </contour>
    </TTGlyph>
    <TTGlyph name="bracketleft" xMin="205" yMin="-338" xMax="684" yMax="1505">
      <contour>
        <pt x="205" y="-317" on="1"/>
        <pt x="205" y="1485" on="1"/>
        <pt x="205" y="1505" on="0"/>
        <pt x="225" y="1505" on="1"/>
        <pt x="664" y="1505" on="1"/>
        <pt x="684" y="1505" on="0"/>
        <pt x="684" y="1485" on="1"/>
        <pt x="684" y="1382" on="1"/>
        <pt x="684" y="1362" on="0"/>
        <pt x="664" y="1362" on="1"/>
        <pt x="389" y="1362" on="1"/>
        <pt x="389" y="-195" on="1"/>
        <pt x="664" y="-195" on="1"/>
        <pt x="684" y="-195" on="0"/>
        <pt x="684" y="-215" on="1"/>
        <pt x="684" y="-317" on="1"/>
        <pt x="684" y="-337" on="0"/>
        <pt x="664" y="-338" on="1"/>
        <pt x="225" y="-338" on="1"/>
        <pt x="205" y="-337" on="0"/>
      </contour>
    </TTGlyph>
    <TTGlyph name="bracketright" xMin="0" yMin="-338" xMax="520" yMax="1505">
      <contour>
        <pt x="0" y="-215" on="1"/>
        <pt x="0" y="-195" on="0"/>
        <pt x="20" y="-195" on="1"/>
        <pt x="336" y="-195" on="1"/>
        <pt x="336" y="1362" on="1"/>
        <pt x="20" y="1362" on="1"/>
        <pt x="0" y="1362" on="0"/>
        <pt x="0" y="1382" on="1"/>
        <pt x="0" y="1485" on="1"/>
        <pt x="0" y="1505" on="0"/>
        <pt x="20" y="1505" on="1"/>
        <pt x="500" y="1505" on="1"/>
        <pt x="520" y="1505" on="0"/>
        <pt x="520" y="1485" on="1"/>
        <pt x="520" y="-317" on="1"/>
        <pt x="520" y="-338" on="0"/>
        <pt x="500" y="-338" on="1"/>
        <pt x="20" y="-338" on="1"/>
        <pt x="0" y="-338" on="0"/>
        <pt x="0" y="-317" on="1"/>
      </contour>
    </TTGlyph>
    <TTGlyph name="brokenbar" xMin="205" yMin="-338" xMax="389" yMax="1434">
      <contour>
        <pt x="205" y="-317" on="1"/>
        <pt x="205" y="399" on="1"/>
        <pt x="205" y="420" on="0"/>
        <pt x="225" y="420" on="1"/>
        <pt x="369" y="420" on="1"/>
        <pt x="389" y="420" on="0"/>
        <pt x="389" y="399" on="1"/>
        <pt x="389" y="-317" on="1"/>
        <pt x="389" y="-338" on="0"/>
        <pt x="369" y="-338" on="1"/>
        <pt x="225" y="-338" on="1"/>
        <pt x="205" y="-338" on="0"/>
      </contour>
      <contour>
        <pt x="205" y="696" on="1"/>
        <pt x="205" y="1413" on="1"/>
        <pt x="205" y="1434" on="0"/>
        <pt x="225" y="1434" on="1"/>
        <pt x="369" y="1434" on="1"/>
        <pt x="389" y="1434" on="0"/>
        <pt x="389" y="1413" on="1"/>
        <pt x="389" y="696" on="1"/>
        <pt x="389" y="676" on="0"/>
        <pt x="369" y="676" on="1"/>
        <pt x="225" y="676" on="1"/>
        <pt x="205" y="676" on="0"/>
      </contour>
    </TTGlyph>
    <TTGlyph name="bullet" xMin="205" yMin="471" xMax="696" yMax="963">
      <contour>
        <pt x="205" y="616" on="0"/>
        <pt x="205" y="817" on="0"/>
        <pt x="350" y="963" on="0"/>
        <pt x="551" y="963" on="0"/>
        <pt x="696" y="817" on="0"/>
        <pt x="696" y="616" on="0"/>
        <pt x="551" y="471" on="0"/>
        <pt x="350" y="471" on="0"/>
      </contour>
    </TTGlyph>
    <TTGlyph name="c" xMin="123" yMin="-31" xMax="1158" yMax="1126">
      <contour>
        <pt x="415" y="-31" on="0"/>
        <pt x="123" y="270" on="0"/>
        <pt x="123" y="829" on="0"/>
        <pt x="416" y="1126" on="0"/>
        <pt x="858" y="1126" on="0"/>
        <pt x="1108" y="944" on="0"/>
        <pt x="1147" y="782" on="1"/>
        <pt x="1153" y="757" on="0"/>
        <pt x="1126" y="758" on="1"/>
        <pt x="997" y="758" on="1"/>
        <pt x="983" y="758" on="0"/>
        <pt x="973" y="778" on="1"/>
        <pt x="879" y="983" on="0"/>
        <pt x="655" y="983" on="1"/>
        <pt x="499" y="983" on="0"/>
        <pt x="307" y="766" on="0"/>
        <pt x="307" y="334" on="0"/>
        <pt x="500" y="113" on="0"/>
        <pt x="780" y="113" on="0"/>
        <pt x="934" y="215" on="0"/>
        <pt x="983" y="317" on="1"/>
        <pt x="993" y="337" on="0"/>
        <pt x="1008" y="338" on="1"/>
        <pt x="1137" y="338" on="1"/>
        <pt x="1159" y="338" on="0"/>
        <pt x="1158" y="322" on="1"/>
        <pt x="1158" y="318" on="0"/>
        <pt x="1157" y="313" on="1"/>
        <pt x="1118" y="149" on="0"/>
        <pt x="864" y="-31" on="0"/>
      </contour>
    </TTGlyph>
    <TTGlyph name="caron" xMin="4" yMin="1126" xMax="606" yMax="1434">
      <contour>
        <pt x="4" y="1413" on="1"/>
        <pt x="-10" y="1433" on="0"/>
        <pt x="14" y="1434" on="1"/>
        <pt x="113" y="1434" on="1"/>
        <pt x="127" y="1434" on="0"/>
        <pt x="147" y="1413" on="1"/>
        <pt x="305" y="1249" on="1"/>
        <pt x="463" y="1413" on="1"/>
        <pt x="483" y="1433" on="0"/>
        <pt x="498" y="1434" on="1"/>
        <pt x="596" y="1434" on="1"/>
        <pt x="621" y="1434" on="0"/>
        <pt x="606" y="1413" on="1"/>
        <pt x="459" y="1188" on="1"/>
        <pt x="416" y="1126" on="0"/>
        <pt x="377" y="1126" on="1"/>
        <pt x="233" y="1126" on="1"/>
        <pt x="199" y="1126" on="0"/>
        <pt x="168" y="1165" on="0"/>
        <pt x="152" y="1188" on="1"/>
      </contour>
    </TTGlyph>
    <TTGlyph name="ccedilla" xMin="123" yMin="-451" xMax="1157" yMax="1126">
      <contour>
        <pt x="344" y="17" on="0"/>
        <pt x="123" y="309" on="0"/>
        <pt x="123" y="829" on="0"/>
        <pt x="416" y="1126" on="0"/>
        <pt x="858" y="1126" on="0"/>
        <pt x="1108" y="944" on="0"/>
        <pt x="1147" y="782" on="1"/>
        <pt x="1153" y="757" on="0"/>
        <pt x="1126" y="758" on="1"/>
        <pt x="997" y="758" on="1"/>
        <pt x="983" y="758" on="0"/>
        <pt x="973" y="778" on="1"/>
        <pt x="879" y="983" on="0"/>
        <pt x="655" y="983" on="1"/>
        <pt x="499" y="983" on="0"/>
        <pt x="307" y="766" on="0"/>
        <pt x="307" y="334" on="0"/>
        <pt x="500" y="113" on="0"/>
        <pt x="780" y="113" on="0"/>
        <pt x="934" y="215" on="0"/>
        <pt x="983" y="317" on="1"/>
        <pt x="993" y="337" on="0"/>
        <pt x="1008" y="338" on="1"/>
        <pt x="1137" y="338" on="1"/>
        <pt x="1164" y="338" on="0"/>
        <pt x="1157" y="313" on="1"/>
        <pt x="1073" y="-23" on="0"/>
        <pt x="676" y="-31" on="1"/>
        <pt x="676" y="-82" on="1"/>
        <pt x="795" y="-82" on="0"/>
        <pt x="922" y="-186" on="0"/>
        <pt x="922" y="-348" on="0"/>
        <pt x="786" y="-451" on="0"/>
        <pt x="655" y="-451" on="1"/>
        <pt x="522" y="-451" on="1"/>
        <pt x="502" y="-451" on="0"/>
        <pt x="502" y="-430" on="1"/>
        <pt x="502" y="-358" on="1"/>
        <pt x="502" y="-338" on="0"/>
        <pt x="522" y="-338" on="1"/>
        <pt x="655" y="-338" on="1"/>
        <pt x="778" y="-338" on="0"/>
        <pt x="778" y="-195" on="0"/>
        <pt x="676" y="-195" on="1"/>
        <pt x="553" y="-195" on="1"/>
        <pt x="533" y="-195" on="0"/>
        <pt x="532" y="-174" on="1"/>
        <pt x="532" y="-18" on="1"/>
      </contour>
    </TTGlyph>
    <TTGlyph name="cedilla" xMin="0" yMin="-440" xMax="420" yMax="72">
      <contour>
        <pt x="0" y="-348" on="1"/>
        <pt x="0" y="-328" on="0"/>
        <pt x="20" y="-328" on="1"/>
        <pt x="154" y="-328" on="1"/>
        <pt x="276" y="-328" on="0"/>
        <pt x="276" y="-184" on="0"/>
        <pt x="174" y="-184" on="1"/>
        <pt x="51" y="-184" on="1"/>
        <pt x="31" y="-184" on="0"/>
        <pt x="31" y="-164" on="1"/>
        <pt x="31" y="51" on="1"/>
        <pt x="31" y="72" on="0"/>
        <pt x="51" y="72" on="1"/>
        <pt x="154" y="72" on="1"/>
        <pt x="174" y="72" on="0"/>
        <pt x="174" y="51" on="1"/>
        <pt x="174" y="-72" on="1"/>
        <pt x="293" y="-72" on="0"/>
        <pt x="420" y="-176" on="0"/>
        <pt x="420" y="-338" on="0"/>
        <pt x="285" y="-440" on="0"/>
        <pt x="154" y="-440" on="1"/>
        <pt x="20" y="-440" on="1"/>
        <pt x="0" y="-440" on="0"/>
        <pt x="0" y="-420" on="1"/>
      </contour>
    </TTGlyph>
    <TTGlyph name="cent" xMin="123" yMin="-205" xMax="1157" yMax="1300">
      <contour>
        <pt x="360" y="2" on="0"/>
        <pt x="123" y="299" on="0"/>
        <pt x="123" y="801" on="0"/>
        <pt x="360" y="1092" on="0"/>
        <pt x="563" y="1120" on="1"/>
        <pt x="563" y="1280" on="1"/>
        <pt x="563" y="1300" on="0"/>
        <pt x="584" y="1300" on="1"/>
        <pt x="727" y="1300" on="1"/>
        <pt x="747" y="1300" on="0"/>
        <pt x="748" y="1280" on="1"/>
        <pt x="748" y="1120" on="1"/>
        <pt x="910" y="1100" on="0"/>
        <pt x="1112" y="926" on="0"/>
        <pt x="1147" y="782" on="1"/>
        <pt x="1153" y="757" on="0"/>
        <pt x="1126" y="758" on="1"/>
        <pt x="997" y="758" on="1"/>
        <pt x="983" y="758" on="0"/>
        <pt x="973" y="778" on="1"/>
        <pt x="879" y="983" on="0"/>
        <pt x="655" y="983" on="1"/>
        <pt x="499" y="983" on="0"/>
        <pt x="307" y="766" on="0"/>
        <pt x="307" y="334" on="0"/>
        <pt x="500" y="113" on="0"/>
        <pt x="780" y="113" on="0"/>
        <pt x="934" y="215" on="0"/>
        <pt x="983" y="317" on="1"/>
        <pt x="993" y="337" on="0"/>
        <pt x="1008" y="338" on="1"/>
        <pt x="1137" y="338" on="1"/>
        <pt x="1164" y="338" on="0"/>
        <pt x="1157" y="313" on="1"/>
        <pt x="1085" y="12" on="0"/>
        <pt x="748" y="-25" on="1"/>
        <pt x="748" y="-184" on="1"/>
        <pt x="748" y="-204" on="0"/>
        <pt x="727" y="-205" on="1"/>
        <pt x="584" y="-205" on="1"/>
        <pt x="564" y="-205" on="0"/>
        <pt x="563" y="-184" on="1"/>
        <pt x="563" y="-25" on="1"/>
      </contour>
    </TTGlyph>
    <TTGlyph name="circumflex" xMin="4" yMin="1126" xMax="606" yMax="1434">
      <contour>
        <pt x="4" y="1147" on="1"/>
        <pt x="152" y="1372" on="1"/>
        <pt x="180" y="1413" on="0"/>
        <pt x="215" y="1434" on="0"/>
        <pt x="233" y="1434" on="1"/>
        <pt x="377" y="1434" on="1"/>
        <pt x="411" y="1434" on="0"/>
        <pt x="442" y="1395" on="0"/>
        <pt x="459" y="1372" on="1"/>
        <pt x="606" y="1147" on="1"/>
        <pt x="620" y="1127" on="0"/>
        <pt x="596" y="1126" on="1"/>
        <pt x="498" y="1126" on="1"/>
        <pt x="484" y="1126" on="0"/>
        <pt x="463" y="1147" on="1"/>
        <pt x="305" y="1311" on="1"/>
        <pt x="147" y="1147" on="1"/>
        <pt x="127" y="1127" on="0"/>
        <pt x="113" y="1126" on="1"/>
        <pt x="14" y="1126" on="1"/>
        <pt x="-10" y="1127" on="0"/>
      </contour>
    </TTGlyph>
    <TTGlyph name="colon" xMin="143" yMin="-10" xMax="358" yMax="1106">
      <contour>
        <pt x="143" y="164" on="1"/>
        <pt x="143" y="205" on="0"/>
        <pt x="184" y="205" on="1"/>
        <pt x="317" y="205" on="1"/>
        <pt x="340" y="205" on="0"/>
        <pt x="358" y="186" on="0"/>
        <pt x="358" y="164" on="1"/>
        <pt x="358" y="31" on="1"/>
        <pt x="358" y="8" on="0"/>
        <pt x="340" y="-10" on="0"/>
        <pt x="317" y="-10" on="1"/>
        <pt x="184" y="-10" on="1"/>
        <pt x="162" y="-10" on="0"/>
        <pt x="143" y="8" on="0"/>
        <pt x="143" y="31" on="1"/>
      </contour>
      <contour>
        <pt x="143" y="1065" on="1"/>
        <pt x="143" y="1106" on="0"/>
        <pt x="184" y="1106" on="1"/>
        <pt x="317" y="1106" on="1"/>
        <pt x="340" y="1106" on="0"/>
        <pt x="358" y="1087" on="0"/>
        <pt x="358" y="1065" on="1"/>
        <pt x="358" y="932" on="1"/>
        <pt x="358" y="909" on="0"/>
        <pt x="340" y="891" on="0"/>
        <pt x="317" y="891" on="1"/>
        <pt x="184" y="891" on="1"/>
        <pt x="162" y="891" on="0"/>
        <pt x="143" y="909" on="0"/>
        <pt x="143" y="932" on="1"/>
      </contour>
    </TTGlyph>
    <TTGlyph name="comma" xMin="143" yMin="-225" xMax="358" yMax="205">
      <contour>
        <pt x="143" y="164" on="1"/>
        <pt x="143" y="205" on="0"/>
        <pt x="184" y="205" on="1"/>
        <pt x="317" y="205" on="1"/>
        <pt x="340" y="205" on="0"/>
        <pt x="358" y="186" on="0"/>
        <pt x="358" y="164" on="1"/>
        <pt x="358" y="41" on="1"/>
        <pt x="358" y="4" on="0"/>
        <pt x="338" y="-31" on="1"/>
        <pt x="225" y="-225" on="1"/>
        <pt x="143" y="-225" on="1"/>
        <pt x="238" y="-10" on="1"/>
        <pt x="184" y="-10" on="1"/>
        <pt x="162" y="-10" on="0"/>
        <pt x="143" y="8" on="0"/>
        <pt x="143" y="31" on="1"/>
      </contour>
    </TTGlyph>
    <TTGlyph name="copyright" xMin="102" yMin="-31" xMax="1618" yMax="1464">
      <contour>
        <pt x="102" y="389" on="0"/>
        <pt x="102" y="1044" on="0"/>
        <pt x="535" y="1464" on="0"/>
        <pt x="1186" y="1464" on="0"/>
        <pt x="1618" y="1044" on="0"/>
        <pt x="1618" y="389" on="0"/>
        <pt x="1186" y="-31" on="0"/>
        <pt x="535" y="-31" on="0"/>
      </contour>
      <contour>
        <pt x="256" y="993" on="0"/>
        <pt x="256" y="440" on="0"/>
        <pt x="590" y="102" on="0"/>
        <pt x="1130" y="102" on="0"/>
        <pt x="1464" y="440" on="0"/>
        <pt x="1464" y="993" on="0"/>
        <pt x="1130" y="1331" on="0"/>
        <pt x="590" y="1331" on="0"/>
      </contour>
      <contour>
        <pt x="440" y="508" on="0"/>
        <pt x="440" y="946" on="0"/>
        <pt x="672" y="1198" on="0"/>
        <pt x="860" y="1198" on="1"/>
        <pt x="1155" y="1198" on="0"/>
        <pt x="1239" y="936" on="1"/>
        <pt x="1245" y="911" on="0"/>
        <pt x="1219" y="911" on="1"/>
        <pt x="1110" y="911" on="1"/>
        <pt x="1096" y="911" on="0"/>
        <pt x="1085" y="932" on="1"/>
        <pt x="1009" y="1065" on="0"/>
        <pt x="860" y="1065" on="1"/>
        <pt x="747" y="1065" on="0"/>
        <pt x="604" y="889" on="0"/>
        <pt x="604" y="565" on="0"/>
        <pt x="748" y="389" on="0"/>
        <pt x="860" y="389" on="1"/>
        <pt x="1020" y="389" on="0"/>
        <pt x="1096" y="522" on="1"/>
        <pt x="1106" y="542" on="0"/>
        <pt x="1120" y="543" on="1"/>
        <pt x="1229" y="543" on="1"/>
        <pt x="1256" y="543" on="0"/>
        <pt x="1249" y="518" on="1"/>
        <pt x="1165" y="256" on="0"/>
        <pt x="860" y="256" on="1"/>
        <pt x="672" y="256" on="0"/>
      </contour>
    </TTGlyph>
    <TTGlyph name="copyright.alt" xMin="123" yMin="-369" xMax="1966" yMax="1464">
      <contour>
        <pt x="641" y="-369" on="0"/>
        <pt x="123" y="141" on="0"/>
        <pt x="123" y="956" on="0"/>
        <pt x="643" y="1464" on="0"/>
        <pt x="1446" y="1464" on="0"/>
        <pt x="1966" y="956" on="0"/>
        <pt x="1966" y="141" on="0"/>
        <pt x="1448" y="-369" on="0"/>
      </contour>
      <contour>
        <pt x="715" y="1321" on="0"/>
        <pt x="287" y="905" on="0"/>
        <pt x="287" y="193" on="0"/>
        <pt x="713" y="-225" on="0"/>
        <pt x="1376" y="-225" on="0"/>
        <pt x="1802" y="193" on="0"/>
        <pt x="1802" y="905" on="0"/>
        <pt x="1374" y="1321" on="0"/>
      </contour>
      <contour>
        <pt x="821" y="0" on="0"/>
        <pt x="532" y="293" on="0"/>
        <pt x="532" y="807" on="0"/>
        <pt x="821" y="1096" on="0"/>
        <pt x="1233" y="1096" on="0"/>
        <pt x="1477" y="913" on="0"/>
        <pt x="1516" y="752" on="1"/>
        <pt x="1522" y="727" on="0"/>
        <pt x="1495" y="727" on="1"/>
        <pt x="1366" y="727" on="1"/>
        <pt x="1352" y="727" on="0"/>
        <pt x="1341" y="748" on="1"/>
        <pt x="1247" y="952" on="0"/>
        <pt x="1044" y="952" on="1"/>
        <pt x="905" y="952" on="0"/>
        <pt x="717" y="743" on="0"/>
        <pt x="717" y="356" on="0"/>
        <pt x="905" y="143" on="0"/>
        <pt x="1044" y="143" on="1"/>
        <pt x="1255" y="143" on="0"/>
        <pt x="1352" y="348" on="1"/>
        <pt x="1362" y="369" on="0"/>
        <pt x="1376" y="369" on="1"/>
        <pt x="1505" y="369" on="1"/>
        <pt x="1532" y="369" on="0"/>
        <pt x="1526" y="344" on="1"/>
        <pt x="1487" y="182" on="0"/>
        <pt x="1241" y="0" on="0"/>
      </contour>
    </TTGlyph>
    <TTGlyph name="currency" xMin="61" yMin="0" xMax="1362" yMax="1434">
      <contour>
        <pt x="61" y="369" on="1"/>
        <pt x="61" y="451" on="1"/>
        <pt x="61" y="471" on="0"/>
        <pt x="82" y="471" on="1"/>
        <pt x="215" y="471" on="1"/>
        <pt x="215" y="594" on="1"/>
        <pt x="82" y="594" on="1"/>
        <pt x="61" y="594" on="0"/>
        <pt x="61" y="614" on="1"/>
        <pt x="61" y="696" on="1"/>
        <pt x="61" y="717" on="0"/>
        <pt x="82" y="717" on="1"/>
        <pt x="215" y="717" on="1"/>
        <pt x="215" y="1413" on="1"/>
        <pt x="215" y="1434" on="0"/>
        <pt x="236" y="1434" on="1"/>
        <pt x="829" y="1434" on="1"/>
        <pt x="1081" y="1434" on="0"/>
        <pt x="1362" y="1208" on="0"/>
        <pt x="1362" y="819" on="0"/>
        <pt x="1081" y="594" on="0"/>
        <pt x="829" y="594" on="1"/>
        <pt x="399" y="594" on="1"/>
        <pt x="399" y="471" on="1"/>
        <pt x="922" y="471" on="1"/>
        <pt x="942" y="471" on="0"/>
        <pt x="942" y="451" on="1"/>
        <pt x="942" y="369" on="1"/>
        <pt x="942" y="348" on="0"/>
        <pt x="922" y="348" on="1"/>
        <pt x="399" y="348" on="1"/>
        <pt x="399" y="20" on="1"/>
        <pt x="399" y="0" on="0"/>
        <pt x="379" y="0" on="1"/>
        <pt x="236" y="0" on="1"/>
        <pt x="215" y="0" on="0"/>
        <pt x="215" y="20" on="1"/>
        <pt x="215" y="348" on="1"/>
        <pt x="82" y="348" on="1"/>
        <pt x="61" y="348" on="0"/>
      </contour>
      <contour>
        <pt x="399" y="717" on="1"/>
        <pt x="829" y="717" on="1"/>
        <pt x="983" y="717" on="0"/>
        <pt x="1178" y="881" on="0"/>
        <pt x="1178" y="1126" on="0"/>
        <pt x="983" y="1290" on="0"/>
        <pt x="829" y="1290" on="1"/>
        <pt x="399" y="1290" on="1"/>
      </contour>
    </TTGlyph>
    <TTGlyph name="d" xMin="123" yMin="-31" xMax="1137" yMax="1434">
      <contour>
        <pt x="406" y="-31" on="0"/>
        <pt x="123" y="266" on="0"/>
        <pt x="123" y="827" on="0"/>
        <pt x="414" y="1126" on="0"/>
        <pt x="645" y="1126" on="1"/>
        <pt x="723" y="1126" on="0"/>
        <pt x="877" y="1096" on="0"/>
        <pt x="913" y="1081" on="1"/>
        <pt x="952" y="1065" on="1"/>
        <pt x="952" y="1413" on="1"/>
        <pt x="952" y="1433" on="0"/>
        <pt x="973" y="1434" on="1"/>
        <pt x="1116" y="1434" on="1"/>
        <pt x="1136" y="1434" on="0"/>
        <pt x="1137" y="1413" on="1"/>
        <pt x="1137" y="20" on="1"/>
        <pt x="1137" y="0" on="0"/>
        <pt x="1116" y="0" on="1"/>
        <pt x="1004" y="0" on="1"/>
        <pt x="984" y="0" on="0"/>
        <pt x="981" y="20" on="1"/>
        <pt x="963" y="133" on="1"/>
        <pt x="951" y="116" on="0"/>
        <pt x="872" y="47" on="0"/>
        <pt x="836" y="26" on="1"/>
        <pt x="743" y="-31" on="0"/>
        <pt x="625" y="-31" on="1"/>
      </contour>
      <contour>
        <pt x="504" y="983" on="0"/>
        <pt x="307" y="766" on="0"/>
        <pt x="307" y="334" on="0"/>
        <pt x="487" y="113" on="0"/>
        <pt x="635" y="113" on="1"/>
        <pt x="775" y="113" on="0"/>
        <pt x="896" y="251" on="1"/>
        <pt x="952" y="315" on="0"/>
        <pt x="952" y="328" on="1"/>
        <pt x="952" y="922" on="1"/>
        <pt x="819" y="983" on="0"/>
      </contour>
    </TTGlyph>
    <TTGlyph name="dagger" xMin="82" yMin="-340" xMax="1004" yMax="1434">
      <contour>
        <pt x="82" y="840" on="1"/>
        <pt x="82" y="942" on="1"/>
        <pt x="82" y="962" on="0"/>
        <pt x="102" y="963" on="1"/>
        <pt x="451" y="963" on="1"/>
        <pt x="451" y="1413" on="1"/>
        <pt x="451" y="1433" on="0"/>
        <pt x="471" y="1434" on="1"/>
        <pt x="614" y="1434" on="1"/>
        <pt x="634" y="1434" on="0"/>
        <pt x="635" y="1413" on="1"/>
        <pt x="635" y="963" on="1"/>
        <pt x="983" y="963" on="1"/>
        <pt x="1003" y="963" on="0"/>
        <pt x="1004" y="942" on="1"/>
        <pt x="1004" y="840" on="1"/>
        <pt x="1004" y="820" on="0"/>
        <pt x="983" y="819" on="1"/>
        <pt x="635" y="819" on="1"/>
        <pt x="635" y="-319" on="1"/>
        <pt x="635" y="-339" on="0"/>
        <pt x="614" y="-340" on="1"/>
        <pt x="471" y="-340" on="1"/>
        <pt x="451" y="-340" on="0"/>
        <pt x="451" y="-319" on="1"/>
        <pt x="451" y="819" on="1"/>
        <pt x="102" y="819" on="1"/>
        <pt x="82" y="820" on="0"/>
      </contour>
    </TTGlyph>
    <TTGlyph name="daggerdbl" xMin="82" yMin="-340" xMax="1004" yMax="1434">
      <contour>
        <pt x="82" y="90" on="1"/>
        <pt x="82" y="193" on="1"/>
        <pt x="82" y="213" on="0"/>
        <pt x="102" y="213" on="1"/>
        <pt x="451" y="213" on="1"/>
        <pt x="451" y="881" on="1"/>
        <pt x="102" y="881" on="1"/>
        <pt x="82" y="881" on="0"/>
        <pt x="82" y="901" on="1"/>
        <pt x="82" y="1004" on="1"/>
        <pt x="82" y="1024" on="0"/>
        <pt x="102" y="1024" on="1"/>
        <pt x="451" y="1024" on="1"/>
        <pt x="451" y="1413" on="1"/>
        <pt x="451" y="1433" on="0"/>
        <pt x="471" y="1434" on="1"/>
        <pt x="614" y="1434" on="1"/>
        <pt x="634" y="1434" on="0"/>
        <pt x="635" y="1413" on="1"/>
        <pt x="635" y="1024" on="1"/>
        <pt x="983" y="1024" on="1"/>
        <pt x="1003" y="1024" on="0"/>
        <pt x="1004" y="1004" on="1"/>
        <pt x="1004" y="901" on="1"/>
        <pt x="1004" y="881" on="0"/>
        <pt x="983" y="881" on="1"/>
        <pt x="635" y="881" on="1"/>
        <pt x="635" y="213" on="1"/>
        <pt x="983" y="213" on="1"/>
        <pt x="1003" y="213" on="0"/>
        <pt x="1004" y="193" on="1"/>
        <pt x="1004" y="90" on="1"/>
        <pt x="1004" y="70" on="0"/>
        <pt x="983" y="70" on="1"/>
        <pt x="635" y="70" on="1"/>
        <pt x="635" y="-319" on="1"/>
        <pt x="635" y="-339" on="0"/>
        <pt x="614" y="-340" on="1"/>
        <pt x="471" y="-340" on="1"/>
        <pt x="451" y="-340" on="0"/>
        <pt x="451" y="-319" on="1"/>
        <pt x="451" y="70" on="1"/>
        <pt x="102" y="70" on="1"/>
        <pt x="82" y="70" on="0"/>
      </contour>
    </TTGlyph>
    <TTGlyph name="degree" xMin="82" yMin="768" xMax="799" yMax="1464">
      <contour>
        <pt x="180" y="864" on="1"/>
        <pt x="82" y="963" on="0"/>
        <pt x="82" y="1270" on="0"/>
        <pt x="281" y="1464" on="0"/>
        <pt x="600" y="1464" on="0"/>
        <pt x="799" y="1270" on="0"/>
        <pt x="799" y="963" on="0"/>
        <pt x="600" y="768" on="0"/>
        <pt x="281" y="768" on="0"/>
      </contour>
      <contour>
        <pt x="532" y="1331" on="0"/>
        <pt x="348" y="1331" on="0"/>
        <pt x="236" y="1214" on="0"/>
        <pt x="236" y="1018" on="0"/>
        <pt x="348" y="901" on="0"/>
        <pt x="532" y="901" on="0"/>
        <pt x="645" y="1018" on="0"/>
        <pt x="645" y="1214" on="0"/>
      </contour>
    </TTGlyph>
    <TTGlyph name="dieresis" xMin="0" yMin="1229" xMax="635" yMax="1444">
      <contour>
        <pt x="0" y="1270" on="1"/>
        <pt x="0" y="1403" on="1"/>
        <pt x="0" y="1425" on="0"/>
        <pt x="18" y="1444" on="0"/>
        <pt x="41" y="1444" on="1"/>
        <pt x="174" y="1444" on="1"/>
        <pt x="197" y="1444" on="0"/>
        <pt x="215" y="1425" on="0"/>
        <pt x="215" y="1403" on="1"/>
        <pt x="215" y="1270" on="1"/>
        <pt x="215" y="1247" on="0"/>
        <pt x="197" y="1229" on="0"/>
        <pt x="174" y="1229" on="1"/>
        <pt x="41" y="1229" on="1"/>
        <pt x="18" y="1229" on="0"/>
        <pt x="0" y="1247" on="0"/>
      </contour>
      <contour>
        <pt x="594" y="1444" on="1"/>
        <pt x="635" y="1444" on="0"/>
        <pt x="635" y="1403" on="1"/>
        <pt x="635" y="1270" on="1"/>
        <pt x="635" y="1247" on="0"/>
        <pt x="616" y="1229" on="0"/>
        <pt x="594" y="1229" on="1"/>
        <pt x="461" y="1229" on="1"/>
        <pt x="438" y="1229" on="0"/>
        <pt x="420" y="1247" on="0"/>
        <pt x="420" y="1270" on="1"/>
        <pt x="420" y="1403" on="1"/>
        <pt x="420" y="1425" on="0"/>
        <pt x="438" y="1444" on="0"/>
        <pt x="461" y="1444" on="1"/>
      </contour>
    </TTGlyph>
    <TTGlyph name="divide" xMin="82" yMin="184" xMax="1083" yMax="1208">
      <contour>
        <pt x="82" y="645" on="1"/>
        <pt x="82" y="748" on="1"/>
        <pt x="82" y="768" on="0"/>
        <pt x="102" y="768" on="1"/>
        <pt x="1063" y="768" on="1"/>
        <pt x="1083" y="768" on="0"/>
        <pt x="1083" y="748" on="1"/>
        <pt x="1083" y="645" on="1"/>
        <pt x="1083" y="625" on="0"/>
        <pt x="1063" y="625" on="1"/>
        <pt x="102" y="625" on="1"/>
        <pt x="82" y="625" on="0"/>
      </contour>
      <contour>
        <pt x="516" y="184" on="1"/>
        <pt x="475" y="184" on="0"/>
        <pt x="475" y="225" on="1"/>
        <pt x="475" y="358" on="1"/>
        <pt x="475" y="381" on="0"/>
        <pt x="494" y="399" on="0"/>
        <pt x="516" y="399" on="1"/>
        <pt x="649" y="399" on="1"/>
        <pt x="672" y="399" on="0"/>
        <pt x="690" y="381" on="0"/>
        <pt x="690" y="358" on="1"/>
        <pt x="690" y="225" on="1"/>
        <pt x="690" y="203" on="0"/>
        <pt x="672" y="184" on="0"/>
        <pt x="649" y="184" on="1"/>
      </contour>
      <contour>
        <pt x="516" y="993" on="1"/>
        <pt x="475" y="993" on="0"/>
        <pt x="475" y="1034" on="1"/>
        <pt x="475" y="1167" on="1"/>
        <pt x="475" y="1190" on="0"/>
        <pt x="494" y="1208" on="0"/>
        <pt x="516" y="1208" on="1"/>
        <pt x="649" y="1208" on="1"/>
        <pt x="672" y="1208" on="0"/>
        <pt x="690" y="1190" on="0"/>
        <pt x="690" y="1167" on="1"/>
        <pt x="690" y="1034" on="1"/>
        <pt x="690" y="1012" on="0"/>
        <pt x="672" y="993" on="0"/>
        <pt x="649" y="993" on="1"/>
      </contour>
    </TTGlyph>
    <TTGlyph name="dollar" xMin="104" yMin="-205" xMax="1280" yMax="1638">
      <contour>
        <pt x="104" y="365" on="1"/>
        <pt x="100" y="390" on="0"/>
        <pt x="125" y="389" on="1"/>
        <pt x="254" y="389" on="1"/>
        <pt x="272" y="389" on="0"/>
        <pt x="279" y="369" on="1"/>
        <pt x="365" y="113" on="0"/>
        <pt x="717" y="113" on="1"/>
        <pt x="901" y="113" on="0"/>
        <pt x="1096" y="244" on="0"/>
        <pt x="1096" y="438" on="0"/>
        <pt x="973" y="557" on="0"/>
        <pt x="842" y="594" on="1"/>
        <pt x="483" y="696" on="1"/>
        <pt x="135" y="796" on="0"/>
        <pt x="135" y="1075" on="1"/>
        <pt x="135" y="1235" on="0"/>
        <pt x="387" y="1446" on="0"/>
        <pt x="606" y="1460" on="1"/>
        <pt x="606" y="1618" on="1"/>
        <pt x="606" y="1638" on="0"/>
        <pt x="627" y="1638" on="1"/>
        <pt x="770" y="1638" on="1"/>
        <pt x="790" y="1638" on="0"/>
        <pt x="791" y="1618" on="1"/>
        <pt x="791" y="1458" on="1"/>
        <pt x="986" y="1433" on="0"/>
        <pt x="1227" y="1231" on="0"/>
        <pt x="1262" y="1069" on="1"/>
        <pt x="1266" y="1044" on="0"/>
        <pt x="1241" y="1044" on="1"/>
        <pt x="1112" y="1044" on="1"/>
        <pt x="1094" y="1044" on="0"/>
        <pt x="1087" y="1065" on="1"/>
        <pt x="1001" y="1321" on="0"/>
        <pt x="678" y="1321" on="1"/>
        <pt x="508" y="1321" on="0"/>
        <pt x="319" y="1190" on="0"/>
        <pt x="319" y="993" on="0"/>
        <pt x="442" y="879" on="0"/>
        <pt x="575" y="840" on="1"/>
        <pt x="934" y="737" on="1"/>
        <pt x="1280" y="639" on="0"/>
        <pt x="1280" y="358" on="1"/>
        <pt x="1280" y="198" on="0"/>
        <pt x="1020" y="-12" on="0"/>
        <pt x="791" y="-27" on="1"/>
        <pt x="791" y="-184" on="1"/>
        <pt x="791" y="-204" on="0"/>
        <pt x="770" y="-205" on="1"/>
        <pt x="627" y="-205" on="1"/>
        <pt x="607" y="-205" on="0"/>
        <pt x="606" y="-184" on="1"/>
        <pt x="606" y="-25" on="1"/>
        <pt x="393" y="-5" on="0"/>
        <pt x="139" y="199" on="0"/>
      </contour>
    </TTGlyph>
    <TTGlyph name="dotlessi" xMin="205" yMin="0" xMax="389" yMax="1096">
      <contour>
        <pt x="205" y="20" on="1"/>
        <pt x="205" y="1075" on="1"/>
        <pt x="205" y="1096" on="0"/>
        <pt x="225" y="1096" on="1"/>
        <pt x="369" y="1096" on="1"/>
        <pt x="389" y="1096" on="0"/>
        <pt x="389" y="1075" on="1"/>
        <pt x="389" y="20" on="1"/>
        <pt x="389" y="0" on="0"/>
        <pt x="369" y="0" on="1"/>
        <pt x="225" y="0" on="1"/>
        <pt x="205" y="0" on="0"/>
      </contour>
    </TTGlyph>
    <TTGlyph name="e" xMin="123" yMin="-33" xMax="1188" yMax="1126">
      <contour>
        <pt x="416" y="-33" on="0"/>
        <pt x="123" y="270" on="0"/>
        <pt x="123" y="829" on="0"/>
        <pt x="416" y="1126" on="0"/>
        <pt x="889" y="1126" on="0"/>
        <pt x="1188" y="823" on="0"/>
        <pt x="1188" y="573" on="1"/>
        <pt x="1188" y="522" on="1"/>
        <pt x="1188" y="481" on="0"/>
        <pt x="1147" y="481" on="1"/>
        <pt x="309" y="481" on="1"/>
        <pt x="326" y="295" on="0"/>
        <pt x="512" y="111" on="0"/>
        <pt x="655" y="111" on="1"/>
        <pt x="881" y="111" on="0"/>
        <pt x="983" y="295" on="1"/>
        <pt x="995" y="315" on="0"/>
        <pt x="1008" y="315" on="1"/>
        <pt x="1137" y="315" on="1"/>
        <pt x="1163" y="315" on="0"/>
        <pt x="1157" y="291" on="1"/>
        <pt x="1116" y="143" on="0"/>
        <pt x="862" y="-33" on="0"/>
      </contour>
      <contour>
        <pt x="309" y="625" on="1"/>
        <pt x="1004" y="625" on="1"/>
        <pt x="995" y="786" on="0"/>
        <pt x="793" y="983" on="0"/>
        <pt x="514" y="983" on="0"/>
        <pt x="326" y="801" on="0"/>
      </contour>
    </TTGlyph>
    <TTGlyph name="eacute" xMin="123" yMin="-33" xMax="1188" yMax="1526">
      <contour>
        <pt x="416" y="-33" on="0"/>
        <pt x="123" y="270" on="0"/>
        <pt x="123" y="829" on="0"/>
        <pt x="416" y="1126" on="0"/>
        <pt x="889" y="1126" on="0"/>
        <pt x="1188" y="823" on="0"/>
        <pt x="1188" y="573" on="1"/>
        <pt x="1188" y="522" on="1"/>
        <pt x="1188" y="481" on="0"/>
        <pt x="1147" y="481" on="1"/>
        <pt x="309" y="481" on="1"/>
        <pt x="326" y="295" on="0"/>
        <pt x="512" y="111" on="0"/>
        <pt x="655" y="111" on="1"/>
        <pt x="881" y="111" on="0"/>
        <pt x="983" y="295" on="1"/>
        <pt x="995" y="315" on="0"/>
        <pt x="1008" y="315" on="1"/>
        <pt x="1137" y="315" on="1"/>
        <pt x="1163" y="315" on="0"/>
        <pt x="1157" y="291" on="1"/>
        <pt x="1116" y="143" on="0"/>
        <pt x="862" y="-33" on="0"/>
      </contour>
      <contour>
        <pt x="309" y="625" on="1"/>
        <pt x="1004" y="625" on="1"/>
        <pt x="995" y="786" on="0"/>
        <pt x="793" y="983" on="0"/>
        <pt x="514" y="983" on="0"/>
        <pt x="326" y="801" on="0"/>
      </contour>
      <contour>
        <pt x="578" y="1239" on="1"/>
        <pt x="711" y="1505" on="1"/>
        <pt x="721" y="1526" on="0"/>
        <pt x="741" y="1526" on="1"/>
        <pt x="926" y="1526" on="1"/>
        <pt x="950" y="1526" on="0"/>
        <pt x="936" y="1505" on="1"/>
        <pt x="721" y="1239" on="1"/>
        <pt x="705" y="1219" on="0"/>
        <pt x="690" y="1219" on="1"/>
        <pt x="588" y="1219" on="1"/>
        <pt x="567" y="1219" on="0"/>
      </contour>
    </TTGlyph>
    <TTGlyph name="ecircumflex" xMin="123" yMin="-33" xMax="1188" yMax="1524">
      <contour>
        <pt x="416" y="-33" on="0"/>
        <pt x="123" y="270" on="0"/>
        <pt x="123" y="829" on="0"/>
        <pt x="416" y="1126" on="0"/>
        <pt x="889" y="1126" on="0"/>
        <pt x="1188" y="823" on="0"/>
        <pt x="1188" y="573" on="1"/>
        <pt x="1188" y="522" on="1"/>
        <pt x="1188" y="481" on="0"/>
        <pt x="1147" y="481" on="1"/>
        <pt x="309" y="481" on="1"/>
        <pt x="326" y="295" on="0"/>
        <pt x="512" y="111" on="0"/>
        <pt x="655" y="111" on="1"/>
        <pt x="881" y="111" on="0"/>
        <pt x="983" y="295" on="1"/>
        <pt x="995" y="315" on="0"/>
        <pt x="1008" y="315" on="1"/>
        <pt x="1137" y="315" on="1"/>
        <pt x="1163" y="315" on="0"/>
        <pt x="1157" y="291" on="1"/>
        <pt x="1116" y="143" on="0"/>
        <pt x="862" y="-33" on="0"/>
      </contour>
      <contour>
        <pt x="309" y="625" on="1"/>
        <pt x="1004" y="625" on="1"/>
        <pt x="995" y="786" on="0"/>
        <pt x="793" y="983" on="0"/>
        <pt x="514" y="983" on="0"/>
        <pt x="326" y="801" on="0"/>
      </contour>
      <contour>
        <pt x="354" y="1237" on="1"/>
        <pt x="502" y="1462" on="1"/>
        <pt x="529" y="1502" on="0"/>
        <pt x="565" y="1524" on="0"/>
        <pt x="584" y="1524" on="1"/>
        <pt x="727" y="1524" on="1"/>
        <pt x="760" y="1524" on="0"/>
        <pt x="793" y="1485" on="0"/>
        <pt x="809" y="1462" on="1"/>
        <pt x="956" y="1237" on="1"/>
        <pt x="971" y="1217" on="0"/>
        <pt x="946" y="1217" on="1"/>
        <pt x="848" y="1217" on="1"/>
        <pt x="834" y="1217" on="0"/>
        <pt x="813" y="1237" on="1"/>
        <pt x="655" y="1401" on="1"/>
        <pt x="498" y="1237" on="1"/>
        <pt x="477" y="1217" on="0"/>
        <pt x="463" y="1217" on="1"/>
        <pt x="365" y="1217" on="1"/>
        <pt x="340" y="1217" on="0"/>
      </contour>
    </TTGlyph>
    <TTGlyph name="edieresis" xMin="123" yMin="-33" xMax="1188" yMax="1485">
      <contour>
        <pt x="416" y="-33" on="0"/>
        <pt x="123" y="270" on="0"/>
        <pt x="123" y="829" on="0"/>
        <pt x="416" y="1126" on="0"/>
        <pt x="889" y="1126" on="0"/>
        <pt x="1188" y="823" on="0"/>
        <pt x="1188" y="573" on="1"/>
        <pt x="1188" y="522" on="1"/>
        <pt x="1188" y="481" on="0"/>
        <pt x="1147" y="481" on="1"/>
        <pt x="309" y="481" on="1"/>
        <pt x="326" y="295" on="0"/>
        <pt x="512" y="111" on="0"/>
        <pt x="655" y="111" on="1"/>
        <pt x="881" y="111" on="0"/>
        <pt x="983" y="295" on="1"/>
        <pt x="995" y="315" on="0"/>
        <pt x="1008" y="315" on="1"/>
        <pt x="1137" y="315" on="1"/>
        <pt x="1163" y="315" on="0"/>
        <pt x="1157" y="291" on="1"/>
        <pt x="1116" y="143" on="0"/>
        <pt x="862" y="-33" on="0"/>
      </contour>
      <contour>
        <pt x="309" y="625" on="1"/>
        <pt x="1004" y="625" on="1"/>
        <pt x="995" y="786" on="0"/>
        <pt x="793" y="983" on="0"/>
        <pt x="514" y="983" on="0"/>
        <pt x="326" y="801" on="0"/>
      </contour>
      <contour>
        <pt x="492" y="1485" on="1"/>
        <pt x="532" y="1485" on="0"/>
        <pt x="532" y="1444" on="1"/>
        <pt x="532" y="1311" on="1"/>
        <pt x="532" y="1288" on="0"/>
        <pt x="514" y="1270" on="0"/>
        <pt x="492" y="1270" on="1"/>
        <pt x="358" y="1270" on="1"/>
        <pt x="336" y="1270" on="0"/>
        <pt x="317" y="1288" on="0"/>
        <pt x="317" y="1311" on="1"/>
        <pt x="317" y="1444" on="1"/>
        <pt x="317" y="1485" on="0"/>
        <pt x="358" y="1485" on="1"/>
      </contour>
      <contour>
        <pt x="737" y="1444" on="1"/>
        <pt x="737" y="1485" on="0"/>
        <pt x="778" y="1485" on="1"/>
        <pt x="911" y="1485" on="1"/>
        <pt x="934" y="1485" on="0"/>
        <pt x="952" y="1466" on="0"/>
        <pt x="952" y="1444" on="1"/>
        <pt x="952" y="1311" on="1"/>
        <pt x="952" y="1288" on="0"/>
        <pt x="934" y="1270" on="0"/>
        <pt x="911" y="1270" on="1"/>
        <pt x="778" y="1270" on="1"/>
        <pt x="756" y="1270" on="0"/>
        <pt x="737" y="1288" on="0"/>
        <pt x="737" y="1311" on="1"/>
      </contour>
    </TTGlyph>
    <TTGlyph name="egrave" xMin="123" yMin="-33" xMax="1188" yMax="1526">
      <contour>
        <pt x="416" y="-33" on="0"/>
        <pt x="123" y="270" on="0"/>
        <pt x="123" y="829" on="0"/>
        <pt x="416" y="1126" on="0"/>
        <pt x="889" y="1126" on="0"/>
        <pt x="1188" y="823" on="0"/>
        <pt x="1188" y="573" on="1"/>
        <pt x="1188" y="522" on="1"/>
        <pt x="1188" y="481" on="0"/>
        <pt x="1147" y="481" on="1"/>
        <pt x="309" y="481" on="1"/>
        <pt x="326" y="295" on="0"/>
        <pt x="512" y="111" on="0"/>
        <pt x="655" y="111" on="1"/>
        <pt x="881" y="111" on="0"/>
        <pt x="983" y="295" on="1"/>
        <pt x="995" y="315" on="0"/>
        <pt x="1008" y="315" on="1"/>
        <pt x="1137" y="315" on="1"/>
        <pt x="1163" y="315" on="0"/>
        <pt x="1157" y="291" on="1"/>
        <pt x="1116" y="143" on="0"/>
        <pt x="862" y="-33" on="0"/>
      </contour>
      <contour>
        <pt x="309" y="625" on="1"/>
        <pt x="1004" y="625" on="1"/>
        <pt x="995" y="786" on="0"/>
        <pt x="793" y="983" on="0"/>
        <pt x="514" y="983" on="0"/>
        <pt x="326" y="801" on="0"/>
      </contour>
      <contour>
        <pt x="354" y="1505" on="1"/>
        <pt x="340" y="1526" on="0"/>
        <pt x="365" y="1526" on="1"/>
        <pt x="549" y="1526" on="1"/>
        <pt x="569" y="1526" on="0"/>
        <pt x="580" y="1505" on="1"/>
        <pt x="713" y="1239" on="1"/>
        <pt x="723" y="1219" on="0"/>
        <pt x="702" y="1219" on="1"/>
        <pt x="600" y="1219" on="1"/>
        <pt x="586" y="1219" on="0"/>
        <pt x="569" y="1239" on="1"/>
      </contour>
    </TTGlyph>
    <TTGlyph name="eight" xMin="123" yMin="-31" xMax="1249" yMax="1464">
      <contour>
        <pt x="123" y="379" on="1"/>
        <pt x="123" y="510" on="0"/>
        <pt x="283" y="707" on="0"/>
        <pt x="420" y="737" on="1"/>
        <pt x="289" y="766" on="0"/>
        <pt x="164" y="938" on="0"/>
        <pt x="164" y="1055" on="1"/>
        <pt x="164" y="1250" on="0"/>
        <pt x="434" y="1464" on="0"/>
        <pt x="938" y="1464" on="0"/>
        <pt x="1208" y="1249" on="0"/>
        <pt x="1208" y="1055" on="1"/>
        <pt x="1208" y="938" on="0"/>
        <pt x="1083" y="766" on="0"/>
        <pt x="952" y="737" on="1"/>
        <pt x="1089" y="706" on="0"/>
        <pt x="1249" y="510" on="0"/>
        <pt x="1249" y="379" on="1"/>
        <pt x="1249" y="184" on="0"/>
        <pt x="961" y="-31" on="0"/>
        <pt x="412" y="-31" on="0"/>
        <pt x="123" y="184" on="0"/>
      </contour>
      <contour>
        <pt x="498" y="655" on="0"/>
        <pt x="307" y="512" on="0"/>
        <pt x="307" y="248" on="0"/>
        <pt x="502" y="113" on="0"/>
        <pt x="870" y="113" on="0"/>
        <pt x="1065" y="248" on="0"/>
        <pt x="1065" y="512" on="0"/>
        <pt x="874" y="655" on="0"/>
      </contour>
      <contour>
        <pt x="524" y="1321" on="0"/>
        <pt x="348" y="1184" on="0"/>
        <pt x="348" y="932" on="0"/>
        <pt x="524" y="799" on="0"/>
        <pt x="848" y="799" on="0"/>
        <pt x="1024" y="932" on="0"/>
        <pt x="1024" y="1184" on="0"/>
        <pt x="848" y="1321" on="0"/>
      </contour>
    </TTGlyph>
    <TTGlyph name="ellipsis" xMin="143" yMin="-10" xMax="1219" yMax="205">
      <contour>
        <pt x="143" y="164" on="1"/>
        <pt x="143" y="205" on="0"/>
        <pt x="184" y="205" on="1"/>
        <pt x="317" y="205" on="1"/>
        <pt x="340" y="205" on="0"/>
        <pt x="358" y="186" on="0"/>
        <pt x="358" y="164" on="1"/>
        <pt x="358" y="31" on="1"/>
        <pt x="358" y="8" on="0"/>
        <pt x="340" y="-10" on="0"/>
        <pt x="317" y="-10" on="1"/>
        <pt x="184" y="-10" on="1"/>
        <pt x="162" y="-10" on="0"/>
        <pt x="143" y="8" on="0"/>
        <pt x="143" y="31" on="1"/>
      </contour>
      <contour>
        <pt x="748" y="205" on="1"/>
        <pt x="788" y="205" on="0"/>
        <pt x="788" y="164" on="1"/>
        <pt x="788" y="31" on="1"/>
        <pt x="788" y="8" on="0"/>
        <pt x="770" y="-10" on="0"/>
        <pt x="748" y="-10" on="1"/>
        <pt x="614" y="-10" on="1"/>
        <pt x="592" y="-10" on="0"/>
        <pt x="573" y="8" on="0"/>
        <pt x="573" y="31" on="1"/>
        <pt x="573" y="164" on="1"/>
        <pt x="573" y="205" on="0"/>
        <pt x="614" y="205" on="1"/>
      </contour>
      <contour>
        <pt x="1178" y="205" on="1"/>
        <pt x="1219" y="205" on="0"/>
        <pt x="1219" y="164" on="1"/>
        <pt x="1219" y="31" on="1"/>
        <pt x="1219" y="8" on="0"/>
        <pt x="1200" y="-10" on="0"/>
        <pt x="1178" y="-10" on="1"/>
        <pt x="1044" y="-10" on="1"/>
        <pt x="1022" y="-10" on="0"/>
        <pt x="1004" y="8" on="0"/>
        <pt x="1004" y="31" on="1"/>
        <pt x="1004" y="164" on="1"/>
        <pt x="1004" y="205" on="0"/>
        <pt x="1044" y="205" on="1"/>
      </contour>
    </TTGlyph>
    <TTGlyph name="emdash" xMin="82" yMin="584" xMax="1464" yMax="727">
      <contour>
        <pt x="82" y="604" on="1"/>
        <pt x="82" y="707" on="1"/>
        <pt x="82" y="727" on="0"/>
        <pt x="102" y="727" on="1"/>
        <pt x="1444" y="727" on="1"/>
        <pt x="1464" y="727" on="0"/>
        <pt x="1464" y="707" on="1"/>
        <pt x="1464" y="604" on="1"/>
        <pt x="1464" y="584" on="0"/>
        <pt x="1444" y="584" on="1"/>
        <pt x="102" y="584" on="1"/>
        <pt x="82" y="584" on="0"/>
      </contour>
    </TTGlyph>
    <TTGlyph name="endash" xMin="82" yMin="584" xMax="1147" yMax="727">
      <contour>
        <pt x="82" y="604" on="1"/>
        <pt x="82" y="707" on="1"/>
        <pt x="82" y="727" on="0"/>
        <pt x="102" y="727" on="1"/>
        <pt x="1126" y="727" on="1"/>
        <pt x="1147" y="727" on="0"/>
        <pt x="1147" y="707" on="1"/>
        <pt x="1147" y="604" on="1"/>
        <pt x="1147" y="584" on="0"/>
        <pt x="1126" y="584" on="1"/>
        <pt x="102" y="584" on="1"/>
        <pt x="82" y="584" on="0"/>
      </contour>
    </TTGlyph>
    <TTGlyph name="equal" xMin="82" yMin="399" xMax="950" yMax="911">
      <contour>
        <pt x="82" y="420" on="1"/>
        <pt x="82" y="522" on="1"/>
        <pt x="82" y="542" on="0"/>
        <pt x="102" y="543" on="1"/>
        <pt x="930" y="543" on="1"/>
        <pt x="950" y="543" on="0"/>
        <pt x="950" y="522" on="1"/>
        <pt x="950" y="420" on="1"/>
        <pt x="950" y="400" on="0"/>
        <pt x="930" y="399" on="1"/>
        <pt x="102" y="399" on="1"/>
        <pt x="82" y="400" on="0"/>
      </contour>
      <contour>
        <pt x="82" y="788" on="1"/>
        <pt x="82" y="891" on="1"/>
        <pt x="82" y="911" on="0"/>
        <pt x="102" y="911" on="1"/>
        <pt x="930" y="911" on="1"/>
        <pt x="950" y="911" on="0"/>
        <pt x="950" y="891" on="1"/>
        <pt x="950" y="788" on="1"/>
        <pt x="950" y="768" on="0"/>
        <pt x="930" y="768" on="1"/>
        <pt x="102" y="768" on="1"/>
        <pt x="82" y="768" on="0"/>
      </contour>
    </TTGlyph>
    <TTGlyph name="eth" xMin="123" yMin="-31" xMax="1188" yMax="1571">
      <contour>
        <pt x="420" y="-31" on="0"/>
        <pt x="123" y="250" on="0"/>
        <pt x="123" y="725" on="0"/>
        <pt x="414" y="1004" on="0"/>
        <pt x="635" y="1004" on="1"/>
        <pt x="825" y="1004" on="0"/>
        <pt x="956" y="892" on="1"/>
        <pt x="987" y="866" on="0"/>
        <pt x="999" y="848" on="1"/>
        <pt x="1014" y="829" on="1"/>
        <pt x="997" y="1085" on="0"/>
        <pt x="803" y="1231" on="1"/>
        <pt x="674" y="1077" on="1"/>
        <pt x="664" y="1063" on="0"/>
        <pt x="645" y="1075" on="1"/>
        <pt x="584" y="1128" on="1"/>
        <pt x="567" y="1141" on="0"/>
        <pt x="582" y="1157" on="1"/>
        <pt x="692" y="1290" on="1"/>
        <pt x="610" y="1321" on="0"/>
        <pt x="492" y="1321" on="1"/>
        <pt x="451" y="1321" on="1"/>
        <pt x="430" y="1321" on="0"/>
        <pt x="430" y="1341" on="1"/>
        <pt x="430" y="1444" on="1"/>
        <pt x="430" y="1464" on="0"/>
        <pt x="451" y="1464" on="1"/>
        <pt x="492" y="1464" on="1"/>
        <pt x="668" y="1464" on="0"/>
        <pt x="793" y="1409" on="1"/>
        <pt x="928" y="1569" on="1"/>
        <pt x="938" y="1585" on="0"/>
        <pt x="956" y="1571" on="1"/>
        <pt x="1018" y="1518" on="1"/>
        <pt x="1036" y="1509" on="0"/>
        <pt x="1020" y="1489" on="1"/>
        <pt x="899" y="1346" on="1"/>
        <pt x="1188" y="1128" on="0"/>
        <pt x="1188" y="655" on="1"/>
        <pt x="1188" y="532" on="1"/>
        <pt x="1188" y="264" on="0"/>
        <pt x="893" y="-31" on="0"/>
      </contour>
      <contour>
        <pt x="504" y="860" on="0"/>
        <pt x="307" y="664" on="0"/>
        <pt x="307" y="313" on="0"/>
        <pt x="504" y="113" on="0"/>
        <pt x="807" y="113" on="0"/>
        <pt x="1004" y="313" on="0"/>
        <pt x="1004" y="668" on="0"/>
        <pt x="817" y="860" on="0"/>
      </contour>
    </TTGlyph>
    <TTGlyph name="exclam" xMin="205" yMin="-10" xMax="430" yMax="1434">
      <contour>
        <pt x="205" y="1413" on="1"/>
        <pt x="205" y="1434" on="0"/>
        <pt x="225" y="1434" on="1"/>
        <pt x="410" y="1434" on="1"/>
        <pt x="430" y="1434" on="0"/>
        <pt x="430" y="1413" on="1"/>
        <pt x="389" y="379" on="1"/>
        <pt x="389" y="358" on="0"/>
        <pt x="369" y="358" on="1"/>
        <pt x="266" y="358" on="1"/>
        <pt x="246" y="358" on="0"/>
        <pt x="246" y="379" on="1"/>
      </contour>
      <contour>
        <pt x="211" y="31" on="1"/>
        <pt x="211" y="164" on="1"/>
        <pt x="211" y="186" on="0"/>
        <pt x="229" y="205" on="0"/>
        <pt x="252" y="205" on="1"/>
        <pt x="385" y="205" on="1"/>
        <pt x="408" y="205" on="0"/>
        <pt x="426" y="186" on="0"/>
        <pt x="426" y="164" on="1"/>
        <pt x="426" y="31" on="1"/>
        <pt x="426" y="8" on="0"/>
        <pt x="408" y="-10" on="0"/>
        <pt x="385" y="-10" on="1"/>
        <pt x="252" y="-10" on="1"/>
        <pt x="229" y="-10" on="0"/>
        <pt x="211" y="8" on="0"/>
      </contour>
    </TTGlyph>
    <TTGlyph name="exclamdown" xMin="143" yMin="-338" xMax="369" yMax="1106">
      <contour>
        <pt x="143" y="-317" on="1"/>
        <pt x="184" y="717" on="1"/>
        <pt x="184" y="737" on="0"/>
        <pt x="205" y="737" on="1"/>
        <pt x="307" y="737" on="1"/>
        <pt x="327" y="737" on="0"/>
        <pt x="328" y="717" on="1"/>
        <pt x="369" y="-317" on="1"/>
        <pt x="369" y="-337" on="0"/>
        <pt x="348" y="-338" on="1"/>
        <pt x="164" y="-338" on="1"/>
        <pt x="143" y="-337" on="0"/>
      </contour>
      <contour>
        <pt x="150" y="932" on="1"/>
        <pt x="150" y="1065" on="1"/>
        <pt x="150" y="1088" on="0"/>
        <pt x="168" y="1106" on="0"/>
        <pt x="190" y="1106" on="1"/>
        <pt x="324" y="1106" on="1"/>
        <pt x="347" y="1106" on="0"/>
        <pt x="365" y="1087" on="0"/>
        <pt x="365" y="1065" on="1"/>
        <pt x="365" y="932" on="1"/>
        <pt x="365" y="909" on="0"/>
        <pt x="346" y="891" on="0"/>
        <pt x="324" y="891" on="1"/>
        <pt x="190" y="891" on="1"/>
        <pt x="167" y="891" on="0"/>
        <pt x="150" y="909" on="0"/>
      </contour>
    </TTGlyph>
    <TTGlyph name="f" xMin="184" yMin="0" xMax="942" yMax="1464">
      <contour>
        <pt x="184" y="20" on="1"/>
        <pt x="184" y="1014" on="1"/>
        <pt x="184" y="1219" on="0"/>
        <pt x="430" y="1464" on="0"/>
        <pt x="655" y="1464" on="1"/>
        <pt x="819" y="1464" on="0"/>
        <pt x="922" y="1415" on="1"/>
        <pt x="942" y="1405" on="0"/>
        <pt x="942" y="1389" on="1"/>
        <pt x="942" y="1288" on="1"/>
        <pt x="942" y="1263" on="0"/>
        <pt x="922" y="1272" on="1"/>
        <pt x="820" y="1321" on="0"/>
        <pt x="676" y="1321" on="1"/>
        <pt x="369" y="1321" on="0"/>
        <pt x="369" y="1014" on="1"/>
        <pt x="369" y="942" on="1"/>
        <pt x="786" y="942" on="1"/>
        <pt x="806" y="942" on="0"/>
        <pt x="807" y="922" on="1"/>
        <pt x="807" y="819" on="1"/>
        <pt x="807" y="799" on="0"/>
        <pt x="786" y="799" on="1"/>
        <pt x="369" y="799" on="1"/>
        <pt x="369" y="20" on="1"/>
        <pt x="369" y="0" on="0"/>
        <pt x="348" y="0" on="1"/>
        <pt x="205" y="0" on="1"/>
        <pt x="184" y="0" on="0"/>
      </contour>
    </TTGlyph>
    <TTGlyph name="five" xMin="166" yMin="-31" xMax="1262" yMax="1434">
      <contour>
        <pt x="166" y="365" on="1"/>
        <pt x="162" y="390" on="0"/>
        <pt x="186" y="389" on="1"/>
        <pt x="315" y="389" on="1"/>
        <pt x="333" y="389" on="0"/>
        <pt x="340" y="369" on="1"/>
        <pt x="379" y="252" on="0"/>
        <pt x="573" y="113" on="0"/>
        <pt x="887" y="113" on="0"/>
        <pt x="1077" y="281" on="0"/>
        <pt x="1077" y="602" on="0"/>
        <pt x="883" y="768" on="0"/>
        <pt x="698" y="768" on="1"/>
        <pt x="583" y="768" on="0"/>
        <pt x="442" y="705" on="1"/>
        <pt x="370" y="676" on="0"/>
        <pt x="330" y="676" on="1"/>
        <pt x="227" y="676" on="1"/>
        <pt x="207" y="676" on="0"/>
        <pt x="207" y="696" on="1"/>
        <pt x="207" y="1413" on="1"/>
        <pt x="207" y="1433" on="0"/>
        <pt x="227" y="1434" on="1"/>
        <pt x="1167" y="1434" on="1"/>
        <pt x="1187" y="1434" on="0"/>
        <pt x="1188" y="1413" on="1"/>
        <pt x="1188" y="1311" on="1"/>
        <pt x="1188" y="1291" on="0"/>
        <pt x="1167" y="1290" on="1"/>
        <pt x="391" y="1290" on="1"/>
        <pt x="391" y="840" on="1"/>
        <pt x="534" y="912" on="0"/>
        <pt x="709" y="911" on="1"/>
        <pt x="975" y="911" on="0"/>
        <pt x="1262" y="666" on="0"/>
        <pt x="1262" y="215" on="0"/>
        <pt x="975" y="-31" on="0"/>
        <pt x="709" y="-31" on="1"/>
        <pt x="496" y="-31" on="0"/>
        <pt x="205" y="183" on="0"/>
      </contour>
    </TTGlyph>
    <TTGlyph name="florin" xMin="-305" yMin="-369" xMax="1036" yMax="1464">
      <contour>
        <pt x="-305" y="-301" on="1"/>
        <pt x="-289" y="-201" on="1"/>
        <pt x="-285" y="-176" on="0"/>
        <pt x="-264" y="-184" on="1"/>
        <pt x="-170" y="-225" on="0"/>
        <pt x="-79" y="-225" on="1"/>
        <pt x="115" y="-225" on="0"/>
        <pt x="162" y="41" on="1"/>
        <pt x="293" y="778" on="1"/>
        <pt x="150" y="778" on="1"/>
        <pt x="130" y="778" on="0"/>
        <pt x="131" y="799" on="1"/>
        <pt x="150" y="901" on="1"/>
        <pt x="152" y="921" on="0"/>
        <pt x="174" y="922" on="1"/>
        <pt x="317" y="922" on="1"/>
        <pt x="334" y="1014" on="1"/>
        <pt x="371" y="1227" on="0"/>
        <pt x="625" y="1464" on="0"/>
        <pt x="803" y="1464" on="1"/>
        <pt x="926" y="1464" on="0"/>
        <pt x="1020" y="1423" on="1"/>
        <pt x="1038" y="1413" on="0"/>
        <pt x="1036" y="1397" on="1"/>
        <pt x="1018" y="1296" on="1"/>
        <pt x="1014" y="1269" on="0"/>
        <pt x="995" y="1280" on="1"/>
        <pt x="899" y="1321" on="0"/>
        <pt x="797" y="1321" on="1"/>
        <pt x="572" y="1321" on="0"/>
        <pt x="518" y="1014" on="1"/>
        <pt x="502" y="922" on="1"/>
        <pt x="870" y="922" on="1"/>
        <pt x="888" y="922" on="0"/>
        <pt x="887" y="901" on="1"/>
        <pt x="868" y="799" on="1"/>
        <pt x="866" y="779" on="0"/>
        <pt x="846" y="778" on="1"/>
        <pt x="477" y="778" on="1"/>
        <pt x="346" y="41" on="1"/>
        <pt x="272" y="-369" on="0"/>
        <pt x="-92" y="-369" on="1"/>
        <pt x="-183" y="-369" on="0"/>
        <pt x="-264" y="-338" on="1"/>
        <pt x="-291" y="-328" on="1"/>
        <pt x="-309" y="-317" on="0"/>
      </contour>
    </TTGlyph>
</ttFont>
